G04 PROTEUS GERBER X2 FILE*
%TF.GenerationSoftware,Labcenter,Proteus,8.15-SP1-Build34318*%
%TF.CreationDate,2023-09-22T11:42:13+00:00*%
%TF.FileFunction,Copper,L1,Top*%
%TF.FilePolarity,Positive*%
%TF.Part,Single*%
%TF.SameCoordinates,{8a78c1d3-1a7b-4f14-8512-878e163c9550}*%
%FSLAX45Y45*%
%MOMM*%
G01*
%TA.AperFunction,Conductor*%
%ADD10C,1.016000*%
%ADD11C,5.080000*%
%TA.AperFunction,ComponentPad*%
%ADD12C,2.286000*%
%ADD13C,1.778000*%
%TA.AperFunction,ComponentPad*%
%ADD14R,2.032000X2.032000*%
%TA.AperFunction,ComponentPad*%
%ADD15C,2.032000*%
%TA.AperFunction,ComponentPad*%
%ADD16R,1.270000X1.270000*%
%ADD17C,1.270000*%
%TA.AperFunction,ComponentPad*%
%ADD18R,1.524000X1.524000*%
%TA.AperFunction,ComponentPad*%
%ADD19C,1.524000*%
%TA.AperFunction,OtherPad,Unknown*%
%ADD70C,3.048000*%
%TA.AperFunction,ComponentPad*%
%ADD71C,2.540000*%
%ADD20C,6.350000*%
%TA.AperFunction,ComponentPad*%
%ADD21C,3.048000*%
%TA.AperFunction,Profile*%
%ADD22C,0.101600*%
%TD.AperFunction*%
%TA.AperFunction,Conductor*%
G36*
X+7876500Y-3516500D02*
X-5786500Y-3516500D01*
X-5786500Y+8636500D01*
X+7876500Y+8636500D01*
X+7876500Y-3516500D01*
G37*
%TD.AperFunction*%
%LPC*%
G36*
X+5764081Y+5493683D02*
X+6157564Y+5100200D01*
X+6157564Y+1320198D01*
X+5734167Y+896801D01*
X+4157999Y+896801D01*
X+4157999Y+794790D01*
X+4009210Y+646001D01*
X+3798790Y+646001D01*
X+3777000Y+667791D01*
X+3755210Y+646001D01*
X+3544790Y+646001D01*
X+3487999Y+702792D01*
X+3487999Y+620001D01*
X+3257168Y+620001D01*
X+3366699Y+510470D01*
X+3366699Y+507947D01*
X+3384051Y+525299D01*
X+3583949Y+525299D01*
X+3725299Y+383949D01*
X+3725299Y+184051D01*
X+3583949Y+42701D01*
X+3384051Y+42701D01*
X+3251960Y+174791D01*
X+3210470Y+133301D01*
X+2989530Y+133301D01*
X+2850000Y+272831D01*
X+2710470Y+133301D01*
X+2489530Y+133301D01*
X+2358000Y+264831D01*
X+2230470Y+137301D01*
X+2009530Y+137301D01*
X+1885000Y+261831D01*
X+1760470Y+137301D01*
X+1643199Y+137301D01*
X+1643199Y-272303D01*
X+1853199Y-482303D01*
X+1853199Y-692030D01*
X+1885000Y-723831D01*
X+2009530Y-599301D01*
X+2230470Y-599301D01*
X+2362000Y-730831D01*
X+2489530Y-603301D01*
X+2710470Y-603301D01*
X+2850000Y-742831D01*
X+2989530Y-603301D01*
X+3210470Y-603301D01*
X+3242701Y-635532D01*
X+3242701Y-632051D01*
X+3384051Y-490701D01*
X+3583949Y-490701D01*
X+3725299Y-632051D01*
X+3725299Y-831949D01*
X+3583949Y-973299D01*
X+3384051Y-973299D01*
X+3366699Y-955947D01*
X+3366699Y-980470D01*
X+3210470Y-1136699D01*
X+2989530Y-1136699D01*
X+2850000Y-997169D01*
X+2710470Y-1136699D01*
X+2489530Y-1136699D01*
X+2358000Y-1005169D01*
X+2230470Y-1132699D01*
X+2009530Y-1132699D01*
X+1885000Y-1008169D01*
X+1760470Y-1132699D01*
X+1539530Y-1132699D01*
X+1407039Y-1000209D01*
X+1349949Y-1057299D01*
X+1150051Y-1057299D01*
X+1125000Y-1032248D01*
X+1099949Y-1057299D01*
X+900051Y-1057299D01*
X+875000Y-1032248D01*
X+849949Y-1057299D01*
X+650051Y-1057299D01*
X+625000Y-1032248D01*
X+599949Y-1057299D01*
X+400051Y-1057299D01*
X+375000Y-1032248D01*
X+349949Y-1057299D01*
X+150051Y-1057299D01*
X+8701Y-915949D01*
X+8701Y-716051D01*
X+150051Y-574701D01*
X+349949Y-574701D01*
X+375000Y-599752D01*
X+400051Y-574701D01*
X+599949Y-574701D01*
X+625000Y-599752D01*
X+650051Y-574701D01*
X+849949Y-574701D01*
X+875000Y-599752D01*
X+900051Y-574701D01*
X+953933Y-574701D01*
X+1046801Y-481833D01*
X+1046801Y-41299D01*
X+900051Y-41299D01*
X+875000Y-16248D01*
X+849949Y-41299D01*
X+650051Y-41299D01*
X+625000Y-16248D01*
X+599949Y-41299D01*
X+461148Y-41299D01*
X+461148Y-106878D01*
X+197470Y-370556D01*
X-457800Y-370556D01*
X-457800Y-693798D01*
X-1219798Y-693798D01*
X-1219798Y-185800D01*
X-1158747Y-185800D01*
X-937105Y+35842D01*
X+29136Y+35842D01*
X+51023Y+57729D01*
X+8701Y+100051D01*
X+8701Y+201453D01*
X-51Y+192701D01*
X-199949Y+192701D01*
X-228000Y+220752D01*
X-250051Y+198701D01*
X-449949Y+198701D01*
X-591299Y+340051D01*
X-591299Y+539949D01*
X-449949Y+681299D01*
X-250051Y+681299D01*
X-222000Y+653248D01*
X-199949Y+675299D01*
X-16547Y+675299D01*
X-41299Y+700051D01*
X-41299Y+899949D01*
X-14248Y+927000D01*
X-41299Y+954051D01*
X-41299Y+1153949D01*
X+100051Y+1295299D01*
X+299949Y+1295299D01*
X+441299Y+1153949D01*
X+441299Y+1003199D01*
X+985177Y+1003199D01*
X+796801Y+1191575D01*
X+796801Y+1214701D01*
X+650051Y+1214701D01*
X+628999Y+1235751D01*
X+606783Y+1213535D01*
X+406885Y+1213535D01*
X+265535Y+1354885D01*
X+265535Y+1554783D01*
X+272768Y+1562016D01*
X+129232Y+1562016D01*
X+141299Y+1549949D01*
X+141299Y+1350051D01*
X-51Y+1208701D01*
X-199949Y+1208701D01*
X-228001Y+1236751D01*
X-250051Y+1214701D01*
X-449949Y+1214701D01*
X-506166Y+1270918D01*
X-545217Y+1231867D01*
X-745115Y+1231867D01*
X-772166Y+1258918D01*
X-799217Y+1231867D01*
X-999115Y+1231867D01*
X-1140465Y+1373217D01*
X-1140465Y+1515547D01*
X-1182710Y+1473302D01*
X-1182710Y+1153199D01*
X-1060010Y+1153199D01*
X-1009210Y+1203999D01*
X-798790Y+1203999D01*
X-777000Y+1182209D01*
X-755210Y+1203999D01*
X-544790Y+1203999D01*
X-396001Y+1055210D01*
X-396001Y+844790D01*
X-544790Y+696001D01*
X-755210Y+696001D01*
X-777000Y+717791D01*
X-798790Y+696001D01*
X-1009210Y+696001D01*
X-1060010Y+746801D01*
X-1182710Y+746801D01*
X-1182710Y+567839D01*
X-1453748Y+296801D01*
X-1696801Y+296801D01*
X-1696801Y+165899D01*
X-1556572Y+165899D01*
X-1430101Y+39428D01*
X-1430101Y-139428D01*
X-1556572Y-265899D01*
X-1658701Y-265899D01*
X-1658701Y-399949D01*
X-1800051Y-541299D01*
X-1999949Y-541299D01*
X-2058701Y-482547D01*
X-2058701Y-649949D01*
X-2200051Y-791299D01*
X-2399949Y-791299D01*
X-2427001Y-764249D01*
X-2454051Y-791299D01*
X-2521335Y-791299D01*
X-2417433Y-895201D01*
X-2273748Y-895201D01*
X-2150000Y-1018949D01*
X-2026252Y-895201D01*
X-1773748Y-895201D01*
X-1595201Y-1073748D01*
X-1595201Y-1326252D01*
X-1773748Y-1504799D01*
X-2026252Y-1504799D01*
X-2150000Y-1381051D01*
X-2273748Y-1504799D01*
X-2493601Y-1504799D01*
X-2493601Y-2553601D01*
X+3851782Y-2553601D01*
X+3851782Y-228504D01*
X+4260518Y+180232D01*
X+4910502Y+180232D01*
X+5058035Y+32699D01*
X+5260470Y+32699D01*
X+5367960Y-74792D01*
X+5450051Y+7299D01*
X+5649949Y+7299D01*
X+5791299Y-134051D01*
X+5791299Y-333949D01*
X+5791147Y-334101D01*
X+6115899Y-334101D01*
X+6115899Y-893428D01*
X+6078327Y-931000D01*
X+6115899Y-968572D01*
X+6115899Y-1147428D01*
X+5989428Y-1273899D01*
X+5810572Y-1273899D01*
X+5791299Y-1254626D01*
X+5791299Y-1349949D01*
X+5649949Y-1491299D01*
X+5450051Y-1491299D01*
X+5367960Y-1409209D01*
X+5260470Y-1516699D01*
X+5039530Y-1516699D01*
X+4950000Y-1427169D01*
X+4860470Y-1516699D01*
X+4664580Y-1516699D01*
X+4664580Y-3128335D01*
X+4426516Y-3366399D01*
X-2888335Y-3366399D01*
X-3306399Y-2948335D01*
X-3306399Y-1487450D01*
X-3323748Y-1504799D01*
X-3576252Y-1504799D01*
X-3725000Y-1356051D01*
X-3873748Y-1504799D01*
X-4126252Y-1504799D01*
X-4304799Y-1326252D01*
X-4304799Y-1073748D01*
X-4130815Y-899764D01*
X-4441562Y-589017D01*
X-4441562Y+838864D01*
X-4063827Y+1216599D01*
X-3236974Y+1216599D01*
X-3041299Y+1020924D01*
X-3041299Y+1099949D01*
X-3003199Y+1138049D01*
X-3003199Y+1334167D01*
X-2775340Y+1562026D01*
X-2819630Y+1606317D01*
X-3005931Y+1792618D01*
X-3005931Y+1880683D01*
X-3041299Y+1916051D01*
X-3041299Y+1969933D01*
X-3053198Y+1981832D01*
X-3053198Y+2066000D01*
X-3053199Y+2092701D01*
X-3199949Y+2092701D01*
X-3258000Y+2150752D01*
X-3300051Y+2108701D01*
X-3499949Y+2108701D01*
X-3550000Y+2158752D01*
X-3600051Y+2108701D01*
X-3799949Y+2108701D01*
X-3882040Y+2190791D01*
X-3989530Y+2083301D01*
X-4210470Y+2083301D01*
X-4366699Y+2239530D01*
X-4366699Y+2460470D01*
X-4210470Y+2616699D01*
X-3989530Y+2616699D01*
X-3882040Y+2509208D01*
X-3799949Y+2591299D01*
X-3600051Y+2591299D01*
X-3550000Y+2541248D01*
X-3499949Y+2591299D01*
X-3300051Y+2591299D01*
X-3242000Y+2533248D01*
X-3199949Y+2575299D01*
X-3000051Y+2575299D01*
X-2983001Y+2558247D01*
X-2949949Y+2591299D01*
X-2750051Y+2591299D01*
X-2725000Y+2566248D01*
X-2699949Y+2591299D01*
X-2533199Y+2591299D01*
X-2533199Y+2762786D01*
X-2221285Y+3074700D01*
X+1157326Y+3074700D01*
X+1373199Y+2858827D01*
X+1373199Y+2699899D01*
X+1513428Y+2699899D01*
X+1551000Y+2662327D01*
X+1588572Y+2699899D01*
X+1767428Y+2699899D01*
X+1805000Y+2662327D01*
X+1842572Y+2699899D01*
X+2021428Y+2699899D01*
X+2059000Y+2662327D01*
X+2096572Y+2699899D01*
X+2275428Y+2699899D01*
X+2313000Y+2662327D01*
X+2350572Y+2699899D01*
X+2529428Y+2699899D01*
X+2567000Y+2662327D01*
X+2604572Y+2699899D01*
X+2783428Y+2699899D01*
X+2821000Y+2662327D01*
X+2858572Y+2699899D01*
X+3037428Y+2699899D01*
X+3075000Y+2662327D01*
X+3112572Y+2699899D01*
X+3291428Y+2699899D01*
X+3329000Y+2662327D01*
X+3366572Y+2699899D01*
X+3545428Y+2699899D01*
X+3583000Y+2662327D01*
X+3620572Y+2699899D01*
X+3799428Y+2699899D01*
X+3837000Y+2662327D01*
X+3874572Y+2699899D01*
X+4053428Y+2699899D01*
X+4091000Y+2662327D01*
X+4128572Y+2699899D01*
X+4307428Y+2699899D01*
X+4345000Y+2662327D01*
X+4382572Y+2699899D01*
X+4561428Y+2699899D01*
X+4599000Y+2662327D01*
X+4636572Y+2699899D01*
X+4815428Y+2699899D01*
X+4941899Y+2573428D01*
X+4941899Y+2394572D01*
X+4815428Y+2268101D01*
X+4636572Y+2268101D01*
X+4599000Y+2305673D01*
X+4561428Y+2268101D01*
X+4382572Y+2268101D01*
X+4345000Y+2305673D01*
X+4307428Y+2268101D01*
X+4128572Y+2268101D01*
X+4091000Y+2305673D01*
X+4053428Y+2268101D01*
X+3874572Y+2268101D01*
X+3837000Y+2305673D01*
X+3799428Y+2268101D01*
X+3620572Y+2268101D01*
X+3583000Y+2305673D01*
X+3545428Y+2268101D01*
X+3366572Y+2268101D01*
X+3329000Y+2305673D01*
X+3291428Y+2268101D01*
X+3112572Y+2268101D01*
X+3075000Y+2305673D01*
X+3037428Y+2268101D01*
X+2858572Y+2268101D01*
X+2821000Y+2305673D01*
X+2783428Y+2268101D01*
X+2604572Y+2268101D01*
X+2567000Y+2305673D01*
X+2529428Y+2268101D01*
X+2350572Y+2268101D01*
X+2313000Y+2305673D01*
X+2275428Y+2268101D01*
X+2096572Y+2268101D01*
X+2059000Y+2305673D01*
X+2021428Y+2268101D01*
X+1842572Y+2268101D01*
X+1805000Y+2305673D01*
X+1767428Y+2268101D01*
X+1588572Y+2268101D01*
X+1551000Y+2305673D01*
X+1513428Y+2268101D01*
X+1334572Y+2268101D01*
X+1297000Y+2305673D01*
X+1259428Y+2268101D01*
X+1080572Y+2268101D01*
X+1042999Y+2305672D01*
X+1005428Y+2268101D01*
X+826572Y+2268101D01*
X+789000Y+2305673D01*
X+751428Y+2268101D01*
X+572572Y+2268101D01*
X+535000Y+2305673D01*
X+497428Y+2268101D01*
X+318572Y+2268101D01*
X+281000Y+2305673D01*
X+243428Y+2268101D01*
X-315899Y+2268101D01*
X-315899Y+2541382D01*
X-414213Y+2541382D01*
X-333301Y+2460470D01*
X-333301Y+2239530D01*
X-489530Y+2083301D01*
X-710470Y+2083301D01*
X-759961Y+2132791D01*
X-800051Y+2092701D01*
X-999949Y+2092701D01*
X-1050000Y+2142752D01*
X-1100051Y+2092701D01*
X-1299949Y+2092701D01*
X-1350000Y+2142752D01*
X-1400051Y+2092701D01*
X-1508701Y+2092701D01*
X-1508701Y+1916051D01*
X-1546801Y+1877951D01*
X-1546801Y+1765833D01*
X-1737634Y+1575000D01*
X-1589108Y+1426474D01*
X-1589108Y+1641636D01*
X-1262331Y+1968413D01*
X-984169Y+1968413D01*
X-984168Y+1968414D01*
X+718952Y+1968414D01*
X+953199Y+1734167D01*
X+953199Y+1697299D01*
X+1035507Y+1697299D01*
X+1035507Y+1716966D01*
X+1458471Y+2139930D01*
X+3660703Y+2139930D01*
X+4317434Y+1483199D01*
X+4945201Y+1483199D01*
X+4945201Y+1676252D01*
X+5018949Y+1750000D01*
X+4945201Y+1823748D01*
X+4945201Y+2076252D01*
X+5018949Y+2150000D01*
X+4945201Y+2223748D01*
X+4945201Y+2476252D01*
X+5018949Y+2550000D01*
X+4945201Y+2623748D01*
X+4945201Y+2876252D01*
X+5018949Y+2950000D01*
X+4945201Y+3023748D01*
X+4945201Y+3276252D01*
X+5018949Y+3350000D01*
X+4945201Y+3423748D01*
X+4945201Y+3676252D01*
X+5018949Y+3750000D01*
X+4945201Y+3823748D01*
X+4945201Y+4076252D01*
X+5018949Y+4150000D01*
X+4945201Y+4223748D01*
X+4945201Y+4476252D01*
X+5018949Y+4550000D01*
X+4945201Y+4623748D01*
X+4945201Y+4876252D01*
X+4995750Y+4926801D01*
X-958696Y+4926801D01*
X-1373498Y+4511999D01*
X-1096001Y+4511999D01*
X-1096001Y+3587249D01*
X-1050000Y+3541248D01*
X-999949Y+3591299D01*
X-800051Y+3591299D01*
X-775961Y+3567208D01*
X-710470Y+3632699D01*
X-489530Y+3632699D01*
X-333301Y+3476470D01*
X-333301Y+3255530D01*
X-489530Y+3099301D01*
X-710470Y+3099301D01*
X-759961Y+3148791D01*
X-800051Y+3108701D01*
X-999949Y+3108701D01*
X-1050000Y+3158752D01*
X-1100051Y+3108701D01*
X-1299949Y+3108701D01*
X-1350000Y+3158752D01*
X-1400051Y+3108701D01*
X-1599949Y+3108701D01*
X-1658000Y+3166752D01*
X-1700051Y+3124701D01*
X-1899949Y+3124701D01*
X-1925000Y+3149752D01*
X-1950051Y+3124701D01*
X-2149949Y+3124701D01*
X-2291299Y+3266051D01*
X-2291299Y+3465949D01*
X-2149949Y+3607299D01*
X-2084587Y+3607299D01*
X-2255599Y+3778311D01*
X-2255599Y+3967689D01*
X-2103199Y+4120089D01*
X-2103199Y+4209435D01*
X-2371401Y+3941233D01*
X-2371401Y+3905311D01*
X-2403712Y+3873000D01*
X-2371401Y+3840689D01*
X-2371401Y+3651311D01*
X-2457732Y+3564980D01*
X-2358701Y+3465949D01*
X-2358701Y+3266051D01*
X-2500051Y+3124701D01*
X-2699949Y+3124701D01*
X-2725001Y+3149751D01*
X-2750051Y+3124701D01*
X-2949949Y+3124701D01*
X-2967000Y+3141752D01*
X-3000051Y+3108701D01*
X-3199949Y+3108701D01*
X-3258000Y+3166752D01*
X-3300051Y+3124701D01*
X-3499949Y+3124701D01*
X-3550000Y+3174752D01*
X-3600051Y+3124701D01*
X-3799949Y+3124701D01*
X-3882040Y+3206791D01*
X-3989530Y+3099301D01*
X-4210470Y+3099301D01*
X-4366699Y+3255530D01*
X-4366699Y+3476470D01*
X-4210470Y+3632699D01*
X-3989530Y+3632699D01*
X-3882040Y+3525208D01*
X-3799949Y+3607299D01*
X-3600051Y+3607299D01*
X-3550000Y+3557248D01*
X-3503999Y+3603249D01*
X-3503999Y+4453999D01*
X-2996001Y+4453999D01*
X-2996001Y+3910029D01*
X-2955599Y+3950431D01*
X-2955599Y+3967689D01*
X-2694689Y+4228599D01*
X-2658767Y+4228599D01*
X-1334167Y+5553199D01*
X+5704565Y+5553199D01*
X+5764081Y+5493683D01*
G37*
G36*
X+4941899Y+4097428D02*
X+4941899Y+3918572D01*
X+4815428Y+3792101D01*
X+4636572Y+3792101D01*
X+4599000Y+3829673D01*
X+4561428Y+3792101D01*
X+4382572Y+3792101D01*
X+4345000Y+3829673D01*
X+4307428Y+3792101D01*
X+4128572Y+3792101D01*
X+4091000Y+3829673D01*
X+4053428Y+3792101D01*
X+3874572Y+3792101D01*
X+3837000Y+3829673D01*
X+3799428Y+3792101D01*
X+3620572Y+3792101D01*
X+3583000Y+3829673D01*
X+3545428Y+3792101D01*
X+3366572Y+3792101D01*
X+3329000Y+3829673D01*
X+3291428Y+3792101D01*
X+3112572Y+3792101D01*
X+3075000Y+3829673D01*
X+3037428Y+3792101D01*
X+2858572Y+3792101D01*
X+2821000Y+3829673D01*
X+2783428Y+3792101D01*
X+2604572Y+3792101D01*
X+2567000Y+3829673D01*
X+2529428Y+3792101D01*
X+2350572Y+3792101D01*
X+2313000Y+3829673D01*
X+2275428Y+3792101D01*
X+2096572Y+3792101D01*
X+2059000Y+3829673D01*
X+2021428Y+3792101D01*
X+1842572Y+3792101D01*
X+1805000Y+3829673D01*
X+1767428Y+3792101D01*
X+1588572Y+3792101D01*
X+1551000Y+3829673D01*
X+1513428Y+3792101D01*
X+1334572Y+3792101D01*
X+1297000Y+3829673D01*
X+1259428Y+3792101D01*
X+1080572Y+3792101D01*
X+1043000Y+3829673D01*
X+1005428Y+3792101D01*
X+826572Y+3792101D01*
X+789000Y+3829673D01*
X+751428Y+3792101D01*
X+572572Y+3792101D01*
X+535000Y+3829673D01*
X+497428Y+3792101D01*
X+318572Y+3792101D01*
X+281000Y+3829673D01*
X+243428Y+3792101D01*
X+64572Y+3792101D01*
X+27000Y+3829673D01*
X-10572Y+3792101D01*
X-189428Y+3792101D01*
X-315899Y+3918572D01*
X-315899Y+4097428D01*
X-189428Y+4223899D01*
X-10572Y+4223899D01*
X+27000Y+4186327D01*
X+64572Y+4223899D01*
X+243428Y+4223899D01*
X+281000Y+4186327D01*
X+318572Y+4223899D01*
X+497428Y+4223899D01*
X+535000Y+4186327D01*
X+572572Y+4223899D01*
X+751428Y+4223899D01*
X+789000Y+4186327D01*
X+826572Y+4223899D01*
X+1005428Y+4223899D01*
X+1043000Y+4186327D01*
X+1080572Y+4223899D01*
X+1259428Y+4223899D01*
X+1297000Y+4186327D01*
X+1334572Y+4223899D01*
X+1513428Y+4223899D01*
X+1551000Y+4186327D01*
X+1588572Y+4223899D01*
X+1767428Y+4223899D01*
X+1805000Y+4186327D01*
X+1842572Y+4223899D01*
X+2021428Y+4223899D01*
X+2059000Y+4186327D01*
X+2096572Y+4223899D01*
X+2275428Y+4223899D01*
X+2313000Y+4186327D01*
X+2350572Y+4223899D01*
X+2529428Y+4223899D01*
X+2567000Y+4186327D01*
X+2604572Y+4223899D01*
X+2783428Y+4223899D01*
X+2821000Y+4186327D01*
X+2858572Y+4223899D01*
X+3037428Y+4223899D01*
X+3075000Y+4186327D01*
X+3112572Y+4223899D01*
X+3291428Y+4223899D01*
X+3329000Y+4186327D01*
X+3366572Y+4223899D01*
X+3545428Y+4223899D01*
X+3583000Y+4186327D01*
X+3620572Y+4223899D01*
X+3799428Y+4223899D01*
X+3837000Y+4186327D01*
X+3874572Y+4223899D01*
X+4053428Y+4223899D01*
X+4091000Y+4186327D01*
X+4128572Y+4223899D01*
X+4307428Y+4223899D01*
X+4345000Y+4186327D01*
X+4382572Y+4223899D01*
X+4561428Y+4223899D01*
X+4599000Y+4186327D01*
X+4636572Y+4223899D01*
X+4815428Y+4223899D01*
X+4941899Y+4097428D01*
G37*
G36*
X-492001Y-2044790D02*
X-492001Y-2255210D01*
X-640790Y-2403999D01*
X-851210Y-2403999D01*
X-873000Y-2382209D01*
X-894790Y-2403999D01*
X-1105210Y-2403999D01*
X-1253999Y-2255210D01*
X-1253999Y-2044790D01*
X-1105210Y-1896001D01*
X-894790Y-1896001D01*
X-873000Y-1917791D01*
X-851210Y-1896001D01*
X-640790Y-1896001D01*
X-492001Y-2044790D01*
G37*
G36*
X-278599Y-1887401D02*
X+178599Y-1887401D01*
X+178599Y-2344599D01*
X-278599Y-2344599D01*
X-278599Y-1887401D01*
G37*
G36*
X+1981401Y-1887401D02*
X+2438599Y-1887401D01*
X+2438599Y-2344599D01*
X+1981401Y-2344599D01*
X+1981401Y-1887401D01*
G37*
G36*
X-3371089Y+5777041D02*
X-3602551Y+5777041D01*
X-3766219Y+5940709D01*
X-3766219Y+6172171D01*
X-3602551Y+6335839D01*
X-3371089Y+6335839D01*
X-3207421Y+6172171D01*
X-3207421Y+5940709D01*
X-3371089Y+5777041D01*
G37*
G36*
X-3371089Y+6864161D02*
X-3602551Y+6864161D01*
X-3766219Y+7027829D01*
X-3766219Y+7259291D01*
X-3602551Y+7422959D01*
X-3371089Y+7422959D01*
X-3207421Y+7259291D01*
X-3207421Y+7027829D01*
X-3371089Y+6864161D01*
G37*
G36*
X-4605361Y+6130101D02*
X-4994639Y+6130101D01*
X-5269899Y+6405361D01*
X-5269899Y+6794639D01*
X-4994639Y+7069899D01*
X-4605361Y+7069899D01*
X-4330101Y+6794639D01*
X-4330101Y+6405361D01*
X-4605361Y+6130101D01*
G37*
G36*
X-1608161Y+6130101D02*
X-1997439Y+6130101D01*
X-2272699Y+6405361D01*
X-2272699Y+6794639D01*
X-1997439Y+7069899D01*
X-1608161Y+7069899D01*
X-1332901Y+6794639D01*
X-1332901Y+6405361D01*
X-1608161Y+6130101D01*
G37*
G36*
X+4078911Y+5777041D02*
X+3847449Y+5777041D01*
X+3683781Y+5940709D01*
X+3683781Y+6172171D01*
X+3847449Y+6335839D01*
X+4078911Y+6335839D01*
X+4242579Y+6172171D01*
X+4242579Y+5940709D01*
X+4078911Y+5777041D01*
G37*
G36*
X+4078911Y+6864161D02*
X+3847449Y+6864161D01*
X+3683781Y+7027829D01*
X+3683781Y+7259291D01*
X+3847449Y+7422959D01*
X+4078911Y+7422959D01*
X+4242579Y+7259291D01*
X+4242579Y+7027829D01*
X+4078911Y+6864161D01*
G37*
G36*
X+2844639Y+6130101D02*
X+2455361Y+6130101D01*
X+2180101Y+6405361D01*
X+2180101Y+6794639D01*
X+2455361Y+7069899D01*
X+2844639Y+7069899D01*
X+3119899Y+6794639D01*
X+3119899Y+6405361D01*
X+2844639Y+6130101D01*
G37*
G36*
X+5841839Y+6130101D02*
X+5452561Y+6130101D01*
X+5177301Y+6405361D01*
X+5177301Y+6794639D01*
X+5452561Y+7069899D01*
X+5841839Y+7069899D01*
X+6117099Y+6794639D01*
X+6117099Y+6405361D01*
X+5841839Y+6130101D01*
G37*
G36*
X+1204799Y+6726252D02*
X+1204799Y+6473748D01*
X+1026252Y+6295201D01*
X+773748Y+6295201D01*
X+646000Y+6422949D01*
X+518252Y+6295201D01*
X+265748Y+6295201D01*
X+138000Y+6422949D01*
X+10252Y+6295201D01*
X-242252Y+6295201D01*
X-420799Y+6473748D01*
X-420799Y+6726252D01*
X-242252Y+6904799D01*
X+10252Y+6904799D01*
X+138000Y+6777051D01*
X+265748Y+6904799D01*
X+518252Y+6904799D01*
X+646000Y+6777051D01*
X+773748Y+6904799D01*
X+1026252Y+6904799D01*
X+1204799Y+6726252D01*
G37*
G36*
X+6607999Y+555210D02*
X+6607999Y+344790D01*
X+6459210Y+196001D01*
X+6248790Y+196001D01*
X+6227000Y+217791D01*
X+6205210Y+196001D01*
X+5994790Y+196001D01*
X+5846001Y+344790D01*
X+5846001Y+555210D01*
X+5994790Y+703999D01*
X+6205210Y+703999D01*
X+6227000Y+682209D01*
X+6248790Y+703999D01*
X+6459210Y+703999D01*
X+6607999Y+555210D01*
G37*
G36*
X+6877899Y-460572D02*
X+6877899Y-639428D01*
X+6840327Y-677000D01*
X+6877899Y-714572D01*
X+6877899Y-893428D01*
X+6840327Y-931000D01*
X+6877899Y-968572D01*
X+6877899Y-1030853D01*
X+6900051Y-1008701D01*
X+7067453Y-1008701D01*
X+7058701Y-999949D01*
X+7058701Y-800051D01*
X+7085752Y-773000D01*
X+7058701Y-745949D01*
X+7058701Y-546051D01*
X+7200051Y-404701D01*
X+7399949Y-404701D01*
X+7541299Y-546051D01*
X+7541299Y-745949D01*
X+7514248Y-773000D01*
X+7541299Y-800051D01*
X+7541299Y-999949D01*
X+7399949Y-1141299D01*
X+7232547Y-1141299D01*
X+7241299Y-1150051D01*
X+7241299Y-1349949D01*
X+7099949Y-1491299D01*
X+6900051Y-1491299D01*
X+6758701Y-1349949D01*
X+6758701Y-1266626D01*
X+6751428Y-1273899D01*
X+6572572Y-1273899D01*
X+6446101Y-1147428D01*
X+6446101Y-968572D01*
X+6483673Y-931000D01*
X+6446101Y-893428D01*
X+6446101Y-714572D01*
X+6483673Y-677000D01*
X+6446101Y-639428D01*
X+6446101Y-460572D01*
X+6572572Y-334101D01*
X+6751428Y-334101D01*
X+6877899Y-460572D01*
G37*
G36*
X+7099949Y-475299D02*
X+6900051Y-475299D01*
X+6758701Y-333949D01*
X+6758701Y-134051D01*
X+6900051Y+7299D01*
X+7099949Y+7299D01*
X+7241299Y-134051D01*
X+7241299Y-333949D01*
X+7099949Y-475299D01*
G37*
%LPD*%
%TA.AperFunction,Conductor*%
G36*
X+2304701Y+1499949D02*
X+2304701Y+1300051D01*
X+2400753Y+1203999D01*
X+2248790Y+1203999D01*
X+2227000Y+1182209D01*
X+2205210Y+1203999D01*
X+1994790Y+1203999D01*
X+1891299Y+1100508D01*
X+1891299Y+1149949D01*
X+1749949Y+1291299D01*
X+1728987Y+1291299D01*
X+2007306Y+1569618D01*
X+2374370Y+1569618D01*
X+2304701Y+1499949D01*
G37*
%TD.AperFunction*%
%TA.AperFunction,Conductor*%
G36*
X+3785959Y+1141168D02*
X+3777000Y+1132209D01*
X+3755210Y+1153999D01*
X+3544790Y+1153999D01*
X+3487999Y+1097208D01*
X+3487999Y+1127999D01*
X+2535210Y+1127999D01*
X+2504508Y+1158701D01*
X+2645949Y+1158701D01*
X+2673000Y+1185752D01*
X+2700051Y+1158701D01*
X+2899949Y+1158701D01*
X+2948000Y+1206752D01*
X+2996051Y+1158701D01*
X+3195949Y+1158701D01*
X+3223000Y+1185752D01*
X+3250051Y+1158701D01*
X+3449949Y+1158701D01*
X+3591299Y+1300051D01*
X+3591299Y+1335829D01*
X+3785959Y+1141168D01*
G37*
%TD.AperFunction*%
%TA.AperFunction,Conductor*%
G36*
X+1994790Y+696001D02*
X+2205210Y+696001D01*
X+2227000Y+717791D01*
X+2248790Y+696001D01*
X+2459210Y+696001D01*
X+2472001Y+708792D01*
X+2472001Y+649170D01*
X+2362000Y+539169D01*
X+2230470Y+670699D01*
X+2009530Y+670699D01*
X+1884999Y+546168D01*
X+1813208Y+617960D01*
X+1891299Y+696051D01*
X+1891299Y+799492D01*
X+1994790Y+696001D01*
G37*
%TD.AperFunction*%
%TA.AperFunction,Conductor*%
G36*
X+265535Y+538783D02*
X+265535Y+441299D01*
X+150051Y+441299D01*
X+141299Y+432547D01*
X+141299Y+533949D01*
X+116547Y+558701D01*
X+285453Y+558701D01*
X+265535Y+538783D01*
G37*
%TD.AperFunction*%
D10*
X+1000000Y-816000D02*
X+1250000Y-566000D01*
X+1250000Y+200000D01*
X-2554000Y-550000D02*
X-3094926Y-550000D01*
X-3177240Y-467686D01*
X-3177240Y-57240D01*
X-3170000Y-50000D01*
X+506834Y+1454834D02*
X+506834Y+1758381D01*
X+500000Y+1765215D01*
X+634785Y+1765215D01*
X+750000Y+1650000D01*
X+750000Y+1456000D01*
X-350000Y+1456000D02*
X-350000Y+1765215D01*
X+500000Y+1765215D01*
X-899166Y+1473166D02*
X-899166Y+1764381D01*
X-900000Y+1765215D01*
X-350000Y+1765215D01*
X-904000Y+950000D02*
X-1385909Y+950000D01*
X-1385909Y+1557469D01*
X-1178163Y+1765215D01*
X-900000Y+1765215D01*
X-1900000Y-50000D02*
X-1900000Y+500000D01*
X-1537915Y+500000D01*
X-1385909Y+652006D01*
X-1385909Y+950000D01*
X-2154000Y-50000D02*
X-2154000Y+488784D01*
X-2165216Y+500000D01*
X-1900000Y+500000D01*
X-2408000Y-50000D02*
X-2408000Y+484081D01*
X-2423919Y+500000D01*
X-3170000Y+712000D02*
X-3170000Y+570000D01*
X-3100000Y+500000D01*
X-2423919Y+500000D01*
X-2165216Y+500000D01*
X-2850000Y+3366000D02*
X-2850000Y+3768664D01*
X-2803200Y+3815464D01*
X-2727000Y+3873000D01*
X-2500000Y+1000000D02*
X-2330000Y+1000000D01*
X-2408000Y+712000D02*
X-2330000Y+790000D01*
X-2330000Y+1000000D01*
X-2030000Y+1004000D02*
X-2192381Y+1004000D01*
X-2203010Y+1014629D01*
X-2154000Y+712000D02*
X-2203010Y+761010D01*
X-2203010Y+941297D01*
X-2203010Y+1014629D01*
X-1750000Y+1000000D02*
X-1750000Y+1300000D01*
X-1850000Y+1400000D01*
X-2203010Y+1400000D01*
X-2203010Y+1014629D02*
X-2203010Y+1400000D01*
X-1750000Y+2016000D02*
X-1750000Y+1850000D01*
X-1850000Y+1750000D01*
X-2203010Y+1750000D01*
X-2203010Y+1400000D02*
X-2203010Y+1750000D01*
X-2203010Y+2350000D02*
X-2050000Y+2350000D01*
X-2203010Y+1750000D02*
X-2203010Y+2350000D01*
X-2203010Y+2573582D01*
X-2032011Y+2744581D01*
X+832113Y+2744581D01*
X+908447Y+2668247D01*
X+908447Y+2491553D01*
X+916000Y+2484000D01*
X-2330000Y+1400000D02*
X-2650000Y+1400000D01*
X-2800000Y+1250000D01*
X-2800000Y+1000000D01*
X-2330000Y+1000000D02*
X-2330000Y+1400000D01*
X-2330000Y+1750000D02*
X-2675947Y+1750000D01*
X-2802732Y+1876785D01*
X-2802732Y+2013268D01*
X-2800000Y+2016000D01*
X-2330000Y+1400000D02*
X-2330000Y+1750000D01*
X-2330000Y+2678619D01*
X-2137118Y+2871501D01*
X+1073159Y+2871501D01*
X+1170000Y+2774660D01*
X+1170000Y+2484000D01*
X-2850000Y+2350000D02*
X-2850000Y+2066000D01*
X-2800000Y+2016000D01*
X-965799Y-439799D02*
X-965799Y-280218D01*
X-852938Y-167357D01*
X+113303Y-167357D01*
X+257949Y-22711D01*
X+257949Y+192051D01*
X+250000Y+200000D01*
X-2400000Y-1200000D02*
X-2796813Y-803187D01*
X-3013223Y-803187D01*
X-3940026Y-803187D01*
X-4238363Y-504850D01*
X-4238363Y+754697D01*
X-3979660Y+1013400D01*
X-3321141Y+1013400D01*
X-3164352Y+856611D01*
X-3164352Y+717648D01*
X-3170000Y+712000D01*
D11*
X-2900000Y-1200000D02*
X-2900000Y-2780000D01*
X-2720000Y-2960000D01*
X+4258181Y-2960000D01*
X+4258181Y-396839D01*
X+4428853Y-226167D01*
X+4742167Y-226167D01*
X+4750000Y-234000D01*
D10*
X+200000Y+800000D02*
X+1360000Y+800000D01*
X+1440000Y+720000D01*
X+1440000Y-356470D01*
X+1627215Y-543685D01*
X+1650000Y-566470D01*
X+1650000Y-866000D01*
X+1000000Y+1456000D02*
X+1000000Y+1275742D01*
X+1081935Y+1193807D01*
X+1344129Y+1193807D01*
X+1923139Y+1772817D01*
X+3441677Y+1772817D01*
X+4114494Y+1100000D01*
X+5650000Y+1100000D01*
X+5954365Y+1404365D01*
X+5954365Y+5016033D01*
X+5620398Y+5350000D01*
X-1250000Y+5350000D01*
X-2600000Y+4000000D01*
X-1900000Y+4000000D02*
X-1900000Y+4272863D01*
X-1042863Y+5130000D01*
X+5450000Y+5130000D01*
X+5700000Y+4880000D01*
X+5700000Y+1500000D01*
X+5480000Y+1280000D01*
X+4233267Y+1280000D01*
X+3576536Y+1936731D01*
X+1542638Y+1936731D01*
X+1238706Y+1632799D01*
X+1238706Y+1467294D01*
X+1250000Y+1456000D01*
X+7876500Y-3516500D02*
X-5786500Y-3516500D01*
X-5786500Y+8636500D01*
X+7876500Y+8636500D01*
X+7876500Y-3516500D01*
X+5764081Y+5493683D02*
X+6157564Y+5100200D01*
X+6157564Y+1320198D01*
X+5734167Y+896801D01*
X+4157999Y+896801D01*
X+4157999Y+794790D01*
X+4009210Y+646001D01*
X+3798790Y+646001D01*
X+3777000Y+667791D01*
X+3755210Y+646001D01*
X+3544790Y+646001D01*
X+3487999Y+702792D01*
X+3487999Y+620001D01*
X+3257168Y+620001D01*
X+3366699Y+510470D01*
X+3366699Y+507947D01*
X+3384051Y+525299D01*
X+3583949Y+525299D01*
X+3725299Y+383949D01*
X+3725299Y+184051D01*
X+3583949Y+42701D01*
X+3384051Y+42701D01*
X+3251960Y+174791D01*
X+3210470Y+133301D01*
X+2989530Y+133301D01*
X+2850000Y+272831D01*
X+2710470Y+133301D01*
X+2489530Y+133301D01*
X+2358000Y+264831D01*
X+2230470Y+137301D01*
X+2009530Y+137301D01*
X+1885000Y+261831D01*
X+1760470Y+137301D01*
X+1643199Y+137301D01*
X+1643199Y-272303D01*
X+1853199Y-482303D01*
X+1853199Y-692030D01*
X+1885000Y-723831D01*
X+2009530Y-599301D01*
X+2230470Y-599301D01*
X+2362000Y-730831D01*
X+2489530Y-603301D01*
X+2710470Y-603301D01*
X+2850000Y-742831D01*
X+2989530Y-603301D01*
X+3210470Y-603301D01*
X+3242701Y-635532D01*
X+3242701Y-632051D01*
X+3384051Y-490701D01*
X+3583949Y-490701D01*
X+3725299Y-632051D01*
X+3725299Y-831949D01*
X+3583949Y-973299D01*
X+3384051Y-973299D01*
X+3366699Y-955947D01*
X+3366699Y-980470D01*
X+3210470Y-1136699D01*
X+2989530Y-1136699D01*
X+2850000Y-997169D01*
X+2710470Y-1136699D01*
X+2489530Y-1136699D01*
X+2358000Y-1005169D01*
X+2230470Y-1132699D01*
X+2009530Y-1132699D01*
X+1885000Y-1008169D01*
X+1760470Y-1132699D01*
X+1539530Y-1132699D01*
X+1407039Y-1000209D01*
X+1349949Y-1057299D01*
X+1150051Y-1057299D01*
X+1125000Y-1032248D01*
X+1099949Y-1057299D01*
X+900051Y-1057299D01*
X+875000Y-1032248D01*
X+849949Y-1057299D01*
X+650051Y-1057299D01*
X+625000Y-1032248D01*
X+599949Y-1057299D01*
X+400051Y-1057299D01*
X+375000Y-1032248D01*
X+349949Y-1057299D01*
X+150051Y-1057299D01*
X+8701Y-915949D01*
X+8701Y-716051D01*
X+150051Y-574701D01*
X+349949Y-574701D01*
X+375000Y-599752D01*
X+400051Y-574701D01*
X+599949Y-574701D01*
X+625000Y-599752D01*
X+650051Y-574701D01*
X+849949Y-574701D01*
X+875000Y-599752D01*
X+900051Y-574701D01*
X+953933Y-574701D01*
X+1046801Y-481833D01*
X+1046801Y-41299D01*
X+900051Y-41299D01*
X+875000Y-16248D01*
X+849949Y-41299D01*
X+650051Y-41299D01*
X+625000Y-16248D01*
X+599949Y-41299D01*
X+461148Y-41299D01*
X+461148Y-106878D01*
X+197470Y-370556D01*
X-457800Y-370556D01*
X-457800Y-693798D01*
X-1219798Y-693798D01*
X-1219798Y-185800D01*
X-1158747Y-185800D01*
X-937105Y+35842D01*
X+29136Y+35842D01*
X+51023Y+57729D01*
X+8701Y+100051D01*
X+8701Y+201453D01*
X-51Y+192701D01*
X-199949Y+192701D01*
X-228000Y+220752D01*
X-250051Y+198701D01*
X-449949Y+198701D01*
X-591299Y+340051D01*
X-591299Y+539949D01*
X-449949Y+681299D01*
X-250051Y+681299D01*
X-222000Y+653248D01*
X-199949Y+675299D01*
X-16547Y+675299D01*
X-41299Y+700051D01*
X-41299Y+899949D01*
X-14248Y+927000D01*
X-41299Y+954051D01*
X-41299Y+1153949D01*
X+100051Y+1295299D01*
X+299949Y+1295299D01*
X+441299Y+1153949D01*
X+441299Y+1003199D01*
X+985177Y+1003199D01*
X+796801Y+1191575D01*
X+796801Y+1214701D01*
X+650051Y+1214701D01*
X+628999Y+1235751D01*
X+606783Y+1213535D01*
X+406885Y+1213535D01*
X+265535Y+1354885D01*
X+265535Y+1554783D01*
X+272768Y+1562016D01*
X+129232Y+1562016D01*
X+141299Y+1549949D01*
X+141299Y+1350051D01*
X-51Y+1208701D01*
X-199949Y+1208701D01*
X-228001Y+1236751D01*
X-250051Y+1214701D01*
X-449949Y+1214701D01*
X-506166Y+1270918D01*
X-545217Y+1231867D01*
X-745115Y+1231867D01*
X-772166Y+1258918D01*
X-799217Y+1231867D01*
X-999115Y+1231867D01*
X-1140465Y+1373217D01*
X-1140465Y+1515547D01*
X-1182710Y+1473302D01*
X-1182710Y+1153199D01*
X-1060010Y+1153199D01*
X-1009210Y+1203999D01*
X-798790Y+1203999D01*
X-777000Y+1182209D01*
X-755210Y+1203999D01*
X-544790Y+1203999D01*
X-396001Y+1055210D01*
X-396001Y+844790D01*
X-544790Y+696001D01*
X-755210Y+696001D01*
X-777000Y+717791D01*
X-798790Y+696001D01*
X-1009210Y+696001D01*
X-1060010Y+746801D01*
X-1182710Y+746801D01*
X-1182710Y+567839D01*
X-1453748Y+296801D01*
X-1696801Y+296801D01*
X-1696801Y+165899D01*
X-1556572Y+165899D01*
X-1430101Y+39428D01*
X-1430101Y-139428D01*
X-1556572Y-265899D01*
X-1658701Y-265899D01*
X-1658701Y-399949D01*
X-1800051Y-541299D01*
X-1999949Y-541299D01*
X-2058701Y-482547D01*
X-2058701Y-649949D01*
X-2200051Y-791299D01*
X-2399949Y-791299D01*
X-2427001Y-764249D01*
X-2454051Y-791299D01*
X-2521335Y-791299D01*
X-2417433Y-895201D01*
X-2273748Y-895201D01*
X-2150000Y-1018949D01*
X-2026252Y-895201D01*
X-1773748Y-895201D01*
X-1595201Y-1073748D01*
X-1595201Y-1326252D01*
X-1773748Y-1504799D01*
X-2026252Y-1504799D01*
X-2150000Y-1381051D01*
X-2273748Y-1504799D01*
X-2493601Y-1504799D01*
X-2493601Y-2553601D01*
X+3851782Y-2553601D01*
X+3851782Y-228504D01*
X+4260518Y+180232D01*
X+4910502Y+180232D01*
X+5058035Y+32699D01*
X+5260470Y+32699D01*
X+5367960Y-74792D01*
X+5450051Y+7299D01*
X+5649949Y+7299D01*
X+5791299Y-134051D01*
X+5791299Y-333949D01*
X+5791147Y-334101D01*
X+6115899Y-334101D01*
X+6115899Y-893428D01*
X+6078327Y-931000D01*
X+6115899Y-968572D01*
X+6115899Y-1147428D01*
X+5989428Y-1273899D01*
X+5810572Y-1273899D01*
X+5791299Y-1254626D01*
X+5791299Y-1349949D01*
X+5649949Y-1491299D01*
X+5450051Y-1491299D01*
X+5367960Y-1409209D01*
X+5260470Y-1516699D01*
X+5039530Y-1516699D01*
X+4950000Y-1427169D01*
X+4860470Y-1516699D01*
X+4664580Y-1516699D01*
X+4664580Y-3128335D01*
X+4426516Y-3366399D01*
X-2888335Y-3366399D01*
X-3306399Y-2948335D01*
X-3306399Y-1487450D01*
X-3323748Y-1504799D01*
X-3576252Y-1504799D01*
X-3725000Y-1356051D01*
X-3873748Y-1504799D01*
X-4126252Y-1504799D01*
X-4304799Y-1326252D01*
X-4304799Y-1073748D01*
X-4130815Y-899764D01*
X-4441562Y-589017D01*
X-4441562Y+838864D01*
X-4063827Y+1216599D01*
X-3236974Y+1216599D01*
X-3041299Y+1020924D01*
X-3041299Y+1099949D01*
X-3003199Y+1138049D01*
X-3003199Y+1334167D01*
X-2775340Y+1562026D01*
X-2819630Y+1606317D01*
X-3005931Y+1792618D01*
X-3005931Y+1880683D01*
X-3041299Y+1916051D01*
X-3041299Y+1969933D01*
X-3053198Y+1981832D01*
X-3053198Y+2066000D01*
X-3053199Y+2092701D01*
X-3199949Y+2092701D01*
X-3258000Y+2150752D01*
X-3300051Y+2108701D01*
X-3499949Y+2108701D01*
X-3550000Y+2158752D01*
X-3600051Y+2108701D01*
X-3799949Y+2108701D01*
X-3882040Y+2190791D01*
X-3989530Y+2083301D01*
X-4210470Y+2083301D01*
X-4366699Y+2239530D01*
X-4366699Y+2460470D01*
X-4210470Y+2616699D01*
X-3989530Y+2616699D01*
X-3882040Y+2509208D01*
X-3799949Y+2591299D01*
X-3600051Y+2591299D01*
X-3550000Y+2541248D01*
X-3499949Y+2591299D01*
X-3300051Y+2591299D01*
X-3242000Y+2533248D01*
X-3199949Y+2575299D01*
X-3000051Y+2575299D01*
X-2983001Y+2558247D01*
X-2949949Y+2591299D01*
X-2750051Y+2591299D01*
X-2725000Y+2566248D01*
X-2699949Y+2591299D01*
X-2533199Y+2591299D01*
X-2533199Y+2762786D01*
X-2221285Y+3074700D01*
X+1157326Y+3074700D01*
X+1373199Y+2858827D01*
X+1373199Y+2699899D01*
X+1513428Y+2699899D01*
X+1551000Y+2662327D01*
X+1588572Y+2699899D01*
X+1767428Y+2699899D01*
X+1805000Y+2662327D01*
X+1842572Y+2699899D01*
X+2021428Y+2699899D01*
X+2059000Y+2662327D01*
X+2096572Y+2699899D01*
X+2275428Y+2699899D01*
X+2313000Y+2662327D01*
X+2350572Y+2699899D01*
X+2529428Y+2699899D01*
X+2567000Y+2662327D01*
X+2604572Y+2699899D01*
X+2783428Y+2699899D01*
X+2821000Y+2662327D01*
X+2858572Y+2699899D01*
X+3037428Y+2699899D01*
X+3075000Y+2662327D01*
X+3112572Y+2699899D01*
X+3291428Y+2699899D01*
X+3329000Y+2662327D01*
X+3366572Y+2699899D01*
X+3545428Y+2699899D01*
X+3583000Y+2662327D01*
X+3620572Y+2699899D01*
X+3799428Y+2699899D01*
X+3837000Y+2662327D01*
X+3874572Y+2699899D01*
X+4053428Y+2699899D01*
X+4091000Y+2662327D01*
X+4128572Y+2699899D01*
X+4307428Y+2699899D01*
X+4345000Y+2662327D01*
X+4382572Y+2699899D01*
X+4561428Y+2699899D01*
X+4599000Y+2662327D01*
X+4636572Y+2699899D01*
X+4815428Y+2699899D01*
X+4941899Y+2573428D01*
X+4941899Y+2394572D01*
X+4815428Y+2268101D01*
X+4636572Y+2268101D01*
X+4599000Y+2305673D01*
X+4561428Y+2268101D01*
X+4382572Y+2268101D01*
X+4345000Y+2305673D01*
X+4307428Y+2268101D01*
X+4128572Y+2268101D01*
X+4091000Y+2305673D01*
X+4053428Y+2268101D01*
X+3874572Y+2268101D01*
X+3837000Y+2305673D01*
X+3799428Y+2268101D01*
X+3620572Y+2268101D01*
X+3583000Y+2305673D01*
X+3545428Y+2268101D01*
X+3366572Y+2268101D01*
X+3329000Y+2305673D01*
X+3291428Y+2268101D01*
X+3112572Y+2268101D01*
X+3075000Y+2305673D01*
X+3037428Y+2268101D01*
X+2858572Y+2268101D01*
X+2821000Y+2305673D01*
X+2783428Y+2268101D01*
X+2604572Y+2268101D01*
X+2567000Y+2305673D01*
X+2529428Y+2268101D01*
X+2350572Y+2268101D01*
X+2313000Y+2305673D01*
X+2275428Y+2268101D01*
X+2096572Y+2268101D01*
X+2059000Y+2305673D01*
X+2021428Y+2268101D01*
X+1842572Y+2268101D01*
X+1805000Y+2305673D01*
X+1767428Y+2268101D01*
X+1588572Y+2268101D01*
X+1551000Y+2305673D01*
X+1513428Y+2268101D01*
X+1334572Y+2268101D01*
X+1297000Y+2305673D01*
X+1259428Y+2268101D01*
X+1080572Y+2268101D01*
X+1042999Y+2305672D01*
X+1005428Y+2268101D01*
X+826572Y+2268101D01*
X+789000Y+2305673D01*
X+751428Y+2268101D01*
X+572572Y+2268101D01*
X+535000Y+2305673D01*
X+497428Y+2268101D01*
X+318572Y+2268101D01*
X+281000Y+2305673D01*
X+243428Y+2268101D01*
X-315899Y+2268101D01*
X-315899Y+2541382D01*
X-414213Y+2541382D01*
X-333301Y+2460470D01*
X-333301Y+2239530D01*
X-489530Y+2083301D01*
X-710470Y+2083301D01*
X-759961Y+2132791D01*
X-800051Y+2092701D01*
X-999949Y+2092701D01*
X-1050000Y+2142752D01*
X-1100051Y+2092701D01*
X-1299949Y+2092701D01*
X-1350000Y+2142752D01*
X-1400051Y+2092701D01*
X-1508701Y+2092701D01*
X-1508701Y+1916051D01*
X-1546801Y+1877951D01*
X-1546801Y+1765833D01*
X-1737634Y+1575000D01*
X-1589108Y+1426474D01*
X-1589108Y+1641636D01*
X-1262331Y+1968413D01*
X-984169Y+1968413D01*
X-984168Y+1968414D01*
X+718952Y+1968414D01*
X+953199Y+1734167D01*
X+953199Y+1697299D01*
X+1035507Y+1697299D01*
X+1035507Y+1716966D01*
X+1458471Y+2139930D01*
X+3660703Y+2139930D01*
X+4317434Y+1483199D01*
X+4945201Y+1483199D01*
X+4945201Y+1676252D01*
X+5018949Y+1750000D01*
X+4945201Y+1823748D01*
X+4945201Y+2076252D01*
X+5018949Y+2150000D01*
X+4945201Y+2223748D01*
X+4945201Y+2476252D01*
X+5018949Y+2550000D01*
X+4945201Y+2623748D01*
X+4945201Y+2876252D01*
X+5018949Y+2950000D01*
X+4945201Y+3023748D01*
X+4945201Y+3276252D01*
X+5018949Y+3350000D01*
X+4945201Y+3423748D01*
X+4945201Y+3676252D01*
X+5018949Y+3750000D01*
X+4945201Y+3823748D01*
X+4945201Y+4076252D01*
X+5018949Y+4150000D01*
X+4945201Y+4223748D01*
X+4945201Y+4476252D01*
X+5018949Y+4550000D01*
X+4945201Y+4623748D01*
X+4945201Y+4876252D01*
X+4995750Y+4926801D01*
X-958696Y+4926801D01*
X-1373498Y+4511999D01*
X-1096001Y+4511999D01*
X-1096001Y+3587249D01*
X-1050000Y+3541248D01*
X-999949Y+3591299D01*
X-800051Y+3591299D01*
X-775961Y+3567208D01*
X-710470Y+3632699D01*
X-489530Y+3632699D01*
X-333301Y+3476470D01*
X-333301Y+3255530D01*
X-489530Y+3099301D01*
X-710470Y+3099301D01*
X-759961Y+3148791D01*
X-800051Y+3108701D01*
X-999949Y+3108701D01*
X-1050000Y+3158752D01*
X-1100051Y+3108701D01*
X-1299949Y+3108701D01*
X-1350000Y+3158752D01*
X-1400051Y+3108701D01*
X-1599949Y+3108701D01*
X-1658000Y+3166752D01*
X-1700051Y+3124701D01*
X-1899949Y+3124701D01*
X-1925000Y+3149752D01*
X-1950051Y+3124701D01*
X-2149949Y+3124701D01*
X-2291299Y+3266051D01*
X-2291299Y+3465949D01*
X-2149949Y+3607299D01*
X-2084587Y+3607299D01*
X-2255599Y+3778311D01*
X-2255599Y+3967689D01*
X-2103199Y+4120089D01*
X-2103199Y+4209435D01*
X-2371401Y+3941233D01*
X-2371401Y+3905311D01*
X-2403712Y+3873000D01*
X-2371401Y+3840689D01*
X-2371401Y+3651311D01*
X-2457732Y+3564980D01*
X-2358701Y+3465949D01*
X-2358701Y+3266051D01*
X-2500051Y+3124701D01*
X-2699949Y+3124701D01*
X-2725001Y+3149751D01*
X-2750051Y+3124701D01*
X-2949949Y+3124701D01*
X-2967000Y+3141752D01*
X-3000051Y+3108701D01*
X-3199949Y+3108701D01*
X-3258000Y+3166752D01*
X-3300051Y+3124701D01*
X-3499949Y+3124701D01*
X-3550000Y+3174752D01*
X-3600051Y+3124701D01*
X-3799949Y+3124701D01*
X-3882040Y+3206791D01*
X-3989530Y+3099301D01*
X-4210470Y+3099301D01*
X-4366699Y+3255530D01*
X-4366699Y+3476470D01*
X-4210470Y+3632699D01*
X-3989530Y+3632699D01*
X-3882040Y+3525208D01*
X-3799949Y+3607299D01*
X-3600051Y+3607299D01*
X-3550000Y+3557248D01*
X-3503999Y+3603249D01*
X-3503999Y+4453999D01*
X-2996001Y+4453999D01*
X-2996001Y+3910029D01*
X-2955599Y+3950431D01*
X-2955599Y+3967689D01*
X-2694689Y+4228599D01*
X-2658767Y+4228599D01*
X-1334167Y+5553199D01*
X+5704565Y+5553199D01*
X+5764081Y+5493683D01*
X+4941899Y+4097428D02*
X+4941899Y+3918572D01*
X+4815428Y+3792101D01*
X+4636572Y+3792101D01*
X+4599000Y+3829673D01*
X+4561428Y+3792101D01*
X+4382572Y+3792101D01*
X+4345000Y+3829673D01*
X+4307428Y+3792101D01*
X+4128572Y+3792101D01*
X+4091000Y+3829673D01*
X+4053428Y+3792101D01*
X+3874572Y+3792101D01*
X+3837000Y+3829673D01*
X+3799428Y+3792101D01*
X+3620572Y+3792101D01*
X+3583000Y+3829673D01*
X+3545428Y+3792101D01*
X+3366572Y+3792101D01*
X+3329000Y+3829673D01*
X+3291428Y+3792101D01*
X+3112572Y+3792101D01*
X+3075000Y+3829673D01*
X+3037428Y+3792101D01*
X+2858572Y+3792101D01*
X+2821000Y+3829673D01*
X+2783428Y+3792101D01*
X+2604572Y+3792101D01*
X+2567000Y+3829673D01*
X+2529428Y+3792101D01*
X+2350572Y+3792101D01*
X+2313000Y+3829673D01*
X+2275428Y+3792101D01*
X+2096572Y+3792101D01*
X+2059000Y+3829673D01*
X+2021428Y+3792101D01*
X+1842572Y+3792101D01*
X+1805000Y+3829673D01*
X+1767428Y+3792101D01*
X+1588572Y+3792101D01*
X+1551000Y+3829673D01*
X+1513428Y+3792101D01*
X+1334572Y+3792101D01*
X+1297000Y+3829673D01*
X+1259428Y+3792101D01*
X+1080572Y+3792101D01*
X+1043000Y+3829673D01*
X+1005428Y+3792101D01*
X+826572Y+3792101D01*
X+789000Y+3829673D01*
X+751428Y+3792101D01*
X+572572Y+3792101D01*
X+535000Y+3829673D01*
X+497428Y+3792101D01*
X+318572Y+3792101D01*
X+281000Y+3829673D01*
X+243428Y+3792101D01*
X+64572Y+3792101D01*
X+27000Y+3829673D01*
X-10572Y+3792101D01*
X-189428Y+3792101D01*
X-315899Y+3918572D01*
X-315899Y+4097428D01*
X-189428Y+4223899D01*
X-10572Y+4223899D01*
X+27000Y+4186327D01*
X+64572Y+4223899D01*
X+243428Y+4223899D01*
X+281000Y+4186327D01*
X+318572Y+4223899D01*
X+497428Y+4223899D01*
X+535000Y+4186327D01*
X+572572Y+4223899D01*
X+751428Y+4223899D01*
X+789000Y+4186327D01*
X+826572Y+4223899D01*
X+1005428Y+4223899D01*
X+1043000Y+4186327D01*
X+1080572Y+4223899D01*
X+1259428Y+4223899D01*
X+1297000Y+4186327D01*
X+1334572Y+4223899D01*
X+1513428Y+4223899D01*
X+1551000Y+4186327D01*
X+1588572Y+4223899D01*
X+1767428Y+4223899D01*
X+1805000Y+4186327D01*
X+1842572Y+4223899D01*
X+2021428Y+4223899D01*
X+2059000Y+4186327D01*
X+2096572Y+4223899D01*
X+2275428Y+4223899D01*
X+2313000Y+4186327D01*
X+2350572Y+4223899D01*
X+2529428Y+4223899D01*
X+2567000Y+4186327D01*
X+2604572Y+4223899D01*
X+2783428Y+4223899D01*
X+2821000Y+4186327D01*
X+2858572Y+4223899D01*
X+3037428Y+4223899D01*
X+3075000Y+4186327D01*
X+3112572Y+4223899D01*
X+3291428Y+4223899D01*
X+3329000Y+4186327D01*
X+3366572Y+4223899D01*
X+3545428Y+4223899D01*
X+3583000Y+4186327D01*
X+3620572Y+4223899D01*
X+3799428Y+4223899D01*
X+3837000Y+4186327D01*
X+3874572Y+4223899D01*
X+4053428Y+4223899D01*
X+4091000Y+4186327D01*
X+4128572Y+4223899D01*
X+4307428Y+4223899D01*
X+4345000Y+4186327D01*
X+4382572Y+4223899D01*
X+4561428Y+4223899D01*
X+4599000Y+4186327D01*
X+4636572Y+4223899D01*
X+4815428Y+4223899D01*
X+4941899Y+4097428D01*
X-492001Y-2044790D02*
X-492001Y-2255210D01*
X-640790Y-2403999D01*
X-851210Y-2403999D01*
X-873000Y-2382209D01*
X-894790Y-2403999D01*
X-1105210Y-2403999D01*
X-1253999Y-2255210D01*
X-1253999Y-2044790D01*
X-1105210Y-1896001D01*
X-894790Y-1896001D01*
X-873000Y-1917791D01*
X-851210Y-1896001D01*
X-640790Y-1896001D01*
X-492001Y-2044790D01*
X-278599Y-1887401D02*
X+178599Y-1887401D01*
X+178599Y-2344599D01*
X-278599Y-2344599D01*
X-278599Y-1887401D01*
X+1981401Y-1887401D02*
X+2438599Y-1887401D01*
X+2438599Y-2344599D01*
X+1981401Y-2344599D01*
X+1981401Y-1887401D01*
X-3371089Y+5777041D02*
X-3602551Y+5777041D01*
X-3766219Y+5940709D01*
X-3766219Y+6172171D01*
X-3602551Y+6335839D01*
X-3371089Y+6335839D01*
X-3207421Y+6172171D01*
X-3207421Y+5940709D01*
X-3371089Y+5777041D01*
X-3371089Y+6864161D02*
X-3602551Y+6864161D01*
X-3766219Y+7027829D01*
X-3766219Y+7259291D01*
X-3602551Y+7422959D01*
X-3371089Y+7422959D01*
X-3207421Y+7259291D01*
X-3207421Y+7027829D01*
X-3371089Y+6864161D01*
X-4605361Y+6130101D02*
X-4994639Y+6130101D01*
X-5269899Y+6405361D01*
X-5269899Y+6794639D01*
X-4994639Y+7069899D01*
X-4605361Y+7069899D01*
X-4330101Y+6794639D01*
X-4330101Y+6405361D01*
X-4605361Y+6130101D01*
X-1608161Y+6130101D02*
X-1997439Y+6130101D01*
X-2272699Y+6405361D01*
X-2272699Y+6794639D01*
X-1997439Y+7069899D01*
X-1608161Y+7069899D01*
X-1332901Y+6794639D01*
X-1332901Y+6405361D01*
X-1608161Y+6130101D01*
X+4078911Y+5777041D02*
X+3847449Y+5777041D01*
X+3683781Y+5940709D01*
X+3683781Y+6172171D01*
X+3847449Y+6335839D01*
X+4078911Y+6335839D01*
X+4242579Y+6172171D01*
X+4242579Y+5940709D01*
X+4078911Y+5777041D01*
X+4078911Y+6864161D02*
X+3847449Y+6864161D01*
X+3683781Y+7027829D01*
X+3683781Y+7259291D01*
X+3847449Y+7422959D01*
X+4078911Y+7422959D01*
X+4242579Y+7259291D01*
X+4242579Y+7027829D01*
X+4078911Y+6864161D01*
X+2844639Y+6130101D02*
X+2455361Y+6130101D01*
X+2180101Y+6405361D01*
X+2180101Y+6794639D01*
X+2455361Y+7069899D01*
X+2844639Y+7069899D01*
X+3119899Y+6794639D01*
X+3119899Y+6405361D01*
X+2844639Y+6130101D01*
X+5841839Y+6130101D02*
X+5452561Y+6130101D01*
X+5177301Y+6405361D01*
X+5177301Y+6794639D01*
X+5452561Y+7069899D01*
X+5841839Y+7069899D01*
X+6117099Y+6794639D01*
X+6117099Y+6405361D01*
X+5841839Y+6130101D01*
X+1204799Y+6726252D02*
X+1204799Y+6473748D01*
X+1026252Y+6295201D01*
X+773748Y+6295201D01*
X+646000Y+6422949D01*
X+518252Y+6295201D01*
X+265748Y+6295201D01*
X+138000Y+6422949D01*
X+10252Y+6295201D01*
X-242252Y+6295201D01*
X-420799Y+6473748D01*
X-420799Y+6726252D01*
X-242252Y+6904799D01*
X+10252Y+6904799D01*
X+138000Y+6777051D01*
X+265748Y+6904799D01*
X+518252Y+6904799D01*
X+646000Y+6777051D01*
X+773748Y+6904799D01*
X+1026252Y+6904799D01*
X+1204799Y+6726252D01*
X+6607999Y+555210D02*
X+6607999Y+344790D01*
X+6459210Y+196001D01*
X+6248790Y+196001D01*
X+6227000Y+217791D01*
X+6205210Y+196001D01*
X+5994790Y+196001D01*
X+5846001Y+344790D01*
X+5846001Y+555210D01*
X+5994790Y+703999D01*
X+6205210Y+703999D01*
X+6227000Y+682209D01*
X+6248790Y+703999D01*
X+6459210Y+703999D01*
X+6607999Y+555210D01*
X+6877899Y-460572D02*
X+6877899Y-639428D01*
X+6840327Y-677000D01*
X+6877899Y-714572D01*
X+6877899Y-893428D01*
X+6840327Y-931000D01*
X+6877899Y-968572D01*
X+6877899Y-1030853D01*
X+6900051Y-1008701D01*
X+7067453Y-1008701D01*
X+7058701Y-999949D01*
X+7058701Y-800051D01*
X+7085752Y-773000D01*
X+7058701Y-745949D01*
X+7058701Y-546051D01*
X+7200051Y-404701D01*
X+7399949Y-404701D01*
X+7541299Y-546051D01*
X+7541299Y-745949D01*
X+7514248Y-773000D01*
X+7541299Y-800051D01*
X+7541299Y-999949D01*
X+7399949Y-1141299D01*
X+7232547Y-1141299D01*
X+7241299Y-1150051D01*
X+7241299Y-1349949D01*
X+7099949Y-1491299D01*
X+6900051Y-1491299D01*
X+6758701Y-1349949D01*
X+6758701Y-1266626D01*
X+6751428Y-1273899D01*
X+6572572Y-1273899D01*
X+6446101Y-1147428D01*
X+6446101Y-968572D01*
X+6483673Y-931000D01*
X+6446101Y-893428D01*
X+6446101Y-714572D01*
X+6483673Y-677000D01*
X+6446101Y-639428D01*
X+6446101Y-460572D01*
X+6572572Y-334101D01*
X+6751428Y-334101D01*
X+6877899Y-460572D01*
X+7099949Y-475299D02*
X+6900051Y-475299D01*
X+6758701Y-333949D01*
X+6758701Y-134051D01*
X+6900051Y+7299D01*
X+7099949Y+7299D01*
X+7241299Y-134051D01*
X+7241299Y-333949D01*
X+7099949Y-475299D01*
X+2304701Y+1499949D02*
X+2304701Y+1300051D01*
X+2400753Y+1203999D01*
X+2248790Y+1203999D01*
X+2227000Y+1182209D01*
X+2205210Y+1203999D01*
X+1994790Y+1203999D01*
X+1891299Y+1100508D01*
X+1891299Y+1149949D01*
X+1749949Y+1291299D01*
X+1728987Y+1291299D01*
X+2007306Y+1569618D01*
X+2374370Y+1569618D01*
X+2304701Y+1499949D01*
X+3785959Y+1141168D02*
X+3777000Y+1132209D01*
X+3755210Y+1153999D01*
X+3544790Y+1153999D01*
X+3487999Y+1097208D01*
X+3487999Y+1127999D01*
X+2535210Y+1127999D01*
X+2504508Y+1158701D01*
X+2645949Y+1158701D01*
X+2673000Y+1185752D01*
X+2700051Y+1158701D01*
X+2899949Y+1158701D01*
X+2948000Y+1206752D01*
X+2996051Y+1158701D01*
X+3195949Y+1158701D01*
X+3223000Y+1185752D01*
X+3250051Y+1158701D01*
X+3449949Y+1158701D01*
X+3591299Y+1300051D01*
X+3591299Y+1335829D01*
X+3785959Y+1141168D01*
X+1994790Y+696001D02*
X+2205210Y+696001D01*
X+2227000Y+717791D01*
X+2248790Y+696001D01*
X+2459210Y+696001D01*
X+2472001Y+708792D01*
X+2472001Y+649170D01*
X+2362000Y+539169D01*
X+2230470Y+670699D01*
X+2009530Y+670699D01*
X+1884999Y+546168D01*
X+1813208Y+617960D01*
X+1891299Y+696051D01*
X+1891299Y+799492D01*
X+1994790Y+696001D01*
X+265535Y+538783D02*
X+265535Y+441299D01*
X+150051Y+441299D01*
X+141299Y+432547D01*
X+141299Y+533949D01*
X+116547Y+558701D01*
X+285453Y+558701D01*
X+265535Y+538783D01*
X+2800000Y+1209501D02*
X+2800000Y+1400000D01*
X+2980000Y+1077199D02*
X+2980000Y+874000D01*
X+3096000Y+1209501D02*
X+3096000Y+1400000D01*
X+3904000Y+696801D02*
X+3904000Y+900000D01*
X+2694000Y+2318901D02*
X+2694000Y+2484000D01*
X+2694000Y+2649099D02*
X+2694000Y+2484000D01*
X+2186000Y+4173099D02*
X+2186000Y+4008000D01*
X+2186000Y+3842901D02*
X+2186000Y+4008000D01*
X-1203199Y-2150000D02*
X-1000000Y-2150000D01*
X-1000000Y-1946801D02*
X-1000000Y-2150000D01*
X-1000000Y-2353199D02*
X-1000000Y-2150000D01*
X+500000Y+9501D02*
X+500000Y+200000D01*
X+200000Y+1244499D02*
X+200000Y+1054000D01*
X+9501Y+1054000D02*
X+200000Y+1054000D01*
X+390499Y+1054000D02*
X+200000Y+1054000D01*
X+1650000Y+188101D02*
X+1650000Y+404000D01*
X+2354000Y+746801D02*
X+2354000Y+950000D01*
X+2354000Y+1153199D02*
X+2354000Y+950000D01*
X+316335Y+438834D02*
X+506834Y+438834D01*
X-446801Y+950000D02*
X-650000Y+950000D01*
X-650000Y+746801D02*
X-650000Y+950000D01*
X-650000Y+1153199D02*
X-650000Y+950000D01*
X-645166Y+1282667D02*
X-645166Y+1473166D01*
X-1480901Y-50000D02*
X-1646000Y-50000D01*
X-1646000Y-215099D02*
X-1646000Y-50000D01*
X-1646000Y+115099D02*
X-1646000Y-50000D01*
X-100000Y+624499D02*
X-100000Y+434000D01*
X-100000Y+243501D02*
X-100000Y+434000D01*
X+90499Y+434000D02*
X-100000Y+434000D01*
X-2600000Y+3175501D02*
X-2600000Y+3366000D01*
X-2409501Y+3366000D02*
X-2600000Y+3366000D01*
X-3100000Y+2524499D02*
X-3100000Y+2334000D01*
X-3100000Y+2143501D02*
X-3100000Y+2334000D01*
X-1500000Y+2143501D02*
X-1500000Y+2334000D01*
X-4100000Y+2565899D02*
X-4100000Y+2350000D01*
X-4100000Y+2134101D02*
X-4100000Y+2350000D01*
X-4315899Y+2350000D02*
X-4100000Y+2350000D01*
X-600000Y+2134101D02*
X-600000Y+2350000D01*
X-384101Y+2350000D02*
X-600000Y+2350000D01*
X-3700000Y+3175501D02*
X-3700000Y+3366000D01*
X-3700000Y+3556499D02*
X-3700000Y+3366000D01*
X-900000Y+3159501D02*
X-900000Y+3350000D01*
X-900000Y+3540499D02*
X-900000Y+3350000D01*
X-3486820Y+5827841D02*
X-3486820Y+6056440D01*
X-3486820Y+6285039D02*
X-3486820Y+6056440D01*
X-3258221Y+6056440D02*
X-3486820Y+6056440D01*
X-3715419Y+6056440D02*
X-3486820Y+6056440D01*
X+3963180Y+5827841D02*
X+3963180Y+6056440D01*
X+3963180Y+6285039D02*
X+3963180Y+6056440D01*
X+4191779Y+6056440D02*
X+3963180Y+6056440D01*
X+3734581Y+6056440D02*
X+3963180Y+6056440D01*
X+6662000Y-1223099D02*
X+6662000Y-1058000D01*
X+6496901Y-1058000D02*
X+6662000Y-1058000D01*
X+7300000Y-1090499D02*
X+7300000Y-900000D01*
X+7490499Y-900000D02*
X+7300000Y-900000D01*
X+7109501Y-900000D02*
X+7300000Y-900000D01*
D12*
X+2600000Y-870000D03*
X+2600000Y+400000D03*
D13*
X+3484000Y+284000D03*
X+3484000Y-732000D03*
X+2546000Y+1400000D03*
X+2800000Y+1400000D03*
D12*
X+3100000Y+400000D03*
X+3100000Y-870000D03*
D14*
X+2726000Y+874000D03*
X+2980000Y+874000D03*
X+3234000Y+874000D03*
D13*
X+3350000Y+1400000D03*
X+3096000Y+1400000D03*
D15*
X+3650000Y+900000D03*
X+3904000Y+900000D03*
D16*
X-100000Y+2484000D03*
D17*
X+154000Y+2484000D03*
X+408000Y+2484000D03*
X+662000Y+2484000D03*
X+916000Y+2484000D03*
X+1170000Y+2484000D03*
X+1424000Y+2484000D03*
X+1678000Y+2484000D03*
X+1932000Y+2484000D03*
X+2186000Y+2484000D03*
X+2440000Y+2484000D03*
X+2694000Y+2484000D03*
X+2948000Y+2484000D03*
X+3202000Y+2484000D03*
X+3456000Y+2484000D03*
X+3710000Y+2484000D03*
X+3964000Y+2484000D03*
X+4218000Y+2484000D03*
X+4472000Y+2484000D03*
X+4726000Y+2484000D03*
X+4726000Y+4008000D03*
X+4472000Y+4008000D03*
X+4218000Y+4008000D03*
X+3964000Y+4008000D03*
X+3710000Y+4008000D03*
X+3456000Y+4008000D03*
X+3202000Y+4008000D03*
X+2948000Y+4008000D03*
X+2694000Y+4008000D03*
X+2440000Y+4008000D03*
X+2186000Y+4008000D03*
X+1932000Y+4008000D03*
X+1678000Y+4008000D03*
X+1424000Y+4008000D03*
X+1170000Y+4008000D03*
X+916000Y+4008000D03*
X+662000Y+4008000D03*
X+408000Y+4008000D03*
X+154000Y+4008000D03*
X-100000Y+4008000D03*
D14*
X-11413920Y+8235840D03*
X-11667920Y+8235840D03*
X-10683920Y+8235840D03*
X-10937920Y+8235840D03*
X-10017920Y+8235840D03*
X-10271920Y+8235840D03*
X-9317920Y+8235840D03*
X-9571920Y+8235840D03*
X-8667920Y+8235840D03*
X-8921920Y+8235840D03*
X-8017920Y+8235840D03*
X-8271920Y+8235840D03*
X-7317920Y+8235840D03*
X-7571920Y+8235840D03*
D13*
X-10267920Y+6985840D03*
X-10267920Y+5969840D03*
X-9967920Y+6985840D03*
X-9967920Y+5969840D03*
X-9667920Y+6985840D03*
X-9667920Y+5969840D03*
X-9367920Y+6995840D03*
X-9367920Y+5979840D03*
X-9067920Y+6985840D03*
X-9067920Y+5969840D03*
X-8767920Y+6985840D03*
X-8767920Y+5969840D03*
X-8467920Y+6985840D03*
X-8467920Y+5969840D03*
D15*
X-746000Y-2150000D03*
X-1000000Y-2150000D03*
D13*
X+250000Y-816000D03*
X+250000Y+200000D03*
D14*
X-965799Y-439799D03*
X-711799Y-439799D03*
D18*
X-50000Y-2116000D03*
X+2210000Y-2116000D03*
D13*
X+1250000Y-816000D03*
X+1250000Y+200000D03*
X+1000000Y-816000D03*
X+1000000Y+200000D03*
X+750000Y+200000D03*
X+750000Y-816000D03*
X+500000Y-816000D03*
X+500000Y+200000D03*
X+200000Y+1054000D03*
X+200000Y+800000D03*
D12*
X+1650000Y+404000D03*
X+1650000Y-866000D03*
X+2120000Y-866000D03*
X+2120000Y+404000D03*
D13*
X+1650000Y+796000D03*
X+1650000Y+1050000D03*
X+1250000Y+440000D03*
X+1250000Y+1456000D03*
X+1000000Y+440000D03*
X+1000000Y+1456000D03*
X+750000Y+440000D03*
X+750000Y+1456000D03*
D15*
X+2100000Y+950000D03*
X+2354000Y+950000D03*
D13*
X+506834Y+438834D03*
X+506834Y+1454834D03*
D15*
X-904000Y+950000D03*
X-650000Y+950000D03*
D13*
X-645166Y+1473166D03*
X-899166Y+1473166D03*
D16*
X-3170000Y-50000D03*
D17*
X-2916000Y-50000D03*
X-2662000Y-50000D03*
X-2408000Y-50000D03*
X-2154000Y-50000D03*
X-1900000Y-50000D03*
X-1646000Y-50000D03*
X-1646000Y+712000D03*
X-1900000Y+712000D03*
X-2154000Y+712000D03*
X-2408000Y+712000D03*
X-2662000Y+712000D03*
X-2916000Y+712000D03*
X-3170000Y+712000D03*
D13*
X-350000Y+1456000D03*
X-350000Y+440000D03*
X-100000Y+1450000D03*
X-100000Y+434000D03*
X-2554000Y-550000D03*
X-2300000Y-550000D03*
X-2916000Y-300000D03*
X-1900000Y-300000D03*
D15*
X-3650000Y+92000D03*
X-3650000Y+346000D03*
X-3650000Y+600000D03*
D13*
X-1750000Y+1000000D03*
X-1750000Y+2016000D03*
X-2030000Y+2020000D03*
X-2030000Y+1004000D03*
X-2800000Y+1000000D03*
X-2800000Y+2016000D03*
X-2500000Y+2016000D03*
X-2500000Y+1000000D03*
X-2050000Y+2350000D03*
X-2050000Y+3366000D03*
X-2850000Y+2350000D03*
X-2850000Y+3366000D03*
D19*
X-1900000Y+3746000D03*
X-2027000Y+3873000D03*
X-1900000Y+4000000D03*
D13*
X-1800000Y+2350000D03*
X-1800000Y+3366000D03*
X-2600000Y+2350000D03*
X-2600000Y+3366000D03*
D19*
X-2600000Y+3746000D03*
X-2727000Y+3873000D03*
X-2600000Y+4000000D03*
D14*
X-1350000Y+4258000D03*
X-1350000Y+4004000D03*
X-1350000Y+3750000D03*
X-3250000Y+3692000D03*
X-3250000Y+3946000D03*
X-3250000Y+4200000D03*
D13*
X-3100000Y+3350000D03*
X-3100000Y+2334000D03*
X-1500000Y+2334000D03*
X-1500000Y+3350000D03*
D70*
X+5250000Y+1950000D03*
X+5250000Y+3550000D03*
X+5250000Y+3150000D03*
X+5250000Y+2750000D03*
X+5250000Y+2350000D03*
X+5250000Y+3950000D03*
X+5250000Y+4350000D03*
D18*
X-10817920Y+6185840D03*
X-11417920Y+6185840D03*
X-10817920Y+6785840D03*
X-11417920Y+6785840D03*
D13*
X-12017920Y+7001840D03*
X-12017920Y+5985840D03*
X-11767920Y+5985840D03*
X-11767920Y+7001840D03*
D12*
X-4100000Y+2350000D03*
X-4100000Y+3366000D03*
X-600000Y+2350000D03*
X-600000Y+3366000D03*
D70*
X-3450000Y-1200000D03*
X-4000000Y-1200000D03*
D13*
X-3400000Y+2350000D03*
X-3400000Y+3366000D03*
X-3700000Y+3366000D03*
X-3700000Y+2350000D03*
X-1200000Y+2334000D03*
X-1200000Y+3350000D03*
X-900000Y+3350000D03*
X-900000Y+2334000D03*
D71*
X-3486820Y+6056440D03*
X-3486820Y+7143560D03*
D20*
X-4800000Y+6600000D03*
X-1802800Y+6600000D03*
D71*
X+3963180Y+6056440D03*
X+3963180Y+7143560D03*
D20*
X+2650000Y+6600000D03*
X+5647200Y+6600000D03*
D21*
X+900000Y+6600000D03*
X+392000Y+6600000D03*
X-116000Y+6600000D03*
D15*
X+6100000Y+450000D03*
X+6354000Y+450000D03*
D12*
X+4750000Y-234000D03*
X+4750000Y-1250000D03*
X+5150000Y-234000D03*
X+5150000Y-1250000D03*
D13*
X+5550000Y-234000D03*
X+5550000Y-1250000D03*
D16*
X+5900000Y-550000D03*
D17*
X+5900000Y-804000D03*
X+5900000Y-1058000D03*
X+6662000Y-1058000D03*
X+6662000Y-804000D03*
X+6662000Y-550000D03*
D13*
X+7300000Y-900000D03*
X+7300000Y-646000D03*
X+7000000Y-1250000D03*
X+7000000Y-234000D03*
D70*
X-2900000Y-1200000D03*
X-10517060Y+5135840D03*
X-10117920Y+5135840D03*
X-9717920Y+5135840D03*
X-9317920Y+5135840D03*
X-8917920Y+5135840D03*
X-8517060Y+5135840D03*
X-8117060Y+5135840D03*
X-2400000Y-1200000D03*
X-1900000Y-1200000D03*
D14*
X-7750000Y+6750000D03*
X-7750000Y+6496000D03*
D70*
X-11850000Y+5000000D03*
X-7450000Y+5000000D03*
X+5250000Y+4750000D03*
X+5250000Y+1550000D03*
D22*
X-5943980Y-3673980D02*
X+8033980Y-3673980D01*
X+8033980Y+8793980D01*
X-5943980Y+8793980D01*
X-5943980Y-3673980D01*
X-12367920Y+4567920D02*
X-6917920Y+4567920D01*
X-6917920Y+8803760D01*
X-12367920Y+8803760D01*
X-12367920Y+4567920D01*
M02*
