G04 PROTEUS GERBER X2 FILE*
%TF.GenerationSoftware,Labcenter,Proteus,8.15-SP1-Build34318*%
%TF.CreationDate,2023-09-22T11:42:13+00:00*%
%TF.FileFunction,AssemblyDrawing,Top*%
%TF.FilePolarity,Positive*%
%TF.Part,Single*%
%TF.SameCoordinates,{8a78c1d3-1a7b-4f14-8512-878e163c9550}*%
%FSLAX45Y45*%
%MOMM*%
G01*
%TA.AperFunction,Material*%
%ADD23C,0.101600*%
%ADD35C,0.914400*%
%ADD36C,0.231130*%
%ADD37C,0.711200*%
%ADD38C,0.117340*%
%ADD39C,0.113450*%
%ADD40C,0.812800*%
%ADD41C,0.179490*%
%ADD42C,0.050800*%
%ADD43C,0.173000*%
%TA.AperFunction,Profile*%
%ADD22C,0.101600*%
%TA.AperFunction,Material*%
%ADD44C,0.508000*%
%ADD45C,0.760270*%
%ADD46C,0.171190*%
%ADD47C,0.183890*%
%ADD48C,0.609600*%
%ADD49C,0.197120*%
%ADD50C,0.128010*%
%ADD51C,0.440230*%
%ADD52C,0.200660*%
%ADD53C,0.114800*%
%ADD54C,0.183130*%
%ADD55C,1.016000*%
%ADD56C,0.820010*%
%ADD57C,1.219200*%
%ADD58C,0.299720*%
%ADD59C,0.195580*%
%ADD60C,0.111760*%
%TD.AperFunction*%
D23*
X+2404420Y-984300D02*
X+2795580Y-984300D01*
X+2795580Y+514300D01*
X+2404420Y+514300D01*
X+2404420Y-984300D01*
D35*
X+2600000Y+400000D02*
X+2600000Y+400000D01*
D36*
X+2669342Y-627047D02*
X+2530658Y-627047D01*
X+2530658Y-523035D01*
X+2576886Y-471029D01*
X+2623114Y-471029D01*
X+2669342Y-523035D01*
X+2669342Y-627047D01*
X+2553772Y-393019D02*
X+2530658Y-367016D01*
X+2530658Y-289007D01*
X+2553772Y-263004D01*
X+2576886Y-263004D01*
X+2600000Y-289007D01*
X+2600000Y-367016D01*
X+2623114Y-393019D01*
X+2669342Y-393019D01*
X+2669342Y-263004D01*
X+2646228Y-210997D02*
X+2553772Y-210997D01*
X+2530658Y-184994D01*
X+2530658Y-80982D01*
X+2553772Y-54979D01*
X+2646228Y-54979D01*
X+2669342Y-80982D01*
X+2669342Y-184994D01*
X+2646228Y-210997D01*
X+2669342Y-210997D02*
X+2530658Y-54979D01*
D23*
X+3395100Y-820900D02*
X+3572900Y-820900D01*
X+3572900Y+372900D01*
X+3395100Y+372900D01*
X+3395100Y-820900D01*
D37*
X+3484000Y+284000D02*
X+3484000Y+284000D01*
D38*
X+3519204Y-444648D02*
X+3448796Y-444648D01*
X+3448796Y-378641D01*
X+3460531Y-365439D01*
X+3472265Y-365439D01*
X+3484000Y-378641D01*
X+3484000Y-444648D01*
X+3484000Y-378641D02*
X+3495735Y-365439D01*
X+3519204Y-365439D01*
X+3460531Y-325835D02*
X+3448796Y-312633D01*
X+3448796Y-273029D01*
X+3460531Y-259827D01*
X+3472265Y-259827D01*
X+3484000Y-273029D01*
X+3495735Y-259827D01*
X+3507469Y-259827D01*
X+3519204Y-273029D01*
X+3519204Y-312633D01*
X+3507469Y-325835D01*
X+3484000Y-299432D02*
X+3484000Y-273029D01*
X+3460531Y-220223D02*
X+3448796Y-207021D01*
X+3448796Y-167417D01*
X+3460531Y-154215D01*
X+3472265Y-154215D01*
X+3484000Y-167417D01*
X+3495735Y-154215D01*
X+3507469Y-154215D01*
X+3519204Y-167417D01*
X+3519204Y-207021D01*
X+3507469Y-220223D01*
X+3484000Y-193820D02*
X+3484000Y-167417D01*
D23*
X+2413920Y+1267920D02*
X+2932080Y+1267920D01*
X+2932080Y+1532080D01*
X+2413920Y+1532080D01*
X+2413920Y+1267920D01*
D37*
X+2546000Y+1400000D02*
X+2546000Y+1400000D01*
D39*
X+2731293Y+1377309D02*
X+2718529Y+1365964D01*
X+2680239Y+1365964D01*
X+2654713Y+1388655D01*
X+2654713Y+1411345D01*
X+2680239Y+1434036D01*
X+2718529Y+1434036D01*
X+2731293Y+1422691D01*
X+2782346Y+1400000D02*
X+2769583Y+1411345D01*
X+2769583Y+1422691D01*
X+2782346Y+1434036D01*
X+2820636Y+1434036D01*
X+2833400Y+1422691D01*
X+2833400Y+1411345D01*
X+2820636Y+1400000D01*
X+2782346Y+1400000D01*
X+2769583Y+1388655D01*
X+2769583Y+1377309D01*
X+2782346Y+1365964D01*
X+2820636Y+1365964D01*
X+2833400Y+1377309D01*
X+2833400Y+1388655D01*
X+2820636Y+1400000D01*
D23*
X+2904420Y-984300D02*
X+3295580Y-984300D01*
X+3295580Y+514300D01*
X+2904420Y+514300D01*
X+2904420Y-984300D01*
D35*
X+3100000Y-870000D02*
X+3100000Y-870000D01*
D36*
X+3169342Y-467027D02*
X+3030658Y-467027D01*
X+3030658Y-363015D01*
X+3076886Y-311009D01*
X+3123114Y-311009D01*
X+3169342Y-363015D01*
X+3169342Y-467027D01*
X+3053772Y-232999D02*
X+3030658Y-206996D01*
X+3030658Y-128987D01*
X+3053772Y-102984D01*
X+3076886Y-102984D01*
X+3100000Y-128987D01*
X+3100000Y-206996D01*
X+3123114Y-232999D01*
X+3169342Y-232999D01*
X+3169342Y-102984D01*
X+3053772Y-24974D02*
X+3030658Y+1029D01*
X+3030658Y+79038D01*
X+3053772Y+105041D01*
X+3076886Y+105041D01*
X+3100000Y+79038D01*
X+3100000Y+1029D01*
X+3123114Y-24974D01*
X+3169342Y-24974D01*
X+3169342Y+105041D01*
D23*
X+2593920Y+741920D02*
X+3366080Y+741920D01*
X+3366080Y+1133080D01*
X+2593920Y+1133080D01*
X+2593920Y+741920D01*
D40*
X+2726000Y+874000D02*
X+2726000Y+874000D01*
D41*
X+2904817Y+991348D02*
X+2904817Y+901601D01*
X+2925009Y+883652D01*
X+3005781Y+883652D01*
X+3025974Y+901601D01*
X+3025974Y+991348D01*
X+3187517Y+919551D02*
X+3066360Y+919551D01*
X+3147131Y+991348D01*
X+3147131Y+883652D01*
D23*
X+2963920Y+1267920D02*
X+3482080Y+1267920D01*
X+3482080Y+1532080D01*
X+2963920Y+1532080D01*
X+2963920Y+1267920D01*
D37*
X+3350000Y+1400000D02*
X+3350000Y+1400000D01*
D39*
X+3113653Y+1377309D02*
X+3100889Y+1365964D01*
X+3062599Y+1365964D01*
X+3037073Y+1388655D01*
X+3037073Y+1411345D01*
X+3062599Y+1434036D01*
X+3100889Y+1434036D01*
X+3113653Y+1422691D01*
X+3215760Y+1411345D02*
X+3202996Y+1400000D01*
X+3164706Y+1400000D01*
X+3151943Y+1411345D01*
X+3151943Y+1422691D01*
X+3164706Y+1434036D01*
X+3202996Y+1434036D01*
X+3215760Y+1422691D01*
X+3215760Y+1377309D01*
X+3202996Y+1365964D01*
X+3164706Y+1365964D01*
D42*
X+4060060Y+900000D02*
X+4059142Y+922814D01*
X+4051689Y+968443D01*
X+4036142Y+1014072D01*
X+4010900Y+1059701D01*
X+3972358Y+1105231D01*
X+3926729Y+1140727D01*
X+3881100Y+1163847D01*
X+3835471Y+1177700D01*
X+3789842Y+1183646D01*
X+3776080Y+1183980D01*
X+3492100Y+900000D02*
X+3493018Y+922814D01*
X+3500471Y+968443D01*
X+3516018Y+1014072D01*
X+3541260Y+1059701D01*
X+3579802Y+1105231D01*
X+3625431Y+1140727D01*
X+3671060Y+1163847D01*
X+3716689Y+1177700D01*
X+3762318Y+1183646D01*
X+3776080Y+1183980D01*
X+3492100Y+900000D02*
X+3493018Y+877186D01*
X+3500471Y+831557D01*
X+3516018Y+785928D01*
X+3541260Y+740299D01*
X+3579802Y+694769D01*
X+3625431Y+659273D01*
X+3671060Y+636153D01*
X+3716689Y+622300D01*
X+3762318Y+616354D01*
X+3776080Y+616020D01*
X+4060060Y+900000D02*
X+4059142Y+877186D01*
X+4051689Y+831557D01*
X+4036142Y+785928D01*
X+4010900Y+740299D01*
X+3972358Y+694769D01*
X+3926729Y+659273D01*
X+3881100Y+636153D01*
X+3835471Y+622300D01*
X+3789842Y+616354D01*
X+3776080Y+616020D01*
D40*
X+3904000Y+900000D02*
X+3904000Y+900000D01*
D43*
X+3711062Y+783220D02*
X+3728363Y+763756D01*
X+3728363Y+705366D01*
X+3693761Y+666440D01*
X+3659160Y+666440D01*
X+3624558Y+705366D01*
X+3624558Y+763756D01*
X+3641859Y+783220D01*
X+3659160Y+861073D02*
X+3624558Y+900000D01*
X+3728363Y+900000D01*
X+3711062Y+977854D02*
X+3641859Y+977854D01*
X+3624558Y+997317D01*
X+3624558Y+1075170D01*
X+3641859Y+1094634D01*
X+3711062Y+1094634D01*
X+3728363Y+1075170D01*
X+3728363Y+997317D01*
X+3711062Y+977854D01*
X+3728363Y+977854D02*
X+3624558Y+1094634D01*
D22*
X-5943980Y-3673980D02*
X+8033980Y-3673980D01*
X+8033980Y+8793980D01*
X-5943980Y+8793980D01*
X-5943980Y-3673980D01*
D23*
X-232080Y+2420500D02*
X+4858080Y+2420500D01*
X+4858080Y+4071500D01*
X-232080Y+4071500D01*
X-232080Y+2420500D01*
D44*
X-100000Y+2484000D02*
X-100000Y+2484000D01*
D45*
X+1707496Y+3474081D02*
X+1707496Y+3093945D01*
X+1793026Y+3017918D01*
X+2135148Y+3017918D01*
X+2220679Y+3093945D01*
X+2220679Y+3474081D01*
X+2477270Y+3398054D02*
X+2562801Y+3474081D01*
X+2819392Y+3474081D01*
X+2904923Y+3398054D01*
X+2904923Y+3322027D01*
X+2819392Y+3246000D01*
X+2904923Y+3169972D01*
X+2904923Y+3093945D01*
X+2819392Y+3017918D01*
X+2562801Y+3017918D01*
X+2477270Y+3093945D01*
X+2648331Y+3246000D02*
X+2819392Y+3246000D01*
D23*
X-11800000Y+7913260D02*
X-11218340Y+7913260D01*
X-11218340Y+8494920D01*
X-11800000Y+8494920D01*
X-11800000Y+7913260D01*
D40*
X-11667920Y+8235840D02*
X-11667920Y+8235840D01*
D46*
X-11371451Y+7972976D02*
X-11474168Y+7972976D01*
X-11474168Y+8050014D01*
X-11439929Y+8088533D01*
X-11405690Y+8088533D01*
X-11371451Y+8050014D01*
X-11371451Y+7972976D01*
X-11439929Y+8165571D02*
X-11474168Y+8204090D01*
X-11371451Y+8204090D01*
X-11457049Y+8300387D02*
X-11474168Y+8319647D01*
X-11474168Y+8377425D01*
X-11457049Y+8396685D01*
X-11439929Y+8396685D01*
X-11422810Y+8377425D01*
X-11405690Y+8396685D01*
X-11388570Y+8396685D01*
X-11371451Y+8377425D01*
X-11371451Y+8319647D01*
X-11388570Y+8300387D01*
X-11422810Y+8338906D02*
X-11422810Y+8377425D01*
D23*
X-11070000Y+7913260D02*
X-10488340Y+7913260D01*
X-10488340Y+8494920D01*
X-11070000Y+8494920D01*
X-11070000Y+7913260D01*
D40*
X-10937920Y+8235840D02*
X-10937920Y+8235840D01*
D46*
X-10641451Y+7972976D02*
X-10744168Y+7972976D01*
X-10744168Y+8050014D01*
X-10709929Y+8088533D01*
X-10675690Y+8088533D01*
X-10641451Y+8050014D01*
X-10641451Y+7972976D01*
X-10709929Y+8165571D02*
X-10744168Y+8204090D01*
X-10641451Y+8204090D01*
X-10675690Y+8396685D02*
X-10675690Y+8281128D01*
X-10744168Y+8358166D01*
X-10641451Y+8358166D01*
D23*
X-10404000Y+7913260D02*
X-9822340Y+7913260D01*
X-9822340Y+8494920D01*
X-10404000Y+8494920D01*
X-10404000Y+7913260D01*
D40*
X-10271920Y+8235840D02*
X-10271920Y+8235840D01*
D46*
X-9975451Y+7972976D02*
X-10078168Y+7972976D01*
X-10078168Y+8050014D01*
X-10043929Y+8088533D01*
X-10009690Y+8088533D01*
X-9975451Y+8050014D01*
X-9975451Y+7972976D01*
X-10043929Y+8165571D02*
X-10078168Y+8204090D01*
X-9975451Y+8204090D01*
X-10078168Y+8396685D02*
X-10078168Y+8300387D01*
X-10043929Y+8300387D01*
X-10043929Y+8377425D01*
X-10026810Y+8396685D01*
X-9992570Y+8396685D01*
X-9975451Y+8377425D01*
X-9975451Y+8319647D01*
X-9992570Y+8300387D01*
D23*
X-9704000Y+7913260D02*
X-9122340Y+7913260D01*
X-9122340Y+8494920D01*
X-9704000Y+8494920D01*
X-9704000Y+7913260D01*
D40*
X-9571920Y+8235840D02*
X-9571920Y+8235840D01*
D46*
X-9275451Y+7972976D02*
X-9378168Y+7972976D01*
X-9378168Y+8050014D01*
X-9343929Y+8088533D01*
X-9309690Y+8088533D01*
X-9275451Y+8050014D01*
X-9275451Y+7972976D01*
X-9343929Y+8165571D02*
X-9378168Y+8204090D01*
X-9275451Y+8204090D01*
X-9361049Y+8396685D02*
X-9378168Y+8377425D01*
X-9378168Y+8319647D01*
X-9361049Y+8300387D01*
X-9292570Y+8300387D01*
X-9275451Y+8319647D01*
X-9275451Y+8377425D01*
X-9292570Y+8396685D01*
X-9309690Y+8396685D01*
X-9326810Y+8377425D01*
X-9326810Y+8300387D01*
D23*
X-9054000Y+7913260D02*
X-8472340Y+7913260D01*
X-8472340Y+8494920D01*
X-9054000Y+8494920D01*
X-9054000Y+7913260D01*
D40*
X-8921920Y+8235840D02*
X-8921920Y+8235840D01*
D46*
X-8625451Y+7972976D02*
X-8728168Y+7972976D01*
X-8728168Y+8050014D01*
X-8693929Y+8088533D01*
X-8659690Y+8088533D01*
X-8625451Y+8050014D01*
X-8625451Y+7972976D01*
X-8693929Y+8165571D02*
X-8728168Y+8204090D01*
X-8625451Y+8204090D01*
X-8728168Y+8300387D02*
X-8728168Y+8396685D01*
X-8711049Y+8396685D01*
X-8625451Y+8300387D01*
D23*
X-8404000Y+7913260D02*
X-7822340Y+7913260D01*
X-7822340Y+8494920D01*
X-8404000Y+8494920D01*
X-8404000Y+7913260D01*
D40*
X-8271920Y+8235840D02*
X-8271920Y+8235840D01*
D46*
X-7975451Y+7972976D02*
X-8078168Y+7972976D01*
X-8078168Y+8050014D01*
X-8043929Y+8088533D01*
X-8009690Y+8088533D01*
X-7975451Y+8050014D01*
X-7975451Y+7972976D01*
X-8043929Y+8165571D02*
X-8078168Y+8204090D01*
X-7975451Y+8204090D01*
X-8026810Y+8319647D02*
X-8043929Y+8300387D01*
X-8061049Y+8300387D01*
X-8078168Y+8319647D01*
X-8078168Y+8377425D01*
X-8061049Y+8396685D01*
X-8043929Y+8396685D01*
X-8026810Y+8377425D01*
X-8026810Y+8319647D01*
X-8009690Y+8300387D01*
X-7992570Y+8300387D01*
X-7975451Y+8319647D01*
X-7975451Y+8377425D01*
X-7992570Y+8396685D01*
X-8009690Y+8396685D01*
X-8026810Y+8377425D01*
D23*
X-7704000Y+7913260D02*
X-7122340Y+7913260D01*
X-7122340Y+8494920D01*
X-7704000Y+8494920D01*
X-7704000Y+7913260D01*
D40*
X-7571920Y+8235840D02*
X-7571920Y+8235840D01*
D46*
X-7275451Y+7972976D02*
X-7378168Y+7972976D01*
X-7378168Y+8050014D01*
X-7343929Y+8088533D01*
X-7309690Y+8088533D01*
X-7275451Y+8050014D01*
X-7275451Y+7972976D01*
X-7343929Y+8165571D02*
X-7378168Y+8204090D01*
X-7275451Y+8204090D01*
X-7343929Y+8396685D02*
X-7326810Y+8377425D01*
X-7326810Y+8319647D01*
X-7343929Y+8300387D01*
X-7361049Y+8300387D01*
X-7378168Y+8319647D01*
X-7378168Y+8377425D01*
X-7361049Y+8396685D01*
X-7292570Y+8396685D01*
X-7275451Y+8377425D01*
X-7275451Y+8319647D01*
D23*
X-10356820Y+5880940D02*
X-10179020Y+5880940D01*
X-10179020Y+7074740D01*
X-10356820Y+7074740D01*
X-10356820Y+5880940D01*
D37*
X-10267920Y+6985840D02*
X-10267920Y+6985840D01*
D38*
X-10232716Y+6257192D02*
X-10303124Y+6257192D01*
X-10303124Y+6323199D01*
X-10291389Y+6336401D01*
X-10279655Y+6336401D01*
X-10267920Y+6323199D01*
X-10267920Y+6257192D01*
X-10267920Y+6323199D02*
X-10256185Y+6336401D01*
X-10232716Y+6336401D01*
X-10291389Y+6376005D02*
X-10303124Y+6389207D01*
X-10303124Y+6428811D01*
X-10291389Y+6442013D01*
X-10279655Y+6442013D01*
X-10267920Y+6428811D01*
X-10267920Y+6389207D01*
X-10256185Y+6376005D01*
X-10232716Y+6376005D01*
X-10232716Y+6442013D01*
X-10256185Y+6547625D02*
X-10256185Y+6468416D01*
X-10303124Y+6521222D01*
X-10232716Y+6521222D01*
D23*
X-10056820Y+5880940D02*
X-9879020Y+5880940D01*
X-9879020Y+7074740D01*
X-10056820Y+7074740D01*
X-10056820Y+5880940D01*
D37*
X-9967920Y+6985840D02*
X-9967920Y+6985840D01*
D38*
X-9932716Y+6257192D02*
X-10003124Y+6257192D01*
X-10003124Y+6323199D01*
X-9991389Y+6336401D01*
X-9979655Y+6336401D01*
X-9967920Y+6323199D01*
X-9967920Y+6257192D01*
X-9967920Y+6323199D02*
X-9956185Y+6336401D01*
X-9932716Y+6336401D01*
X-9991389Y+6376005D02*
X-10003124Y+6389207D01*
X-10003124Y+6428811D01*
X-9991389Y+6442013D01*
X-9979655Y+6442013D01*
X-9967920Y+6428811D01*
X-9967920Y+6389207D01*
X-9956185Y+6376005D01*
X-9932716Y+6376005D01*
X-9932716Y+6442013D01*
X-10003124Y+6547625D02*
X-10003124Y+6481617D01*
X-9979655Y+6481617D01*
X-9979655Y+6534423D01*
X-9967920Y+6547625D01*
X-9944451Y+6547625D01*
X-9932716Y+6534423D01*
X-9932716Y+6494819D01*
X-9944451Y+6481617D01*
D23*
X-9756820Y+5880940D02*
X-9579020Y+5880940D01*
X-9579020Y+7074740D01*
X-9756820Y+7074740D01*
X-9756820Y+5880940D01*
D37*
X-9667920Y+6985840D02*
X-9667920Y+6985840D01*
D38*
X-9632716Y+6257192D02*
X-9703124Y+6257192D01*
X-9703124Y+6323199D01*
X-9691389Y+6336401D01*
X-9679655Y+6336401D01*
X-9667920Y+6323199D01*
X-9667920Y+6257192D01*
X-9667920Y+6323199D02*
X-9656185Y+6336401D01*
X-9632716Y+6336401D01*
X-9691389Y+6376005D02*
X-9703124Y+6389207D01*
X-9703124Y+6428811D01*
X-9691389Y+6442013D01*
X-9679655Y+6442013D01*
X-9667920Y+6428811D01*
X-9667920Y+6389207D01*
X-9656185Y+6376005D01*
X-9632716Y+6376005D01*
X-9632716Y+6442013D01*
X-9691389Y+6547625D02*
X-9703124Y+6534423D01*
X-9703124Y+6494819D01*
X-9691389Y+6481617D01*
X-9644451Y+6481617D01*
X-9632716Y+6494819D01*
X-9632716Y+6534423D01*
X-9644451Y+6547625D01*
X-9656185Y+6547625D01*
X-9667920Y+6534423D01*
X-9667920Y+6481617D01*
D23*
X-9456820Y+5890940D02*
X-9279020Y+5890940D01*
X-9279020Y+7084740D01*
X-9456820Y+7084740D01*
X-9456820Y+5890940D01*
D37*
X-9367920Y+6995840D02*
X-9367920Y+6995840D01*
D38*
X-9332716Y+6267192D02*
X-9403124Y+6267192D01*
X-9403124Y+6333199D01*
X-9391389Y+6346401D01*
X-9379655Y+6346401D01*
X-9367920Y+6333199D01*
X-9367920Y+6267192D01*
X-9367920Y+6333199D02*
X-9356185Y+6346401D01*
X-9332716Y+6346401D01*
X-9391389Y+6386005D02*
X-9403124Y+6399207D01*
X-9403124Y+6438811D01*
X-9391389Y+6452013D01*
X-9379655Y+6452013D01*
X-9367920Y+6438811D01*
X-9367920Y+6399207D01*
X-9356185Y+6386005D01*
X-9332716Y+6386005D01*
X-9332716Y+6452013D01*
X-9403124Y+6491617D02*
X-9403124Y+6557625D01*
X-9391389Y+6557625D01*
X-9332716Y+6491617D01*
D23*
X-9156820Y+5880940D02*
X-8979020Y+5880940D01*
X-8979020Y+7074740D01*
X-9156820Y+7074740D01*
X-9156820Y+5880940D01*
D37*
X-9067920Y+6985840D02*
X-9067920Y+6985840D01*
D38*
X-9032716Y+6257192D02*
X-9103124Y+6257192D01*
X-9103124Y+6323199D01*
X-9091389Y+6336401D01*
X-9079655Y+6336401D01*
X-9067920Y+6323199D01*
X-9067920Y+6257192D01*
X-9067920Y+6323199D02*
X-9056185Y+6336401D01*
X-9032716Y+6336401D01*
X-9091389Y+6376005D02*
X-9103124Y+6389207D01*
X-9103124Y+6428811D01*
X-9091389Y+6442013D01*
X-9079655Y+6442013D01*
X-9067920Y+6428811D01*
X-9067920Y+6389207D01*
X-9056185Y+6376005D01*
X-9032716Y+6376005D01*
X-9032716Y+6442013D01*
X-9067920Y+6494819D02*
X-9079655Y+6481617D01*
X-9091389Y+6481617D01*
X-9103124Y+6494819D01*
X-9103124Y+6534423D01*
X-9091389Y+6547625D01*
X-9079655Y+6547625D01*
X-9067920Y+6534423D01*
X-9067920Y+6494819D01*
X-9056185Y+6481617D01*
X-9044451Y+6481617D01*
X-9032716Y+6494819D01*
X-9032716Y+6534423D01*
X-9044451Y+6547625D01*
X-9056185Y+6547625D01*
X-9067920Y+6534423D01*
D23*
X-8856820Y+5880940D02*
X-8679020Y+5880940D01*
X-8679020Y+7074740D01*
X-8856820Y+7074740D01*
X-8856820Y+5880940D01*
D37*
X-8767920Y+6985840D02*
X-8767920Y+6985840D01*
D38*
X-8732716Y+6257192D02*
X-8803124Y+6257192D01*
X-8803124Y+6323199D01*
X-8791389Y+6336401D01*
X-8779655Y+6336401D01*
X-8767920Y+6323199D01*
X-8767920Y+6257192D01*
X-8767920Y+6323199D02*
X-8756185Y+6336401D01*
X-8732716Y+6336401D01*
X-8791389Y+6376005D02*
X-8803124Y+6389207D01*
X-8803124Y+6428811D01*
X-8791389Y+6442013D01*
X-8779655Y+6442013D01*
X-8767920Y+6428811D01*
X-8767920Y+6389207D01*
X-8756185Y+6376005D01*
X-8732716Y+6376005D01*
X-8732716Y+6442013D01*
X-8779655Y+6547625D02*
X-8767920Y+6534423D01*
X-8767920Y+6494819D01*
X-8779655Y+6481617D01*
X-8791389Y+6481617D01*
X-8803124Y+6494819D01*
X-8803124Y+6534423D01*
X-8791389Y+6547625D01*
X-8744451Y+6547625D01*
X-8732716Y+6534423D01*
X-8732716Y+6494819D01*
D23*
X-8556820Y+5880940D02*
X-8379020Y+5880940D01*
X-8379020Y+7074740D01*
X-8556820Y+7074740D01*
X-8556820Y+5880940D01*
D37*
X-8467920Y+6985840D02*
X-8467920Y+6985840D01*
D38*
X-8432716Y+6257192D02*
X-8503124Y+6257192D01*
X-8503124Y+6323199D01*
X-8491389Y+6336401D01*
X-8479655Y+6336401D01*
X-8467920Y+6323199D01*
X-8467920Y+6257192D01*
X-8467920Y+6323199D02*
X-8456185Y+6336401D01*
X-8432716Y+6336401D01*
X-8491389Y+6376005D02*
X-8503124Y+6389207D01*
X-8503124Y+6428811D01*
X-8491389Y+6442013D01*
X-8479655Y+6442013D01*
X-8467920Y+6428811D01*
X-8456185Y+6442013D01*
X-8444451Y+6442013D01*
X-8432716Y+6428811D01*
X-8432716Y+6389207D01*
X-8444451Y+6376005D01*
X-8467920Y+6402408D02*
X-8467920Y+6428811D01*
X-8444451Y+6468416D02*
X-8491389Y+6468416D01*
X-8503124Y+6481617D01*
X-8503124Y+6534423D01*
X-8491389Y+6547625D01*
X-8444451Y+6547625D01*
X-8432716Y+6534423D01*
X-8432716Y+6481617D01*
X-8444451Y+6468416D01*
X-8432716Y+6468416D02*
X-8503124Y+6547625D01*
D23*
X-1259080Y-2536080D02*
X-486920Y-2536080D01*
X-486920Y-1890920D01*
X-1259080Y-1890920D01*
X-1259080Y-2536080D01*
D40*
X-746000Y-2150000D02*
X-746000Y-2150000D01*
D47*
X-1004470Y-2379006D02*
X-986080Y-2379006D01*
X-967691Y-2358318D01*
X-967691Y-2275565D01*
X-986080Y-2254877D01*
X-1078028Y-2254877D01*
X-1059639Y-2192812D02*
X-1078028Y-2172124D01*
X-1078028Y-2110059D01*
X-1059639Y-2089371D01*
X-1041249Y-2089371D01*
X-1022860Y-2110059D01*
X-1022860Y-2172124D01*
X-1004470Y-2192812D01*
X-967691Y-2192812D01*
X-967691Y-2089371D01*
D23*
X+161100Y-904900D02*
X+338900Y-904900D01*
X+338900Y+288900D01*
X+161100Y+288900D01*
X+161100Y-904900D01*
D37*
X+250000Y-816000D02*
X+250000Y-816000D01*
D38*
X+285204Y-351382D02*
X+214796Y-351382D01*
X+214796Y-285375D01*
X+226531Y-272173D01*
X+238265Y-272173D01*
X+250000Y-285375D01*
X+250000Y-351382D01*
X+250000Y-285375D02*
X+261735Y-272173D01*
X+285204Y-272173D01*
X+238265Y-219367D02*
X+214796Y-192964D01*
X+285204Y-192964D01*
D23*
X-1161379Y-698879D02*
X-579719Y-698879D01*
X-579719Y-117219D01*
X-1161379Y-117219D01*
X-1161379Y-698879D01*
D40*
X-711799Y-439799D02*
X-711799Y-439799D01*
D46*
X-905550Y-562125D02*
X-1008267Y-562125D01*
X-1008267Y-485087D01*
X-974028Y-446568D01*
X-939789Y-446568D01*
X-905550Y-485087D01*
X-905550Y-562125D01*
X-974028Y-369530D02*
X-1008267Y-331011D01*
X-905550Y-331011D01*
D23*
X-165080Y-2271080D02*
X+2345080Y-2271080D01*
X+2345080Y-1960920D01*
X-165080Y-1960920D01*
X-165080Y-2271080D01*
D48*
X-50000Y-2116000D02*
X-50000Y-2116000D01*
D49*
X+896668Y-2175136D02*
X+896668Y-2056864D01*
X+1029724Y-2056864D01*
X+896668Y-2116000D02*
X+985372Y-2116000D01*
X+1074076Y-2056864D02*
X+1074076Y-2155424D01*
X+1096252Y-2175136D01*
X+1184956Y-2175136D01*
X+1207132Y-2155424D01*
X+1207132Y-2056864D01*
X+1295836Y-2096288D02*
X+1340188Y-2056864D01*
X+1340188Y-2175136D01*
D23*
X+1161100Y-904900D02*
X+1338900Y-904900D01*
X+1338900Y+288900D01*
X+1161100Y+288900D01*
X+1161100Y-904900D01*
D37*
X+1250000Y-816000D02*
X+1250000Y-816000D01*
D38*
X+1285204Y-351382D02*
X+1214796Y-351382D01*
X+1214796Y-285375D01*
X+1226531Y-272173D01*
X+1238265Y-272173D01*
X+1250000Y-285375D01*
X+1250000Y-351382D01*
X+1250000Y-285375D02*
X+1261735Y-272173D01*
X+1285204Y-272173D01*
X+1226531Y-232569D02*
X+1214796Y-219367D01*
X+1214796Y-179763D01*
X+1226531Y-166561D01*
X+1238265Y-166561D01*
X+1250000Y-179763D01*
X+1250000Y-219367D01*
X+1261735Y-232569D01*
X+1285204Y-232569D01*
X+1285204Y-166561D01*
D23*
X+911100Y-904900D02*
X+1088900Y-904900D01*
X+1088900Y+288900D01*
X+911100Y+288900D01*
X+911100Y-904900D01*
D37*
X+1000000Y-816000D02*
X+1000000Y-816000D01*
D38*
X+1035204Y-351382D02*
X+964796Y-351382D01*
X+964796Y-285375D01*
X+976531Y-272173D01*
X+988265Y-272173D01*
X+1000000Y-285375D01*
X+1000000Y-351382D01*
X+1000000Y-285375D02*
X+1011735Y-272173D01*
X+1035204Y-272173D01*
X+976531Y-232569D02*
X+964796Y-219367D01*
X+964796Y-179763D01*
X+976531Y-166561D01*
X+988265Y-166561D01*
X+1000000Y-179763D01*
X+1011735Y-166561D01*
X+1023469Y-166561D01*
X+1035204Y-179763D01*
X+1035204Y-219367D01*
X+1023469Y-232569D01*
X+1000000Y-206166D02*
X+1000000Y-179763D01*
D23*
X+661100Y-904900D02*
X+838900Y-904900D01*
X+838900Y+288900D01*
X+661100Y+288900D01*
X+661100Y-904900D01*
D37*
X+750000Y+200000D02*
X+750000Y+200000D01*
D38*
X+785204Y-475842D02*
X+714796Y-475842D01*
X+714796Y-409835D01*
X+726531Y-396633D01*
X+738265Y-396633D01*
X+750000Y-409835D01*
X+750000Y-475842D01*
X+750000Y-409835D02*
X+761735Y-396633D01*
X+785204Y-396633D01*
X+761735Y-291021D02*
X+761735Y-370230D01*
X+714796Y-317424D01*
X+785204Y-317424D01*
D23*
X+411100Y-904900D02*
X+588900Y-904900D01*
X+588900Y+288900D01*
X+411100Y+288900D01*
X+411100Y-904900D01*
D37*
X+500000Y-816000D02*
X+500000Y-816000D01*
D38*
X+535204Y-351382D02*
X+464796Y-351382D01*
X+464796Y-285375D01*
X+476531Y-272173D01*
X+488265Y-272173D01*
X+500000Y-285375D01*
X+500000Y-351382D01*
X+500000Y-285375D02*
X+511735Y-272173D01*
X+535204Y-272173D01*
X+464796Y-166561D02*
X+464796Y-232569D01*
X+488265Y-232569D01*
X+488265Y-179763D01*
X+500000Y-166561D01*
X+523469Y-166561D01*
X+535204Y-179763D01*
X+535204Y-219367D01*
X+523469Y-232569D01*
D23*
X+67920Y+667920D02*
X+332080Y+667920D01*
X+332080Y+1186080D01*
X+67920Y+1186080D01*
X+67920Y+667920D01*
D37*
X+200000Y+1054000D02*
X+200000Y+1054000D01*
D39*
X+222691Y+817653D02*
X+234036Y+804889D01*
X+234036Y+766599D01*
X+211345Y+741073D01*
X+188655Y+741073D01*
X+165964Y+766599D01*
X+165964Y+804889D01*
X+177309Y+817653D01*
X+188655Y+868706D02*
X+165964Y+894233D01*
X+234036Y+894233D01*
D23*
X+1454420Y-980300D02*
X+1845580Y-980300D01*
X+1845580Y+518300D01*
X+1454420Y+518300D01*
X+1454420Y-980300D01*
D35*
X+1650000Y-866000D02*
X+1650000Y-866000D01*
D36*
X+1719342Y-359015D02*
X+1580658Y-359015D01*
X+1580658Y-255003D01*
X+1626886Y-202997D01*
X+1673114Y-202997D01*
X+1719342Y-255003D01*
X+1719342Y-359015D01*
X+1603772Y-124987D02*
X+1580658Y-98984D01*
X+1580658Y-20975D01*
X+1603772Y+5028D01*
X+1626886Y+5028D01*
X+1650000Y-20975D01*
X+1650000Y-98984D01*
X+1673114Y-124987D01*
X+1719342Y-124987D01*
X+1719342Y+5028D01*
D23*
X+1924420Y-980300D02*
X+2315580Y-980300D01*
X+2315580Y+518300D01*
X+1924420Y+518300D01*
X+1924420Y-980300D01*
D35*
X+2120000Y+404000D02*
X+2120000Y+404000D01*
D36*
X+2189342Y-519035D02*
X+2050658Y-519035D01*
X+2050658Y-415023D01*
X+2096886Y-363017D01*
X+2143114Y-363017D01*
X+2189342Y-415023D01*
X+2189342Y-519035D01*
X+2073772Y-285007D02*
X+2050658Y-259004D01*
X+2050658Y-180995D01*
X+2073772Y-154992D01*
X+2096886Y-154992D01*
X+2120000Y-180995D01*
X+2143114Y-154992D01*
X+2166228Y-154992D01*
X+2189342Y-180995D01*
X+2189342Y-259004D01*
X+2166228Y-285007D01*
X+2120000Y-233001D02*
X+2120000Y-180995D01*
D23*
X+1517920Y+663920D02*
X+1782080Y+663920D01*
X+1782080Y+1182080D01*
X+1517920Y+1182080D01*
X+1517920Y+663920D01*
D37*
X+1650000Y+796000D02*
X+1650000Y+796000D01*
D39*
X+1672691Y+981293D02*
X+1684036Y+968529D01*
X+1684036Y+930239D01*
X+1661345Y+904713D01*
X+1638655Y+904713D01*
X+1615964Y+930239D01*
X+1615964Y+968529D01*
X+1627309Y+981293D01*
X+1627309Y+1019583D02*
X+1615964Y+1032346D01*
X+1615964Y+1070636D01*
X+1627309Y+1083400D01*
X+1638655Y+1083400D01*
X+1650000Y+1070636D01*
X+1650000Y+1032346D01*
X+1661345Y+1019583D01*
X+1684036Y+1019583D01*
X+1684036Y+1083400D01*
D23*
X+1161100Y+351100D02*
X+1338900Y+351100D01*
X+1338900Y+1544900D01*
X+1161100Y+1544900D01*
X+1161100Y+351100D01*
D37*
X+1250000Y+440000D02*
X+1250000Y+440000D01*
D38*
X+1285204Y+904618D02*
X+1214796Y+904618D01*
X+1214796Y+970625D01*
X+1226531Y+983827D01*
X+1238265Y+983827D01*
X+1250000Y+970625D01*
X+1250000Y+904618D01*
X+1250000Y+970625D02*
X+1261735Y+983827D01*
X+1285204Y+983827D01*
X+1226531Y+1089439D02*
X+1214796Y+1076237D01*
X+1214796Y+1036633D01*
X+1226531Y+1023431D01*
X+1273469Y+1023431D01*
X+1285204Y+1036633D01*
X+1285204Y+1076237D01*
X+1273469Y+1089439D01*
X+1261735Y+1089439D01*
X+1250000Y+1076237D01*
X+1250000Y+1023431D01*
D23*
X+911100Y+351100D02*
X+1088900Y+351100D01*
X+1088900Y+1544900D01*
X+911100Y+1544900D01*
X+911100Y+351100D01*
D37*
X+1000000Y+440000D02*
X+1000000Y+440000D01*
D38*
X+1035204Y+904618D02*
X+964796Y+904618D01*
X+964796Y+970625D01*
X+976531Y+983827D01*
X+988265Y+983827D01*
X+1000000Y+970625D01*
X+1000000Y+904618D01*
X+1000000Y+970625D02*
X+1011735Y+983827D01*
X+1035204Y+983827D01*
X+964796Y+1023431D02*
X+964796Y+1089439D01*
X+976531Y+1089439D01*
X+1035204Y+1023431D01*
D23*
X+661100Y+351100D02*
X+838900Y+351100D01*
X+838900Y+1544900D01*
X+661100Y+1544900D01*
X+661100Y+351100D01*
D37*
X+750000Y+440000D02*
X+750000Y+440000D01*
D38*
X+785204Y+904618D02*
X+714796Y+904618D01*
X+714796Y+970625D01*
X+726531Y+983827D01*
X+738265Y+983827D01*
X+750000Y+970625D01*
X+750000Y+904618D01*
X+750000Y+970625D02*
X+761735Y+983827D01*
X+785204Y+983827D01*
X+750000Y+1036633D02*
X+738265Y+1023431D01*
X+726531Y+1023431D01*
X+714796Y+1036633D01*
X+714796Y+1076237D01*
X+726531Y+1089439D01*
X+738265Y+1089439D01*
X+750000Y+1076237D01*
X+750000Y+1036633D01*
X+761735Y+1023431D01*
X+773469Y+1023431D01*
X+785204Y+1036633D01*
X+785204Y+1076237D01*
X+773469Y+1089439D01*
X+761735Y+1089439D01*
X+750000Y+1076237D01*
D42*
X+2510060Y+950000D02*
X+2509142Y+972814D01*
X+2501689Y+1018443D01*
X+2486142Y+1064072D01*
X+2460900Y+1109701D01*
X+2422358Y+1155231D01*
X+2376729Y+1190727D01*
X+2331100Y+1213847D01*
X+2285471Y+1227700D01*
X+2239842Y+1233646D01*
X+2226080Y+1233980D01*
X+1942100Y+950000D02*
X+1943018Y+972814D01*
X+1950471Y+1018443D01*
X+1966018Y+1064072D01*
X+1991260Y+1109701D01*
X+2029802Y+1155231D01*
X+2075431Y+1190727D01*
X+2121060Y+1213847D01*
X+2166689Y+1227700D01*
X+2212318Y+1233646D01*
X+2226080Y+1233980D01*
X+1942100Y+950000D02*
X+1943018Y+927186D01*
X+1950471Y+881557D01*
X+1966018Y+835928D01*
X+1991260Y+790299D01*
X+2029802Y+744769D01*
X+2075431Y+709273D01*
X+2121060Y+686153D01*
X+2166689Y+672300D01*
X+2212318Y+666354D01*
X+2226080Y+666020D01*
X+2510060Y+950000D02*
X+2509142Y+927186D01*
X+2501689Y+881557D01*
X+2486142Y+835928D01*
X+2460900Y+790299D01*
X+2422358Y+744769D01*
X+2376729Y+709273D01*
X+2331100Y+686153D01*
X+2285471Y+672300D01*
X+2239842Y+666354D01*
X+2226080Y+666020D01*
D40*
X+2354000Y+950000D02*
X+2354000Y+950000D01*
D43*
X+2161062Y+911073D02*
X+2178363Y+891609D01*
X+2178363Y+833219D01*
X+2143761Y+794293D01*
X+2109160Y+794293D01*
X+2074558Y+833219D01*
X+2074558Y+891609D01*
X+2091859Y+911073D01*
X+2091859Y+969463D02*
X+2074558Y+988926D01*
X+2074558Y+1047316D01*
X+2091859Y+1066780D01*
X+2109160Y+1066780D01*
X+2126460Y+1047316D01*
X+2143761Y+1066780D01*
X+2161062Y+1066780D01*
X+2178363Y+1047316D01*
X+2178363Y+988926D01*
X+2161062Y+969463D01*
X+2126460Y+1008390D02*
X+2126460Y+1047316D01*
D23*
X+410314Y+349934D02*
X+603354Y+349934D01*
X+603354Y+1543734D01*
X+410314Y+1543734D01*
X+410314Y+349934D01*
D37*
X+506834Y+1454834D02*
X+506834Y+1454834D01*
D50*
X+545238Y+769391D02*
X+468429Y+769391D01*
X+468429Y+826997D01*
X+494032Y+855800D01*
X+519635Y+855800D01*
X+545238Y+826997D01*
X+545238Y+769391D01*
X+519635Y+971013D02*
X+519635Y+884604D01*
X+468429Y+942210D01*
X+545238Y+942210D01*
D42*
X-493940Y+950000D02*
X-494858Y+972814D01*
X-502311Y+1018443D01*
X-517858Y+1064072D01*
X-543100Y+1109701D01*
X-581642Y+1155231D01*
X-627271Y+1190727D01*
X-672900Y+1213847D01*
X-718529Y+1227700D01*
X-764158Y+1233646D01*
X-777920Y+1233980D01*
X-1061900Y+950000D02*
X-1060982Y+972814D01*
X-1053529Y+1018443D01*
X-1037982Y+1064072D01*
X-1012740Y+1109701D01*
X-974198Y+1155231D01*
X-928569Y+1190727D01*
X-882940Y+1213847D01*
X-837311Y+1227700D01*
X-791682Y+1233646D01*
X-777920Y+1233980D01*
X-1061900Y+950000D02*
X-1060982Y+927186D01*
X-1053529Y+881557D01*
X-1037982Y+835928D01*
X-1012740Y+790299D01*
X-974198Y+744769D01*
X-928569Y+709273D01*
X-882940Y+686153D01*
X-837311Y+672300D01*
X-791682Y+666354D01*
X-777920Y+666020D01*
X-493940Y+950000D02*
X-494858Y+927186D01*
X-502311Y+881557D01*
X-517858Y+835928D01*
X-543100Y+790299D01*
X-581642Y+744769D01*
X-627271Y+709273D01*
X-672900Y+686153D01*
X-718529Y+672300D01*
X-764158Y+666354D01*
X-777920Y+666020D01*
D40*
X-650000Y+950000D02*
X-650000Y+950000D01*
D43*
X-842938Y+911073D02*
X-825637Y+891609D01*
X-825637Y+833219D01*
X-860239Y+794293D01*
X-894840Y+794293D01*
X-929442Y+833219D01*
X-929442Y+891609D01*
X-912141Y+911073D01*
X-860239Y+1066780D02*
X-860239Y+950000D01*
X-929442Y+1027853D01*
X-825637Y+1027853D01*
D23*
X-1031246Y+1341086D02*
X-513086Y+1341086D01*
X-513086Y+1605246D01*
X-1031246Y+1605246D01*
X-1031246Y+1341086D01*
D37*
X-645166Y+1473166D02*
X-645166Y+1473166D01*
D39*
X-881513Y+1450475D02*
X-894277Y+1439130D01*
X-932567Y+1439130D01*
X-958093Y+1461821D01*
X-958093Y+1484511D01*
X-932567Y+1507202D01*
X-894277Y+1507202D01*
X-881513Y+1495857D01*
X-779406Y+1507202D02*
X-843223Y+1507202D01*
X-843223Y+1484511D01*
X-792170Y+1484511D01*
X-779406Y+1473166D01*
X-779406Y+1450475D01*
X-792170Y+1439130D01*
X-830460Y+1439130D01*
X-843223Y+1450475D01*
D23*
X-3302080Y-113500D02*
X-1513920Y-113500D01*
X-1513920Y+775500D01*
X-3302080Y+775500D01*
X-3302080Y-113500D01*
D44*
X-3170000Y-50000D02*
X-3170000Y-50000D01*
D51*
X-2725468Y+463069D02*
X-2725468Y+242953D01*
X-2675942Y+198930D01*
X-2477838Y+198930D01*
X-2428312Y+242953D01*
X-2428312Y+463069D01*
X-2230208Y+375023D02*
X-2131156Y+463069D01*
X-2131156Y+198930D01*
D23*
X-438900Y+351100D02*
X-261100Y+351100D01*
X-261100Y+1544900D01*
X-438900Y+1544900D01*
X-438900Y+351100D01*
D37*
X-350000Y+1456000D02*
X-350000Y+1456000D01*
D38*
X-314796Y+780158D02*
X-385204Y+780158D01*
X-385204Y+846165D01*
X-373469Y+859367D01*
X-361735Y+859367D01*
X-350000Y+846165D01*
X-350000Y+780158D01*
X-350000Y+846165D02*
X-338265Y+859367D01*
X-314796Y+859367D01*
X-361735Y+964979D02*
X-350000Y+951777D01*
X-350000Y+912173D01*
X-361735Y+898971D01*
X-373469Y+898971D01*
X-385204Y+912173D01*
X-385204Y+951777D01*
X-373469Y+964979D01*
X-326531Y+964979D01*
X-314796Y+951777D01*
X-314796Y+912173D01*
D23*
X-188900Y+345100D02*
X-11100Y+345100D01*
X-11100Y+1538900D01*
X-188900Y+1538900D01*
X-188900Y+345100D01*
D37*
X-100000Y+1450000D02*
X-100000Y+1450000D01*
D38*
X-64796Y+721352D02*
X-135204Y+721352D01*
X-135204Y+787359D01*
X-123469Y+800561D01*
X-111735Y+800561D01*
X-100000Y+787359D01*
X-100000Y+721352D01*
X-100000Y+787359D02*
X-88265Y+800561D01*
X-64796Y+800561D01*
X-111735Y+853367D02*
X-135204Y+879770D01*
X-64796Y+879770D01*
X-76531Y+932576D02*
X-123469Y+932576D01*
X-135204Y+945777D01*
X-135204Y+998583D01*
X-123469Y+1011785D01*
X-76531Y+1011785D01*
X-64796Y+998583D01*
X-64796Y+945777D01*
X-76531Y+932576D01*
X-64796Y+932576D02*
X-135204Y+1011785D01*
D23*
X-2686080Y-682080D02*
X-2167920Y-682080D01*
X-2167920Y-417920D01*
X-2686080Y-417920D01*
X-2686080Y-682080D01*
D37*
X-2554000Y-550000D02*
X-2554000Y-550000D01*
D39*
X-2368707Y-572691D02*
X-2381471Y-584036D01*
X-2419761Y-584036D01*
X-2445287Y-561345D01*
X-2445287Y-538655D01*
X-2419761Y-515964D01*
X-2381471Y-515964D01*
X-2368707Y-527309D01*
X-2266600Y-527309D02*
X-2279364Y-515964D01*
X-2317654Y-515964D01*
X-2330417Y-527309D01*
X-2330417Y-572691D01*
X-2317654Y-584036D01*
X-2279364Y-584036D01*
X-2266600Y-572691D01*
X-2266600Y-561345D01*
X-2279364Y-550000D01*
X-2330417Y-550000D01*
D23*
X-3004900Y-388900D02*
X-1811100Y-388900D01*
X-1811100Y-211100D01*
X-3004900Y-211100D01*
X-3004900Y-388900D01*
D37*
X-2916000Y-300000D02*
X-2916000Y-300000D01*
D38*
X-2504188Y-335204D02*
X-2504188Y-264796D01*
X-2438181Y-264796D01*
X-2424979Y-276531D01*
X-2424979Y-288265D01*
X-2438181Y-300000D01*
X-2504188Y-300000D01*
X-2438181Y-300000D02*
X-2424979Y-311735D01*
X-2424979Y-335204D01*
X-2372173Y-288265D02*
X-2345770Y-264796D01*
X-2345770Y-335204D01*
X-2279763Y-276531D02*
X-2266561Y-264796D01*
X-2226957Y-264796D01*
X-2213755Y-276531D01*
X-2213755Y-288265D01*
X-2226957Y-300000D01*
X-2266561Y-300000D01*
X-2279763Y-311735D01*
X-2279763Y-335204D01*
X-2213755Y-335204D01*
D23*
X-3845580Y-103580D02*
X-3454420Y-103580D01*
X-3454420Y+795580D01*
X-3845580Y+795580D01*
X-3845580Y-103580D01*
D40*
X-3650000Y+92000D02*
X-3650000Y+92000D01*
D52*
X-3589802Y+193219D02*
X-3710198Y+193219D01*
X-3710198Y+306090D01*
X-3690132Y+328664D01*
X-3670066Y+328664D01*
X-3650000Y+306090D01*
X-3650000Y+193219D01*
X-3650000Y+306090D02*
X-3629934Y+328664D01*
X-3589802Y+328664D01*
X-3710198Y+373813D02*
X-3650000Y+373813D01*
X-3589802Y+441535D01*
X-3650000Y+509258D01*
X-3710198Y+509258D01*
X-3690132Y+576981D02*
X-3710198Y+599555D01*
X-3710198Y+667278D01*
X-3690132Y+689852D01*
X-3670066Y+689852D01*
X-3650000Y+667278D01*
X-3650000Y+599555D01*
X-3629934Y+576981D01*
X-3589802Y+576981D01*
X-3589802Y+689852D01*
D23*
X-1838900Y+911100D02*
X-1661100Y+911100D01*
X-1661100Y+2104900D01*
X-1838900Y+2104900D01*
X-1838900Y+911100D01*
D37*
X-1750000Y+1000000D02*
X-1750000Y+1000000D01*
D38*
X-1714796Y+1411812D02*
X-1785204Y+1411812D01*
X-1785204Y+1477819D01*
X-1773469Y+1491021D01*
X-1761735Y+1491021D01*
X-1750000Y+1477819D01*
X-1750000Y+1411812D01*
X-1750000Y+1477819D02*
X-1738265Y+1491021D01*
X-1714796Y+1491021D01*
X-1761735Y+1543827D02*
X-1785204Y+1570230D01*
X-1714796Y+1570230D01*
X-1761735Y+1649439D02*
X-1785204Y+1675842D01*
X-1714796Y+1675842D01*
D23*
X-2126520Y+915100D02*
X-1933480Y+915100D01*
X-1933480Y+2108900D01*
X-2126520Y+2108900D01*
X-2126520Y+915100D01*
D37*
X-2030000Y+1004000D02*
X-2030000Y+1004000D01*
D50*
X-1991596Y+1459017D02*
X-2068405Y+1459017D01*
X-2068405Y+1516623D01*
X-2042802Y+1545426D01*
X-2017199Y+1545426D01*
X-1991596Y+1516623D01*
X-1991596Y+1459017D01*
X-2068405Y+1660639D02*
X-2068405Y+1588631D01*
X-2042802Y+1588631D01*
X-2042802Y+1646238D01*
X-2030000Y+1660639D01*
X-2004397Y+1660639D01*
X-1991596Y+1646238D01*
X-1991596Y+1603033D01*
X-2004397Y+1588631D01*
D23*
X-2888900Y+911100D02*
X-2711100Y+911100D01*
X-2711100Y+2104900D01*
X-2888900Y+2104900D01*
X-2888900Y+911100D01*
D37*
X-2800000Y+1000000D02*
X-2800000Y+1000000D01*
D38*
X-2764796Y+1411812D02*
X-2835204Y+1411812D01*
X-2835204Y+1477819D01*
X-2823469Y+1491021D01*
X-2811735Y+1491021D01*
X-2800000Y+1477819D01*
X-2800000Y+1411812D01*
X-2800000Y+1477819D02*
X-2788265Y+1491021D01*
X-2764796Y+1491021D01*
X-2811735Y+1543827D02*
X-2835204Y+1570230D01*
X-2764796Y+1570230D01*
X-2823469Y+1636237D02*
X-2835204Y+1649439D01*
X-2835204Y+1689043D01*
X-2823469Y+1702245D01*
X-2811735Y+1702245D01*
X-2800000Y+1689043D01*
X-2788265Y+1702245D01*
X-2776531Y+1702245D01*
X-2764796Y+1689043D01*
X-2764796Y+1649439D01*
X-2776531Y+1636237D01*
X-2800000Y+1662640D02*
X-2800000Y+1689043D01*
D23*
X-2596520Y+911100D02*
X-2403480Y+911100D01*
X-2403480Y+2104900D01*
X-2596520Y+2104900D01*
X-2596520Y+911100D01*
D37*
X-2500000Y+1000000D02*
X-2500000Y+1000000D01*
D50*
X-2461596Y+1455017D02*
X-2538405Y+1455017D01*
X-2538405Y+1512623D01*
X-2512802Y+1541426D01*
X-2487199Y+1541426D01*
X-2461596Y+1512623D01*
X-2461596Y+1455017D01*
X-2525603Y+1656639D02*
X-2538405Y+1642238D01*
X-2538405Y+1599033D01*
X-2525603Y+1584631D01*
X-2474397Y+1584631D01*
X-2461596Y+1599033D01*
X-2461596Y+1642238D01*
X-2474397Y+1656639D01*
X-2487199Y+1656639D01*
X-2500000Y+1642238D01*
X-2500000Y+1584631D01*
D23*
X-2138900Y+2261100D02*
X-1961100Y+2261100D01*
X-1961100Y+3454900D01*
X-2138900Y+3454900D01*
X-2138900Y+2261100D01*
D37*
X-2050000Y+2350000D02*
X-2050000Y+2350000D01*
D38*
X-2014796Y+2761812D02*
X-2085204Y+2761812D01*
X-2085204Y+2827819D01*
X-2073469Y+2841021D01*
X-2061735Y+2841021D01*
X-2050000Y+2827819D01*
X-2050000Y+2761812D01*
X-2050000Y+2827819D02*
X-2038265Y+2841021D01*
X-2014796Y+2841021D01*
X-2061735Y+2893827D02*
X-2085204Y+2920230D01*
X-2014796Y+2920230D01*
X-2085204Y+3052245D02*
X-2085204Y+2986237D01*
X-2061735Y+2986237D01*
X-2061735Y+3039043D01*
X-2050000Y+3052245D01*
X-2026531Y+3052245D01*
X-2014796Y+3039043D01*
X-2014796Y+2999439D01*
X-2026531Y+2986237D01*
D23*
X-2938900Y+2261100D02*
X-2761100Y+2261100D01*
X-2761100Y+3454900D01*
X-2938900Y+3454900D01*
X-2938900Y+2261100D01*
D37*
X-2850000Y+2350000D02*
X-2850000Y+2350000D01*
D38*
X-2814796Y+2761812D02*
X-2885204Y+2761812D01*
X-2885204Y+2827819D01*
X-2873469Y+2841021D01*
X-2861735Y+2841021D01*
X-2850000Y+2827819D01*
X-2850000Y+2761812D01*
X-2850000Y+2827819D02*
X-2838265Y+2841021D01*
X-2814796Y+2841021D01*
X-2861735Y+2893827D02*
X-2885204Y+2920230D01*
X-2814796Y+2920230D01*
X-2838265Y+3052245D02*
X-2838265Y+2973036D01*
X-2885204Y+3025842D01*
X-2814796Y+3025842D01*
D23*
X-2159080Y+3613920D02*
X-1767920Y+3613920D01*
X-1767920Y+4132080D01*
X-2159080Y+4132080D01*
X-2159080Y+3613920D01*
D48*
X-1900000Y+3746000D02*
X-1900000Y+3746000D01*
D53*
X-2066827Y+3965760D02*
X-2040996Y+3988722D01*
X-2015164Y+3988722D01*
X-1989332Y+3965760D01*
X-1989332Y+3942799D01*
X-2015164Y+3919837D01*
X-2040996Y+3919837D01*
X-2066827Y+3942799D01*
X-2066827Y+3965760D01*
X-2015164Y+3942799D02*
X-1989332Y+3919837D01*
X-1950585Y+3977241D02*
X-1937669Y+3988722D01*
X-1898921Y+3988722D01*
X-1886005Y+3977241D01*
X-1886005Y+3965760D01*
X-1898921Y+3954280D01*
X-1937669Y+3954280D01*
X-1950585Y+3942799D01*
X-1950585Y+3919837D01*
X-1886005Y+3919837D01*
D23*
X-1888900Y+2261100D02*
X-1711100Y+2261100D01*
X-1711100Y+3454900D01*
X-1888900Y+3454900D01*
X-1888900Y+2261100D01*
D37*
X-1800000Y+2350000D02*
X-1800000Y+2350000D01*
D38*
X-1764796Y+2761812D02*
X-1835204Y+2761812D01*
X-1835204Y+2827819D01*
X-1823469Y+2841021D01*
X-1811735Y+2841021D01*
X-1800000Y+2827819D01*
X-1800000Y+2761812D01*
X-1800000Y+2827819D02*
X-1788265Y+2841021D01*
X-1764796Y+2841021D01*
X-1811735Y+2893827D02*
X-1835204Y+2920230D01*
X-1764796Y+2920230D01*
X-1835204Y+2986237D02*
X-1835204Y+3052245D01*
X-1823469Y+3052245D01*
X-1764796Y+2986237D01*
D23*
X-2688900Y+2261100D02*
X-2511100Y+2261100D01*
X-2511100Y+3454900D01*
X-2688900Y+3454900D01*
X-2688900Y+2261100D01*
D37*
X-2600000Y+2350000D02*
X-2600000Y+2350000D01*
D38*
X-2564796Y+2761812D02*
X-2635204Y+2761812D01*
X-2635204Y+2827819D01*
X-2623469Y+2841021D01*
X-2611735Y+2841021D01*
X-2600000Y+2827819D01*
X-2600000Y+2761812D01*
X-2600000Y+2827819D02*
X-2588265Y+2841021D01*
X-2564796Y+2841021D01*
X-2611735Y+2893827D02*
X-2635204Y+2920230D01*
X-2564796Y+2920230D01*
X-2623469Y+3052245D02*
X-2635204Y+3039043D01*
X-2635204Y+2999439D01*
X-2623469Y+2986237D01*
X-2576531Y+2986237D01*
X-2564796Y+2999439D01*
X-2564796Y+3039043D01*
X-2576531Y+3052245D01*
X-2588265Y+3052245D01*
X-2600000Y+3039043D01*
X-2600000Y+2986237D01*
D23*
X-2859080Y+3613920D02*
X-2467920Y+3613920D01*
X-2467920Y+4132080D01*
X-2859080Y+4132080D01*
X-2859080Y+3613920D01*
D48*
X-2600000Y+3746000D02*
X-2600000Y+3746000D01*
D53*
X-2766827Y+3965760D02*
X-2740996Y+3988722D01*
X-2715164Y+3988722D01*
X-2689332Y+3965760D01*
X-2689332Y+3942799D01*
X-2715164Y+3919837D01*
X-2740996Y+3919837D01*
X-2766827Y+3942799D01*
X-2766827Y+3965760D01*
X-2715164Y+3942799D02*
X-2689332Y+3919837D01*
X-2637669Y+3965760D02*
X-2611837Y+3988722D01*
X-2611837Y+3919837D01*
D23*
X-1482080Y+3617920D02*
X-1090920Y+3617920D01*
X-1090920Y+4390080D01*
X-1482080Y+4390080D01*
X-1482080Y+3617920D01*
D40*
X-1350000Y+4258000D02*
X-1350000Y+4258000D01*
D41*
X-1304449Y+3756097D02*
X-1340348Y+3796482D01*
X-1340348Y+3836868D01*
X-1304449Y+3877254D01*
X-1268551Y+3877254D01*
X-1232652Y+3836868D01*
X-1232652Y+3796482D01*
X-1268551Y+3756097D01*
X-1304449Y+3756097D01*
X-1268551Y+3836868D02*
X-1232652Y+3877254D01*
X-1268551Y+4038797D02*
X-1268551Y+3917640D01*
X-1340348Y+3998411D01*
X-1232652Y+3998411D01*
D23*
X-3509080Y+3559920D02*
X-3117920Y+3559920D01*
X-3117920Y+4332080D01*
X-3509080Y+4332080D01*
X-3509080Y+3559920D01*
D40*
X-3250000Y+3692000D02*
X-3250000Y+3692000D01*
D41*
X-3331449Y+3870817D02*
X-3367348Y+3911202D01*
X-3367348Y+3951588D01*
X-3331449Y+3991974D01*
X-3295551Y+3991974D01*
X-3259652Y+3951588D01*
X-3259652Y+3911202D01*
X-3295551Y+3870817D01*
X-3331449Y+3870817D01*
X-3295551Y+3951588D02*
X-3259652Y+3991974D01*
X-3349399Y+4052552D02*
X-3367348Y+4072745D01*
X-3367348Y+4133324D01*
X-3349399Y+4153517D01*
X-3331449Y+4153517D01*
X-3313500Y+4133324D01*
X-3295551Y+4153517D01*
X-3277601Y+4153517D01*
X-3259652Y+4133324D01*
X-3259652Y+4072745D01*
X-3277601Y+4052552D01*
X-3313500Y+4092938D02*
X-3313500Y+4133324D01*
D23*
X-3188900Y+2245100D02*
X-3011100Y+2245100D01*
X-3011100Y+3438900D01*
X-3188900Y+3438900D01*
X-3188900Y+2245100D01*
D37*
X-3100000Y+3350000D02*
X-3100000Y+3350000D01*
D38*
X-3064796Y+2621352D02*
X-3135204Y+2621352D01*
X-3135204Y+2687359D01*
X-3123469Y+2700561D01*
X-3111735Y+2700561D01*
X-3100000Y+2687359D01*
X-3100000Y+2621352D01*
X-3100000Y+2687359D02*
X-3088265Y+2700561D01*
X-3064796Y+2700561D01*
X-3111735Y+2753367D02*
X-3135204Y+2779770D01*
X-3064796Y+2779770D01*
X-3100000Y+2858979D02*
X-3111735Y+2845777D01*
X-3123469Y+2845777D01*
X-3135204Y+2858979D01*
X-3135204Y+2898583D01*
X-3123469Y+2911785D01*
X-3111735Y+2911785D01*
X-3100000Y+2898583D01*
X-3100000Y+2858979D01*
X-3088265Y+2845777D01*
X-3076531Y+2845777D01*
X-3064796Y+2858979D01*
X-3064796Y+2898583D01*
X-3076531Y+2911785D01*
X-3088265Y+2911785D01*
X-3100000Y+2898583D01*
D23*
X-1588900Y+2245100D02*
X-1411100Y+2245100D01*
X-1411100Y+3438900D01*
X-1588900Y+3438900D01*
X-1588900Y+2245100D01*
D37*
X-1500000Y+2334000D02*
X-1500000Y+2334000D01*
D38*
X-1464796Y+2745812D02*
X-1535204Y+2745812D01*
X-1535204Y+2811819D01*
X-1523469Y+2825021D01*
X-1511735Y+2825021D01*
X-1500000Y+2811819D01*
X-1500000Y+2745812D01*
X-1500000Y+2811819D02*
X-1488265Y+2825021D01*
X-1464796Y+2825021D01*
X-1511735Y+2877827D02*
X-1535204Y+2904230D01*
X-1464796Y+2904230D01*
X-1511735Y+3036245D02*
X-1500000Y+3023043D01*
X-1500000Y+2983439D01*
X-1511735Y+2970237D01*
X-1523469Y+2970237D01*
X-1535204Y+2983439D01*
X-1535204Y+3023043D01*
X-1523469Y+3036245D01*
X-1476531Y+3036245D01*
X-1464796Y+3023043D01*
X-1464796Y+2983439D01*
D22*
X-12367920Y+4567920D02*
X-6917920Y+4567920D01*
X-6917920Y+8803760D01*
X-12367920Y+8803760D01*
X-12367920Y+4567920D01*
D23*
X-11494120Y+6109640D02*
X-10741720Y+6109640D01*
X-10741720Y+6862040D01*
X-11494120Y+6862040D01*
X-11494120Y+6109640D01*
D48*
X-10817920Y+6185840D02*
X-10817920Y+6185840D01*
D49*
X-11131952Y+6308956D02*
X-11112298Y+6331066D01*
X-11112298Y+6419508D01*
X-11131952Y+6441619D01*
X-11151606Y+6441619D01*
X-11171260Y+6419508D01*
X-11171260Y+6331066D01*
X-11190913Y+6308956D01*
X-11210567Y+6308956D01*
X-11230221Y+6331066D01*
X-11230221Y+6419508D01*
X-11210567Y+6441619D01*
X-11190913Y+6530061D02*
X-11230221Y+6574282D01*
X-11112298Y+6574282D01*
D23*
X-12106820Y+5896940D02*
X-11929020Y+5896940D01*
X-11929020Y+7090740D01*
X-12106820Y+7090740D01*
X-12106820Y+5896940D01*
D37*
X-12017920Y+7001840D02*
X-12017920Y+7001840D01*
D38*
X-11982716Y+6273192D02*
X-12053124Y+6273192D01*
X-12053124Y+6339199D01*
X-12041389Y+6352401D01*
X-12029655Y+6352401D01*
X-12017920Y+6339199D01*
X-12017920Y+6273192D01*
X-12017920Y+6339199D02*
X-12006185Y+6352401D01*
X-11982716Y+6352401D01*
X-12041389Y+6392005D02*
X-12053124Y+6405207D01*
X-12053124Y+6444811D01*
X-12041389Y+6458013D01*
X-12029655Y+6458013D01*
X-12017920Y+6444811D01*
X-12006185Y+6458013D01*
X-11994451Y+6458013D01*
X-11982716Y+6444811D01*
X-11982716Y+6405207D01*
X-11994451Y+6392005D01*
X-12017920Y+6418408D02*
X-12017920Y+6444811D01*
X-12029655Y+6510819D02*
X-12053124Y+6537222D01*
X-11982716Y+6537222D01*
D23*
X-11856820Y+5896940D02*
X-11679020Y+5896940D01*
X-11679020Y+7090740D01*
X-11856820Y+7090740D01*
X-11856820Y+5896940D01*
D37*
X-11767920Y+5985840D02*
X-11767920Y+5985840D01*
D38*
X-11732716Y+6397652D02*
X-11803124Y+6397652D01*
X-11803124Y+6463659D01*
X-11791389Y+6476861D01*
X-11779655Y+6476861D01*
X-11767920Y+6463659D01*
X-11767920Y+6397652D01*
X-11767920Y+6463659D02*
X-11756185Y+6476861D01*
X-11732716Y+6476861D01*
X-11791389Y+6516465D02*
X-11803124Y+6529667D01*
X-11803124Y+6569271D01*
X-11791389Y+6582473D01*
X-11779655Y+6582473D01*
X-11767920Y+6569271D01*
X-11756185Y+6582473D01*
X-11744451Y+6582473D01*
X-11732716Y+6569271D01*
X-11732716Y+6529667D01*
X-11744451Y+6516465D01*
X-11767920Y+6542868D02*
X-11767920Y+6569271D01*
X-11791389Y+6622077D02*
X-11803124Y+6635279D01*
X-11803124Y+6674883D01*
X-11791389Y+6688085D01*
X-11779655Y+6688085D01*
X-11767920Y+6674883D01*
X-11767920Y+6635279D01*
X-11756185Y+6622077D01*
X-11732716Y+6622077D01*
X-11732716Y+6688085D01*
D23*
X-4237160Y+2235700D02*
X-3960300Y+2235700D01*
X-3960300Y+3480300D01*
X-4237160Y+3480300D01*
X-4237160Y+2235700D01*
D35*
X-4100000Y+3366000D02*
X-4100000Y+3366000D01*
D54*
X-4043789Y+2613170D02*
X-4153670Y+2613170D01*
X-4153670Y+2695580D01*
X-4117043Y+2736785D01*
X-4080416Y+2736785D01*
X-4043789Y+2695580D01*
X-4043789Y+2613170D01*
X-4153670Y+2798592D02*
X-4153670Y+2901605D01*
X-4135356Y+2901605D01*
X-4043789Y+2798592D01*
D23*
X-737160Y+2235700D02*
X-460300Y+2235700D01*
X-460300Y+3480300D01*
X-737160Y+3480300D01*
X-737160Y+2235700D01*
D35*
X-600000Y+3366000D02*
X-600000Y+3366000D01*
D54*
X-543789Y+2613170D02*
X-653670Y+2613170D01*
X-653670Y+2695580D01*
X-617043Y+2736785D01*
X-580416Y+2736785D01*
X-543789Y+2695580D01*
X-543789Y+2613170D01*
X-598730Y+2819195D02*
X-617043Y+2798592D01*
X-635356Y+2798592D01*
X-653670Y+2819195D01*
X-653670Y+2881002D01*
X-635356Y+2901605D01*
X-617043Y+2901605D01*
X-598730Y+2881002D01*
X-598730Y+2819195D01*
X-580416Y+2798592D01*
X-562103Y+2798592D01*
X-543789Y+2819195D01*
X-543789Y+2881002D01*
X-562103Y+2901605D01*
X-580416Y+2901605D01*
X-598730Y+2881002D01*
D23*
X-3488900Y+2261100D02*
X-3311100Y+2261100D01*
X-3311100Y+3454900D01*
X-3488900Y+3454900D01*
X-3488900Y+2261100D01*
D37*
X-3400000Y+2350000D02*
X-3400000Y+2350000D01*
D38*
X-3364796Y+2761812D02*
X-3435204Y+2761812D01*
X-3435204Y+2827819D01*
X-3423469Y+2841021D01*
X-3411735Y+2841021D01*
X-3400000Y+2827819D01*
X-3400000Y+2761812D01*
X-3400000Y+2827819D02*
X-3388265Y+2841021D01*
X-3364796Y+2841021D01*
X-3423469Y+2880625D02*
X-3435204Y+2893827D01*
X-3435204Y+2933431D01*
X-3423469Y+2946633D01*
X-3411735Y+2946633D01*
X-3400000Y+2933431D01*
X-3400000Y+2893827D01*
X-3388265Y+2880625D01*
X-3364796Y+2880625D01*
X-3364796Y+2946633D01*
X-3376531Y+2973036D02*
X-3423469Y+2973036D01*
X-3435204Y+2986237D01*
X-3435204Y+3039043D01*
X-3423469Y+3052245D01*
X-3376531Y+3052245D01*
X-3364796Y+3039043D01*
X-3364796Y+2986237D01*
X-3376531Y+2973036D01*
X-3364796Y+2973036D02*
X-3435204Y+3052245D01*
D23*
X-3796520Y+2261100D02*
X-3603480Y+2261100D01*
X-3603480Y+3454900D01*
X-3796520Y+3454900D01*
X-3796520Y+2261100D01*
D37*
X-3700000Y+2350000D02*
X-3700000Y+2350000D01*
D50*
X-3661596Y+2805017D02*
X-3738405Y+2805017D01*
X-3738405Y+2862623D01*
X-3712802Y+2891426D01*
X-3687199Y+2891426D01*
X-3661596Y+2862623D01*
X-3661596Y+2805017D01*
X-3712802Y+3006639D02*
X-3700000Y+2992238D01*
X-3700000Y+2949033D01*
X-3712802Y+2934631D01*
X-3725603Y+2934631D01*
X-3738405Y+2949033D01*
X-3738405Y+2992238D01*
X-3725603Y+3006639D01*
X-3674397Y+3006639D01*
X-3661596Y+2992238D01*
X-3661596Y+2949033D01*
D23*
X-1288900Y+2245100D02*
X-1111100Y+2245100D01*
X-1111100Y+3438900D01*
X-1288900Y+3438900D01*
X-1288900Y+2245100D01*
D37*
X-1200000Y+2334000D02*
X-1200000Y+2334000D01*
D38*
X-1164796Y+2745812D02*
X-1235204Y+2745812D01*
X-1235204Y+2811819D01*
X-1223469Y+2825021D01*
X-1211735Y+2825021D01*
X-1200000Y+2811819D01*
X-1200000Y+2745812D01*
X-1200000Y+2811819D02*
X-1188265Y+2825021D01*
X-1164796Y+2825021D01*
X-1223469Y+2864625D02*
X-1235204Y+2877827D01*
X-1235204Y+2917431D01*
X-1223469Y+2930633D01*
X-1211735Y+2930633D01*
X-1200000Y+2917431D01*
X-1200000Y+2877827D01*
X-1188265Y+2864625D01*
X-1164796Y+2864625D01*
X-1164796Y+2930633D01*
X-1211735Y+2983439D02*
X-1235204Y+3009842D01*
X-1164796Y+3009842D01*
D23*
X-996520Y+2245100D02*
X-803480Y+2245100D01*
X-803480Y+3438900D01*
X-996520Y+3438900D01*
X-996520Y+2245100D01*
D37*
X-900000Y+2334000D02*
X-900000Y+2334000D01*
D50*
X-861596Y+2731411D02*
X-938405Y+2731411D01*
X-938405Y+2789017D01*
X-912802Y+2817820D01*
X-887199Y+2817820D01*
X-861596Y+2789017D01*
X-861596Y+2731411D01*
X-912802Y+2875427D02*
X-938405Y+2904230D01*
X-861596Y+2904230D01*
X-874397Y+2961837D02*
X-925603Y+2961837D01*
X-938405Y+2976238D01*
X-938405Y+3033845D01*
X-925603Y+3048246D01*
X-874397Y+3048246D01*
X-861596Y+3033845D01*
X-861596Y+2976238D01*
X-874397Y+2961837D01*
X-861596Y+2961837D02*
X-938405Y+3048246D01*
D23*
X-5262280Y+5299520D02*
X-1340520Y+5299520D01*
X-1340520Y+7900480D01*
X-5262280Y+7900480D01*
X-5262280Y+5299520D01*
D55*
X-3486820Y+6056440D02*
X-3486820Y+6056440D01*
D56*
X-4039411Y+7085861D02*
X-3854909Y+7249864D01*
X-3670406Y+7249864D01*
X-3485903Y+7085861D01*
X-3485903Y+6921859D01*
X-3670406Y+6757856D01*
X-3854909Y+6757856D01*
X-4039411Y+6921859D01*
X-4039411Y+7085861D01*
X-3670406Y+6921859D02*
X-3485903Y+6757856D01*
X-2747892Y+7249864D02*
X-3209149Y+7249864D01*
X-3209149Y+7085861D01*
X-2840144Y+7085861D01*
X-2747892Y+7003860D01*
X-2747892Y+6839857D01*
X-2840144Y+6757856D01*
X-3116898Y+6757856D01*
X-3209149Y+6839857D01*
D23*
X+2187720Y+5299520D02*
X+6109480Y+5299520D01*
X+6109480Y+7900480D01*
X+2187720Y+7900480D01*
X+2187720Y+5299520D01*
D55*
X+3963180Y+6056440D02*
X+3963180Y+6056440D01*
D56*
X+3410589Y+7085861D02*
X+3595091Y+7249864D01*
X+3779594Y+7249864D01*
X+3964097Y+7085861D01*
X+3964097Y+6921859D01*
X+3779594Y+6757856D01*
X+3595091Y+6757856D01*
X+3410589Y+6921859D01*
X+3410589Y+7085861D01*
X+3779594Y+6921859D02*
X+3964097Y+6757856D01*
X+4702108Y+7167863D02*
X+4609856Y+7249864D01*
X+4333102Y+7249864D01*
X+4240851Y+7167863D01*
X+4240851Y+6839857D01*
X+4333102Y+6757856D01*
X+4609856Y+6757856D01*
X+4702108Y+6839857D01*
X+4702108Y+6921859D01*
X+4609856Y+7003860D01*
X+4240851Y+7003860D01*
D23*
X-375080Y+6086920D02*
X+1159080Y+6086920D01*
X+1159080Y+7113080D01*
X-375080Y+7113080D01*
X-375080Y+6086920D01*
D57*
X+900000Y+6600000D02*
X+900000Y+6600000D01*
D58*
X-37768Y+6570028D02*
X-37768Y+6540056D01*
X-4050Y+6510084D01*
X+130824Y+6510084D01*
X+164543Y+6540056D01*
X+164543Y+6689916D01*
X+434291Y+6659944D02*
X+400572Y+6689916D01*
X+299417Y+6689916D01*
X+265698Y+6659944D01*
X+265698Y+6540056D01*
X+299417Y+6510084D01*
X+400572Y+6510084D01*
X+434291Y+6540056D01*
X+434291Y+6570028D01*
X+400572Y+6600000D01*
X+265698Y+6600000D01*
D23*
X+5840920Y+190920D02*
X+6613080Y+190920D01*
X+6613080Y+836080D01*
X+5840920Y+836080D01*
X+5840920Y+190920D01*
D40*
X+6100000Y+450000D02*
X+6100000Y+450000D01*
D47*
X+6395250Y+347994D02*
X+6413640Y+347994D01*
X+6432029Y+368682D01*
X+6432029Y+451435D01*
X+6413640Y+472123D01*
X+6321692Y+472123D01*
X+6321692Y+534188D02*
X+6321692Y+637629D01*
X+6340081Y+637629D01*
X+6432029Y+534188D01*
D23*
X+4610300Y-1364300D02*
X+4887160Y-1364300D01*
X+4887160Y-119700D01*
X+4610300Y-119700D01*
X+4610300Y-1364300D01*
D35*
X+4750000Y-1250000D02*
X+4750000Y-1250000D01*
D54*
X+4803671Y-909220D02*
X+4693790Y-909220D01*
X+4693790Y-826810D01*
X+4730417Y-785605D01*
X+4767044Y-785605D01*
X+4803671Y-826810D01*
X+4803671Y-909220D01*
X+4730417Y-703195D02*
X+4693790Y-661990D01*
X+4803671Y-661990D01*
X+4730417Y-538375D02*
X+4693790Y-497170D01*
X+4803671Y-497170D01*
D23*
X+5010300Y-1364300D02*
X+5287160Y-1364300D01*
X+5287160Y-119700D01*
X+5010300Y-119700D01*
X+5010300Y-1364300D01*
D35*
X+5150000Y-1250000D02*
X+5150000Y-1250000D01*
D54*
X+5203671Y-909220D02*
X+5093790Y-909220D01*
X+5093790Y-826810D01*
X+5130417Y-785605D01*
X+5167044Y-785605D01*
X+5203671Y-826810D01*
X+5203671Y-909220D01*
X+5130417Y-703195D02*
X+5093790Y-661990D01*
X+5203671Y-661990D01*
X+5112104Y-558978D02*
X+5093790Y-538375D01*
X+5093790Y-476568D01*
X+5112104Y-455965D01*
X+5130417Y-455965D01*
X+5148730Y-476568D01*
X+5148730Y-538375D01*
X+5167044Y-558978D01*
X+5203671Y-558978D01*
X+5203671Y-455965D01*
D23*
X+5461100Y-1338900D02*
X+5638900Y-1338900D01*
X+5638900Y-145100D01*
X+5461100Y-145100D01*
X+5461100Y-1338900D01*
D37*
X+5550000Y-234000D02*
X+5550000Y-234000D01*
D38*
X+5585204Y-962648D02*
X+5514796Y-962648D01*
X+5514796Y-896641D01*
X+5526531Y-883439D01*
X+5538265Y-883439D01*
X+5550000Y-896641D01*
X+5550000Y-962648D01*
X+5550000Y-896641D02*
X+5561735Y-883439D01*
X+5585204Y-883439D01*
X+5526531Y-843835D02*
X+5514796Y-830633D01*
X+5514796Y-791029D01*
X+5526531Y-777827D01*
X+5538265Y-777827D01*
X+5550000Y-791029D01*
X+5550000Y-830633D01*
X+5561735Y-843835D01*
X+5585204Y-843835D01*
X+5585204Y-777827D01*
X+5526531Y-738223D02*
X+5514796Y-725021D01*
X+5514796Y-685417D01*
X+5526531Y-672215D01*
X+5538265Y-672215D01*
X+5550000Y-685417D01*
X+5550000Y-725021D01*
X+5561735Y-738223D01*
X+5585204Y-738223D01*
X+5585204Y-672215D01*
D23*
X+5836500Y-1190080D02*
X+6725500Y-1190080D01*
X+6725500Y-417920D01*
X+5836500Y-417920D01*
X+5836500Y-1190080D01*
D44*
X+5900000Y-550000D02*
X+5900000Y-550000D01*
D59*
X+6149428Y-745326D02*
X+6149428Y-843116D01*
X+6171430Y-862674D01*
X+6259441Y-862674D01*
X+6281444Y-843116D01*
X+6281444Y-745326D01*
X+6347452Y-764884D02*
X+6369455Y-745326D01*
X+6435463Y-745326D01*
X+6457466Y-764884D01*
X+6457466Y-784442D01*
X+6435463Y-804000D01*
X+6369455Y-804000D01*
X+6347452Y-823558D01*
X+6347452Y-862674D01*
X+6457466Y-862674D01*
D23*
X+7167920Y-1032080D02*
X+7432080Y-1032080D01*
X+7432080Y-513920D01*
X+7167920Y-513920D01*
X+7167920Y-1032080D01*
D37*
X+7300000Y-900000D02*
X+7300000Y-900000D01*
D39*
X+7322691Y-714707D02*
X+7334036Y-727471D01*
X+7334036Y-765761D01*
X+7311345Y-791287D01*
X+7288655Y-791287D01*
X+7265964Y-765761D01*
X+7265964Y-727471D01*
X+7277309Y-714707D01*
X+7265964Y-676417D02*
X+7265964Y-612600D01*
X+7277309Y-612600D01*
X+7334036Y-676417D01*
D23*
X+6911100Y-1338900D02*
X+7088900Y-1338900D01*
X+7088900Y-145100D01*
X+6911100Y-145100D01*
X+6911100Y-1338900D01*
D37*
X+7000000Y-1250000D02*
X+7000000Y-1250000D01*
D38*
X+7035204Y-838188D02*
X+6964796Y-838188D01*
X+6964796Y-772181D01*
X+6976531Y-758979D01*
X+6988265Y-758979D01*
X+7000000Y-772181D01*
X+7000000Y-838188D01*
X+7000000Y-772181D02*
X+7011735Y-758979D01*
X+7035204Y-758979D01*
X+6976531Y-719375D02*
X+6964796Y-706173D01*
X+6964796Y-666569D01*
X+6976531Y-653367D01*
X+6988265Y-653367D01*
X+7000000Y-666569D01*
X+7000000Y-706173D01*
X+7011735Y-719375D01*
X+7035204Y-719375D01*
X+7035204Y-653367D01*
X+6976531Y-613763D02*
X+6964796Y-600561D01*
X+6964796Y-560957D01*
X+6976531Y-547755D01*
X+6988265Y-547755D01*
X+7000000Y-560957D01*
X+7011735Y-547755D01*
X+7023469Y-547755D01*
X+7035204Y-560957D01*
X+7035204Y-600561D01*
X+7023469Y-613763D01*
X+7000000Y-587360D02*
X+7000000Y-560957D01*
D23*
X-7882080Y+6363920D02*
X-7617920Y+6363920D01*
X-7617920Y+6882080D01*
X-7882080Y+6882080D01*
X-7882080Y+6363920D01*
D40*
X-7750000Y+6750000D02*
X-7750000Y+6750000D01*
D60*
X-7783528Y+6385764D02*
X-7716472Y+6385764D01*
X-7716472Y+6461202D01*
X-7727648Y+6486348D02*
X-7716472Y+6498921D01*
X-7716472Y+6549213D01*
X-7727648Y+6561786D01*
X-7738824Y+6561786D01*
X-7750000Y+6549213D01*
X-7750000Y+6498921D01*
X-7761176Y+6486348D01*
X-7772352Y+6486348D01*
X-7783528Y+6498921D01*
X-7783528Y+6549213D01*
X-7772352Y+6561786D01*
X-7761176Y+6612078D02*
X-7783528Y+6637224D01*
X-7716472Y+6637224D01*
M02*
