G04 PROTEUS GERBER X2 FILE*
%TF.GenerationSoftware,Labcenter,Proteus,8.15-SP1-Build34318*%
%TF.CreationDate,2023-09-22T11:42:13+00:00*%
%TF.FileFunction,Legend,Top*%
%TF.FilePolarity,Positive*%
%TF.Part,Single*%
%TF.SameCoordinates,{8a78c1d3-1a7b-4f14-8512-878e163c9550}*%
%FSLAX45Y45*%
%MOMM*%
G01*
%TA.AperFunction,Material*%
%ADD23C,0.101600*%
%TA.AperFunction,Profile*%
%ADD22C,0.101600*%
%TD.AperFunction*%
D23*
X+2409500Y-679500D02*
X+2790500Y-679500D01*
X+2790500Y+209500D01*
X+2409500Y+209500D01*
X+2409500Y-679500D01*
X+2409500Y+19000D02*
X+2790500Y+19000D01*
X+2600000Y+273000D02*
X+2600000Y+209500D01*
X+2600000Y-743000D02*
X+2600000Y-679500D01*
X+2448980Y+69820D02*
X+2448980Y+146020D01*
X+2502320Y+146020D01*
X+2528990Y+120620D01*
X+2528990Y+95220D01*
X+2502320Y+69820D01*
X+2448980Y+69820D01*
X+2568995Y+133320D02*
X+2582330Y+146020D01*
X+2622335Y+146020D01*
X+2635670Y+133320D01*
X+2635670Y+120620D01*
X+2622335Y+107920D01*
X+2582330Y+107920D01*
X+2568995Y+95220D01*
X+2568995Y+69820D01*
X+2635670Y+69820D01*
X+2662340Y+82520D02*
X+2662340Y+133320D01*
X+2675675Y+146020D01*
X+2729015Y+146020D01*
X+2742350Y+133320D01*
X+2742350Y+82520D01*
X+2729015Y+69820D01*
X+2675675Y+69820D01*
X+2662340Y+82520D01*
X+2662340Y+69820D02*
X+2742350Y+146020D01*
X+3484000Y+157000D02*
X+3484000Y+30000D01*
X+3420500Y-478000D02*
X+3547500Y-478000D01*
X+3547500Y+30000D01*
X+3420500Y+30000D01*
X+3420500Y-478000D01*
X+3484000Y-478000D02*
X+3484000Y-605000D01*
X+3554180Y-384020D02*
X+3477980Y-384020D01*
X+3477980Y-317345D01*
X+3490680Y-304010D01*
X+3503380Y-304010D01*
X+3516080Y-317345D01*
X+3516080Y-384020D01*
X+3516080Y-317345D02*
X+3528780Y-304010D01*
X+3554180Y-304010D01*
X+3490680Y-264005D02*
X+3477980Y-250670D01*
X+3477980Y-210665D01*
X+3490680Y-197330D01*
X+3503380Y-197330D01*
X+3516080Y-210665D01*
X+3528780Y-197330D01*
X+3541480Y-197330D01*
X+3554180Y-210665D01*
X+3554180Y-250670D01*
X+3541480Y-264005D01*
X+3516080Y-237335D02*
X+3516080Y-210665D01*
X+3490680Y-157325D02*
X+3477980Y-143990D01*
X+3477980Y-103985D01*
X+3490680Y-90650D01*
X+3503380Y-90650D01*
X+3516080Y-103985D01*
X+3528780Y-90650D01*
X+3541480Y-90650D01*
X+3554180Y-103985D01*
X+3554180Y-143990D01*
X+3541480Y-157325D01*
X+3516080Y-130655D02*
X+3516080Y-103985D01*
X+2419000Y+1400000D02*
X+2424080Y+1425876D01*
X+2438685Y+1449848D01*
X+2461862Y+1471438D01*
X+2492660Y+1490170D01*
X+2530125Y+1505569D01*
X+2573305Y+1517158D01*
X+2621248Y+1524460D01*
X+2673000Y+1527000D01*
X+2927000Y+1400000D02*
X+2921920Y+1425876D01*
X+2907315Y+1449848D01*
X+2884138Y+1471438D01*
X+2853340Y+1490170D01*
X+2815875Y+1505569D01*
X+2772695Y+1517158D01*
X+2724752Y+1524460D01*
X+2673000Y+1527000D01*
X+2419000Y+1400000D02*
X+2424080Y+1374124D01*
X+2438685Y+1350152D01*
X+2461862Y+1328562D01*
X+2492660Y+1309830D01*
X+2530125Y+1294431D01*
X+2573305Y+1282842D01*
X+2621248Y+1275540D01*
X+2673000Y+1273000D01*
X+2927000Y+1400000D02*
X+2921920Y+1374124D01*
X+2907315Y+1350152D01*
X+2884138Y+1328562D01*
X+2853340Y+1309830D01*
X+2815875Y+1294431D01*
X+2772695Y+1282842D01*
X+2724752Y+1275540D01*
X+2673000Y+1273000D01*
X+2379820Y+1346330D02*
X+2392520Y+1332995D01*
X+2392520Y+1292990D01*
X+2367120Y+1266320D01*
X+2341720Y+1266320D01*
X+2316320Y+1292990D01*
X+2316320Y+1332995D01*
X+2329020Y+1346330D01*
X+2354420Y+1399670D02*
X+2341720Y+1386335D01*
X+2329020Y+1386335D01*
X+2316320Y+1399670D01*
X+2316320Y+1439675D01*
X+2329020Y+1453010D01*
X+2341720Y+1453010D01*
X+2354420Y+1439675D01*
X+2354420Y+1399670D01*
X+2367120Y+1386335D01*
X+2379820Y+1386335D01*
X+2392520Y+1399670D01*
X+2392520Y+1439675D01*
X+2379820Y+1453010D01*
X+2367120Y+1453010D01*
X+2354420Y+1439675D01*
X+2909500Y-679500D02*
X+3290500Y-679500D01*
X+3290500Y+209500D01*
X+2909500Y+209500D01*
X+2909500Y-679500D01*
X+3290500Y-489000D02*
X+2909500Y-489000D01*
X+3100000Y-743000D02*
X+3100000Y-679500D01*
X+3100000Y+273000D02*
X+3100000Y+209500D01*
X+2920980Y-606020D02*
X+2920980Y-529820D01*
X+2974320Y-529820D01*
X+3000990Y-555220D01*
X+3000990Y-580620D01*
X+2974320Y-606020D01*
X+2920980Y-606020D01*
X+3040995Y-542520D02*
X+3054330Y-529820D01*
X+3094335Y-529820D01*
X+3107670Y-542520D01*
X+3107670Y-555220D01*
X+3094335Y-567920D01*
X+3054330Y-567920D01*
X+3040995Y-580620D01*
X+3040995Y-606020D01*
X+3107670Y-606020D01*
X+3147675Y-542520D02*
X+3161010Y-529820D01*
X+3201015Y-529820D01*
X+3214350Y-542520D01*
X+3214350Y-555220D01*
X+3201015Y-567920D01*
X+3161010Y-567920D01*
X+3147675Y-580620D01*
X+3147675Y-606020D01*
X+3214350Y-606020D01*
X+2599000Y+747000D02*
X+3361000Y+747000D01*
X+3361000Y+1001000D01*
X+2599000Y+1001000D01*
X+2599000Y+747000D01*
X+2599000Y+1001000D02*
X+2599000Y+1128000D01*
X+3361000Y+1128000D01*
X+3361000Y+1001000D01*
X+2599000Y+1001000D02*
X+2726000Y+1128000D01*
X+2726000Y+1001000D02*
X+2853000Y+1128000D01*
X+2853000Y+1001000D02*
X+2980000Y+1128000D01*
X+2980000Y+1001000D02*
X+3107000Y+1128000D01*
X+3107000Y+1001000D02*
X+3234000Y+1128000D01*
X+3234000Y+1001000D02*
X+3361000Y+1128000D01*
X+2873320Y+1234680D02*
X+2873320Y+1171180D01*
X+2886655Y+1158480D01*
X+2939995Y+1158480D01*
X+2953330Y+1171180D01*
X+2953330Y+1234680D01*
X+3060010Y+1183880D02*
X+2980000Y+1183880D01*
X+3033340Y+1234680D01*
X+3033340Y+1158480D01*
X+3477000Y+1400000D02*
X+3471920Y+1374124D01*
X+3457315Y+1350152D01*
X+3434138Y+1328562D01*
X+3403340Y+1309830D01*
X+3365875Y+1294431D01*
X+3322695Y+1282842D01*
X+3274752Y+1275540D01*
X+3223000Y+1273000D01*
X+2969000Y+1400000D02*
X+2974080Y+1374124D01*
X+2988685Y+1350152D01*
X+3011862Y+1328562D01*
X+3042660Y+1309830D01*
X+3080125Y+1294431D01*
X+3123305Y+1282842D01*
X+3171248Y+1275540D01*
X+3223000Y+1273000D01*
X+3477000Y+1400000D02*
X+3471920Y+1425876D01*
X+3457315Y+1449848D01*
X+3434138Y+1471438D01*
X+3403340Y+1490170D01*
X+3365875Y+1505569D01*
X+3322695Y+1517158D01*
X+3274752Y+1524460D01*
X+3223000Y+1527000D01*
X+2969000Y+1400000D02*
X+2974080Y+1425876D01*
X+2988685Y+1449848D01*
X+3011862Y+1471438D01*
X+3042660Y+1490170D01*
X+3080125Y+1505569D01*
X+3123305Y+1517158D01*
X+3171248Y+1524460D01*
X+3223000Y+1527000D01*
X+3570980Y+1396330D02*
X+3583680Y+1382995D01*
X+3583680Y+1342990D01*
X+3558280Y+1316320D01*
X+3532880Y+1316320D01*
X+3507480Y+1342990D01*
X+3507480Y+1382995D01*
X+3520180Y+1396330D01*
X+3532880Y+1503010D02*
X+3545580Y+1489675D01*
X+3545580Y+1449670D01*
X+3532880Y+1436335D01*
X+3520180Y+1436335D01*
X+3507480Y+1449670D01*
X+3507480Y+1489675D01*
X+3520180Y+1503010D01*
X+3570980Y+1503010D01*
X+3583680Y+1489675D01*
X+3583680Y+1449670D01*
X+4031000Y+900000D02*
X+4030173Y+920483D01*
X+4023455Y+961450D01*
X+4009437Y+1002417D01*
X+3986659Y+1043384D01*
X+3951859Y+1084229D01*
X+3910892Y+1115845D01*
X+3869925Y+1136392D01*
X+3828958Y+1148629D01*
X+3787991Y+1153762D01*
X+3777000Y+1154000D01*
X+3523000Y+900000D02*
X+3523827Y+920483D01*
X+3530545Y+961450D01*
X+3544563Y+1002417D01*
X+3567341Y+1043384D01*
X+3602141Y+1084229D01*
X+3643108Y+1115845D01*
X+3684075Y+1136392D01*
X+3725042Y+1148629D01*
X+3766009Y+1153762D01*
X+3777000Y+1154000D01*
X+3523000Y+900000D02*
X+3523827Y+879517D01*
X+3530545Y+838550D01*
X+3544563Y+797583D01*
X+3567341Y+756616D01*
X+3602141Y+715771D01*
X+3643108Y+684155D01*
X+3684075Y+663608D01*
X+3725042Y+651371D01*
X+3766009Y+646238D01*
X+3777000Y+646000D01*
X+4031000Y+900000D02*
X+4030173Y+879517D01*
X+4023455Y+838550D01*
X+4009437Y+797583D01*
X+3986659Y+756616D01*
X+3951859Y+715771D01*
X+3910892Y+684155D01*
X+3869925Y+663608D01*
X+3828958Y+651371D01*
X+3787991Y+646238D01*
X+3777000Y+646000D01*
X+3586500Y+1027000D02*
X+3713500Y+1027000D01*
X+3650000Y+1090500D02*
X+3650000Y+963500D01*
X+3696070Y+1197180D02*
X+3682735Y+1184480D01*
X+3642730Y+1184480D01*
X+3616060Y+1209880D01*
X+3616060Y+1235280D01*
X+3642730Y+1260680D01*
X+3682735Y+1260680D01*
X+3696070Y+1247980D01*
X+3749410Y+1235280D02*
X+3776080Y+1260680D01*
X+3776080Y+1184480D01*
X+3829420Y+1197180D02*
X+3829420Y+1247980D01*
X+3842755Y+1260680D01*
X+3896095Y+1260680D01*
X+3909430Y+1247980D01*
X+3909430Y+1197180D01*
X+3896095Y+1184480D01*
X+3842755Y+1184480D01*
X+3829420Y+1197180D01*
X+3829420Y+1184480D02*
X+3909430Y+1260680D01*
D22*
X-5943980Y-3673980D02*
X+8033980Y-3673980D01*
X+8033980Y+8793980D01*
X-5943980Y+8793980D01*
X-5943980Y-3673980D01*
D23*
X+27000Y+3246000D02*
X+21920Y+3297752D01*
X+7315Y+3345695D01*
X-15862Y+3388875D01*
X-46660Y+3426340D01*
X-84125Y+3457138D01*
X-127305Y+3480315D01*
X-175248Y+3494920D01*
X-227000Y+3500000D01*
X+27000Y+3246000D02*
X+21920Y+3193518D01*
X+7315Y+3145233D01*
X-15862Y+3102009D01*
X-46660Y+3064708D01*
X-84125Y+3034193D01*
X-127305Y+3011328D01*
X-175248Y+2996976D01*
X-227000Y+2992000D01*
X-227000Y+3500000D02*
X-227000Y+3881000D01*
X+4853000Y+3881000D02*
X+4853000Y+2611000D01*
X-227000Y+2611000D02*
X-227000Y+2992000D01*
X-227000Y+3881000D02*
X+4853000Y+3881000D01*
X-227000Y+2611000D02*
X+4853000Y+2611000D01*
X-333680Y+3139320D02*
X-270180Y+3139320D01*
X-257480Y+3152655D01*
X-257480Y+3205995D01*
X-270180Y+3219330D01*
X-333680Y+3219330D01*
X-320980Y+3259335D02*
X-333680Y+3272670D01*
X-333680Y+3312675D01*
X-320980Y+3326010D01*
X-308280Y+3326010D01*
X-295580Y+3312675D01*
X-282880Y+3326010D01*
X-270180Y+3326010D01*
X-257480Y+3312675D01*
X-257480Y+3272670D01*
X-270180Y+3259335D01*
X-295580Y+3286005D02*
X-295580Y+3312675D01*
X-11286920Y+8235840D02*
X-11287747Y+8256323D01*
X-11294465Y+8297290D01*
X-11308483Y+8338257D01*
X-11331261Y+8379224D01*
X-11366061Y+8420069D01*
X-11407028Y+8451685D01*
X-11447995Y+8472232D01*
X-11488962Y+8484469D01*
X-11529929Y+8489602D01*
X-11540920Y+8489840D01*
X-11794920Y+8235840D02*
X-11794093Y+8256323D01*
X-11787375Y+8297290D01*
X-11773357Y+8338257D01*
X-11750579Y+8379224D01*
X-11715779Y+8420069D01*
X-11674812Y+8451685D01*
X-11633845Y+8472232D01*
X-11592878Y+8484469D01*
X-11551911Y+8489602D01*
X-11540920Y+8489840D01*
X-11794920Y+8235840D02*
X-11794093Y+8215357D01*
X-11787375Y+8174390D01*
X-11773357Y+8133423D01*
X-11750579Y+8092456D01*
X-11715779Y+8051611D01*
X-11674812Y+8019995D01*
X-11633845Y+7999448D01*
X-11592878Y+7987211D01*
X-11551911Y+7982078D01*
X-11540920Y+7981840D01*
X-11286920Y+8235840D02*
X-11287747Y+8215357D01*
X-11294465Y+8174390D01*
X-11308483Y+8133423D01*
X-11331261Y+8092456D01*
X-11366061Y+8051611D01*
X-11407028Y+8019995D01*
X-11447995Y+7999448D01*
X-11488962Y+7987211D01*
X-11529929Y+7982078D01*
X-11540920Y+7981840D01*
X-11223420Y+7981840D02*
X-11350420Y+7981840D01*
X-11286920Y+7918340D02*
X-11286920Y+8045340D01*
X-11669190Y+7811660D02*
X-11669190Y+7887860D01*
X-11615850Y+7887860D01*
X-11589180Y+7862460D01*
X-11589180Y+7837060D01*
X-11615850Y+7811660D01*
X-11669190Y+7811660D01*
X-11535840Y+7862460D02*
X-11509170Y+7887860D01*
X-11509170Y+7811660D01*
X-11442495Y+7875160D02*
X-11429160Y+7887860D01*
X-11389155Y+7887860D01*
X-11375820Y+7875160D01*
X-11375820Y+7862460D01*
X-11389155Y+7849760D01*
X-11375820Y+7837060D01*
X-11375820Y+7824360D01*
X-11389155Y+7811660D01*
X-11429160Y+7811660D01*
X-11442495Y+7824360D01*
X-11415825Y+7849760D02*
X-11389155Y+7849760D01*
X-10556920Y+8235840D02*
X-10557747Y+8256323D01*
X-10564465Y+8297290D01*
X-10578483Y+8338257D01*
X-10601261Y+8379224D01*
X-10636061Y+8420069D01*
X-10677028Y+8451685D01*
X-10717995Y+8472232D01*
X-10758962Y+8484469D01*
X-10799929Y+8489602D01*
X-10810920Y+8489840D01*
X-11064920Y+8235840D02*
X-11064093Y+8256323D01*
X-11057375Y+8297290D01*
X-11043357Y+8338257D01*
X-11020579Y+8379224D01*
X-10985779Y+8420069D01*
X-10944812Y+8451685D01*
X-10903845Y+8472232D01*
X-10862878Y+8484469D01*
X-10821911Y+8489602D01*
X-10810920Y+8489840D01*
X-11064920Y+8235840D02*
X-11064093Y+8215357D01*
X-11057375Y+8174390D01*
X-11043357Y+8133423D01*
X-11020579Y+8092456D01*
X-10985779Y+8051611D01*
X-10944812Y+8019995D01*
X-10903845Y+7999448D01*
X-10862878Y+7987211D01*
X-10821911Y+7982078D01*
X-10810920Y+7981840D01*
X-10556920Y+8235840D02*
X-10557747Y+8215357D01*
X-10564465Y+8174390D01*
X-10578483Y+8133423D01*
X-10601261Y+8092456D01*
X-10636061Y+8051611D01*
X-10677028Y+8019995D01*
X-10717995Y+7999448D01*
X-10758962Y+7987211D01*
X-10799929Y+7982078D01*
X-10810920Y+7981840D01*
X-10493420Y+7981840D02*
X-10620420Y+7981840D01*
X-10556920Y+7918340D02*
X-10556920Y+8045340D01*
X-10939190Y+7811660D02*
X-10939190Y+7887860D01*
X-10885850Y+7887860D01*
X-10859180Y+7862460D01*
X-10859180Y+7837060D01*
X-10885850Y+7811660D01*
X-10939190Y+7811660D01*
X-10805840Y+7862460D02*
X-10779170Y+7887860D01*
X-10779170Y+7811660D01*
X-10645820Y+7837060D02*
X-10725830Y+7837060D01*
X-10672490Y+7887860D01*
X-10672490Y+7811660D01*
X-9890920Y+8235840D02*
X-9891747Y+8256323D01*
X-9898465Y+8297290D01*
X-9912483Y+8338257D01*
X-9935261Y+8379224D01*
X-9970061Y+8420069D01*
X-10011028Y+8451685D01*
X-10051995Y+8472232D01*
X-10092962Y+8484469D01*
X-10133929Y+8489602D01*
X-10144920Y+8489840D01*
X-10398920Y+8235840D02*
X-10398093Y+8256323D01*
X-10391375Y+8297290D01*
X-10377357Y+8338257D01*
X-10354579Y+8379224D01*
X-10319779Y+8420069D01*
X-10278812Y+8451685D01*
X-10237845Y+8472232D01*
X-10196878Y+8484469D01*
X-10155911Y+8489602D01*
X-10144920Y+8489840D01*
X-10398920Y+8235840D02*
X-10398093Y+8215357D01*
X-10391375Y+8174390D01*
X-10377357Y+8133423D01*
X-10354579Y+8092456D01*
X-10319779Y+8051611D01*
X-10278812Y+8019995D01*
X-10237845Y+7999448D01*
X-10196878Y+7987211D01*
X-10155911Y+7982078D01*
X-10144920Y+7981840D01*
X-9890920Y+8235840D02*
X-9891747Y+8215357D01*
X-9898465Y+8174390D01*
X-9912483Y+8133423D01*
X-9935261Y+8092456D01*
X-9970061Y+8051611D01*
X-10011028Y+8019995D01*
X-10051995Y+7999448D01*
X-10092962Y+7987211D01*
X-10133929Y+7982078D01*
X-10144920Y+7981840D01*
X-9827420Y+7981840D02*
X-9954420Y+7981840D01*
X-9890920Y+7918340D02*
X-9890920Y+8045340D01*
X-10273190Y+7811660D02*
X-10273190Y+7887860D01*
X-10219850Y+7887860D01*
X-10193180Y+7862460D01*
X-10193180Y+7837060D01*
X-10219850Y+7811660D01*
X-10273190Y+7811660D01*
X-10139840Y+7862460D02*
X-10113170Y+7887860D01*
X-10113170Y+7811660D01*
X-9979820Y+7887860D02*
X-10046495Y+7887860D01*
X-10046495Y+7862460D01*
X-9993155Y+7862460D01*
X-9979820Y+7849760D01*
X-9979820Y+7824360D01*
X-9993155Y+7811660D01*
X-10033160Y+7811660D01*
X-10046495Y+7824360D01*
X-9190920Y+8235840D02*
X-9191747Y+8256323D01*
X-9198465Y+8297290D01*
X-9212483Y+8338257D01*
X-9235261Y+8379224D01*
X-9270061Y+8420069D01*
X-9311028Y+8451685D01*
X-9351995Y+8472232D01*
X-9392962Y+8484469D01*
X-9433929Y+8489602D01*
X-9444920Y+8489840D01*
X-9698920Y+8235840D02*
X-9698093Y+8256323D01*
X-9691375Y+8297290D01*
X-9677357Y+8338257D01*
X-9654579Y+8379224D01*
X-9619779Y+8420069D01*
X-9578812Y+8451685D01*
X-9537845Y+8472232D01*
X-9496878Y+8484469D01*
X-9455911Y+8489602D01*
X-9444920Y+8489840D01*
X-9698920Y+8235840D02*
X-9698093Y+8215357D01*
X-9691375Y+8174390D01*
X-9677357Y+8133423D01*
X-9654579Y+8092456D01*
X-9619779Y+8051611D01*
X-9578812Y+8019995D01*
X-9537845Y+7999448D01*
X-9496878Y+7987211D01*
X-9455911Y+7982078D01*
X-9444920Y+7981840D01*
X-9190920Y+8235840D02*
X-9191747Y+8215357D01*
X-9198465Y+8174390D01*
X-9212483Y+8133423D01*
X-9235261Y+8092456D01*
X-9270061Y+8051611D01*
X-9311028Y+8019995D01*
X-9351995Y+7999448D01*
X-9392962Y+7987211D01*
X-9433929Y+7982078D01*
X-9444920Y+7981840D01*
X-9127420Y+7981840D02*
X-9254420Y+7981840D01*
X-9190920Y+7918340D02*
X-9190920Y+8045340D01*
X-9573190Y+7811660D02*
X-9573190Y+7887860D01*
X-9519850Y+7887860D01*
X-9493180Y+7862460D01*
X-9493180Y+7837060D01*
X-9519850Y+7811660D01*
X-9573190Y+7811660D01*
X-9439840Y+7862460D02*
X-9413170Y+7887860D01*
X-9413170Y+7811660D01*
X-9279820Y+7875160D02*
X-9293155Y+7887860D01*
X-9333160Y+7887860D01*
X-9346495Y+7875160D01*
X-9346495Y+7824360D01*
X-9333160Y+7811660D01*
X-9293155Y+7811660D01*
X-9279820Y+7824360D01*
X-9279820Y+7837060D01*
X-9293155Y+7849760D01*
X-9346495Y+7849760D01*
X-8540920Y+8235840D02*
X-8541747Y+8256323D01*
X-8548465Y+8297290D01*
X-8562483Y+8338257D01*
X-8585261Y+8379224D01*
X-8620061Y+8420069D01*
X-8661028Y+8451685D01*
X-8701995Y+8472232D01*
X-8742962Y+8484469D01*
X-8783929Y+8489602D01*
X-8794920Y+8489840D01*
X-9048920Y+8235840D02*
X-9048093Y+8256323D01*
X-9041375Y+8297290D01*
X-9027357Y+8338257D01*
X-9004579Y+8379224D01*
X-8969779Y+8420069D01*
X-8928812Y+8451685D01*
X-8887845Y+8472232D01*
X-8846878Y+8484469D01*
X-8805911Y+8489602D01*
X-8794920Y+8489840D01*
X-9048920Y+8235840D02*
X-9048093Y+8215357D01*
X-9041375Y+8174390D01*
X-9027357Y+8133423D01*
X-9004579Y+8092456D01*
X-8969779Y+8051611D01*
X-8928812Y+8019995D01*
X-8887845Y+7999448D01*
X-8846878Y+7987211D01*
X-8805911Y+7982078D01*
X-8794920Y+7981840D01*
X-8540920Y+8235840D02*
X-8541747Y+8215357D01*
X-8548465Y+8174390D01*
X-8562483Y+8133423D01*
X-8585261Y+8092456D01*
X-8620061Y+8051611D01*
X-8661028Y+8019995D01*
X-8701995Y+7999448D01*
X-8742962Y+7987211D01*
X-8783929Y+7982078D01*
X-8794920Y+7981840D01*
X-8477420Y+7981840D02*
X-8604420Y+7981840D01*
X-8540920Y+7918340D02*
X-8540920Y+8045340D01*
X-8923190Y+7811660D02*
X-8923190Y+7887860D01*
X-8869850Y+7887860D01*
X-8843180Y+7862460D01*
X-8843180Y+7837060D01*
X-8869850Y+7811660D01*
X-8923190Y+7811660D01*
X-8789840Y+7862460D02*
X-8763170Y+7887860D01*
X-8763170Y+7811660D01*
X-8696495Y+7887860D02*
X-8629820Y+7887860D01*
X-8629820Y+7875160D01*
X-8696495Y+7811660D01*
X-7890920Y+8235840D02*
X-7891747Y+8256323D01*
X-7898465Y+8297290D01*
X-7912483Y+8338257D01*
X-7935261Y+8379224D01*
X-7970061Y+8420069D01*
X-8011028Y+8451685D01*
X-8051995Y+8472232D01*
X-8092962Y+8484469D01*
X-8133929Y+8489602D01*
X-8144920Y+8489840D01*
X-8398920Y+8235840D02*
X-8398093Y+8256323D01*
X-8391375Y+8297290D01*
X-8377357Y+8338257D01*
X-8354579Y+8379224D01*
X-8319779Y+8420069D01*
X-8278812Y+8451685D01*
X-8237845Y+8472232D01*
X-8196878Y+8484469D01*
X-8155911Y+8489602D01*
X-8144920Y+8489840D01*
X-8398920Y+8235840D02*
X-8398093Y+8215357D01*
X-8391375Y+8174390D01*
X-8377357Y+8133423D01*
X-8354579Y+8092456D01*
X-8319779Y+8051611D01*
X-8278812Y+8019995D01*
X-8237845Y+7999448D01*
X-8196878Y+7987211D01*
X-8155911Y+7982078D01*
X-8144920Y+7981840D01*
X-7890920Y+8235840D02*
X-7891747Y+8215357D01*
X-7898465Y+8174390D01*
X-7912483Y+8133423D01*
X-7935261Y+8092456D01*
X-7970061Y+8051611D01*
X-8011028Y+8019995D01*
X-8051995Y+7999448D01*
X-8092962Y+7987211D01*
X-8133929Y+7982078D01*
X-8144920Y+7981840D01*
X-7827420Y+7981840D02*
X-7954420Y+7981840D01*
X-7890920Y+7918340D02*
X-7890920Y+8045340D01*
X-8273190Y+7811660D02*
X-8273190Y+7887860D01*
X-8219850Y+7887860D01*
X-8193180Y+7862460D01*
X-8193180Y+7837060D01*
X-8219850Y+7811660D01*
X-8273190Y+7811660D01*
X-8139840Y+7862460D02*
X-8113170Y+7887860D01*
X-8113170Y+7811660D01*
X-8033160Y+7849760D02*
X-8046495Y+7862460D01*
X-8046495Y+7875160D01*
X-8033160Y+7887860D01*
X-7993155Y+7887860D01*
X-7979820Y+7875160D01*
X-7979820Y+7862460D01*
X-7993155Y+7849760D01*
X-8033160Y+7849760D01*
X-8046495Y+7837060D01*
X-8046495Y+7824360D01*
X-8033160Y+7811660D01*
X-7993155Y+7811660D01*
X-7979820Y+7824360D01*
X-7979820Y+7837060D01*
X-7993155Y+7849760D01*
X-7190920Y+8235840D02*
X-7191747Y+8256323D01*
X-7198465Y+8297290D01*
X-7212483Y+8338257D01*
X-7235261Y+8379224D01*
X-7270061Y+8420069D01*
X-7311028Y+8451685D01*
X-7351995Y+8472232D01*
X-7392962Y+8484469D01*
X-7433929Y+8489602D01*
X-7444920Y+8489840D01*
X-7698920Y+8235840D02*
X-7698093Y+8256323D01*
X-7691375Y+8297290D01*
X-7677357Y+8338257D01*
X-7654579Y+8379224D01*
X-7619779Y+8420069D01*
X-7578812Y+8451685D01*
X-7537845Y+8472232D01*
X-7496878Y+8484469D01*
X-7455911Y+8489602D01*
X-7444920Y+8489840D01*
X-7698920Y+8235840D02*
X-7698093Y+8215357D01*
X-7691375Y+8174390D01*
X-7677357Y+8133423D01*
X-7654579Y+8092456D01*
X-7619779Y+8051611D01*
X-7578812Y+8019995D01*
X-7537845Y+7999448D01*
X-7496878Y+7987211D01*
X-7455911Y+7982078D01*
X-7444920Y+7981840D01*
X-7190920Y+8235840D02*
X-7191747Y+8215357D01*
X-7198465Y+8174390D01*
X-7212483Y+8133423D01*
X-7235261Y+8092456D01*
X-7270061Y+8051611D01*
X-7311028Y+8019995D01*
X-7351995Y+7999448D01*
X-7392962Y+7987211D01*
X-7433929Y+7982078D01*
X-7444920Y+7981840D01*
X-7127420Y+7981840D02*
X-7254420Y+7981840D01*
X-7190920Y+7918340D02*
X-7190920Y+8045340D01*
X-7573190Y+7811660D02*
X-7573190Y+7887860D01*
X-7519850Y+7887860D01*
X-7493180Y+7862460D01*
X-7493180Y+7837060D01*
X-7519850Y+7811660D01*
X-7573190Y+7811660D01*
X-7439840Y+7862460D02*
X-7413170Y+7887860D01*
X-7413170Y+7811660D01*
X-7279820Y+7862460D02*
X-7293155Y+7849760D01*
X-7333160Y+7849760D01*
X-7346495Y+7862460D01*
X-7346495Y+7875160D01*
X-7333160Y+7887860D01*
X-7293155Y+7887860D01*
X-7279820Y+7875160D01*
X-7279820Y+7824360D01*
X-7293155Y+7811660D01*
X-7333160Y+7811660D01*
X-10267920Y+6858840D02*
X-10267920Y+6731840D01*
X-10331420Y+6223840D02*
X-10204420Y+6223840D01*
X-10204420Y+6731840D01*
X-10331420Y+6731840D01*
X-10331420Y+6223840D01*
X-10267920Y+6223840D02*
X-10267920Y+6096840D01*
X-10197740Y+6317820D02*
X-10273940Y+6317820D01*
X-10273940Y+6384495D01*
X-10261240Y+6397830D01*
X-10248540Y+6397830D01*
X-10235840Y+6384495D01*
X-10235840Y+6317820D01*
X-10235840Y+6384495D02*
X-10223140Y+6397830D01*
X-10197740Y+6397830D01*
X-10261240Y+6437835D02*
X-10273940Y+6451170D01*
X-10273940Y+6491175D01*
X-10261240Y+6504510D01*
X-10248540Y+6504510D01*
X-10235840Y+6491175D01*
X-10235840Y+6451170D01*
X-10223140Y+6437835D01*
X-10197740Y+6437835D01*
X-10197740Y+6504510D01*
X-10223140Y+6611190D02*
X-10223140Y+6531180D01*
X-10273940Y+6584520D01*
X-10197740Y+6584520D01*
X-9967920Y+6858840D02*
X-9967920Y+6731840D01*
X-10031420Y+6223840D02*
X-9904420Y+6223840D01*
X-9904420Y+6731840D01*
X-10031420Y+6731840D01*
X-10031420Y+6223840D01*
X-9967920Y+6223840D02*
X-9967920Y+6096840D01*
X-9897740Y+6317820D02*
X-9973940Y+6317820D01*
X-9973940Y+6384495D01*
X-9961240Y+6397830D01*
X-9948540Y+6397830D01*
X-9935840Y+6384495D01*
X-9935840Y+6317820D01*
X-9935840Y+6384495D02*
X-9923140Y+6397830D01*
X-9897740Y+6397830D01*
X-9961240Y+6437835D02*
X-9973940Y+6451170D01*
X-9973940Y+6491175D01*
X-9961240Y+6504510D01*
X-9948540Y+6504510D01*
X-9935840Y+6491175D01*
X-9935840Y+6451170D01*
X-9923140Y+6437835D01*
X-9897740Y+6437835D01*
X-9897740Y+6504510D01*
X-9973940Y+6611190D02*
X-9973940Y+6544515D01*
X-9948540Y+6544515D01*
X-9948540Y+6597855D01*
X-9935840Y+6611190D01*
X-9910440Y+6611190D01*
X-9897740Y+6597855D01*
X-9897740Y+6557850D01*
X-9910440Y+6544515D01*
X-9667920Y+6858840D02*
X-9667920Y+6731840D01*
X-9731420Y+6223840D02*
X-9604420Y+6223840D01*
X-9604420Y+6731840D01*
X-9731420Y+6731840D01*
X-9731420Y+6223840D01*
X-9667920Y+6223840D02*
X-9667920Y+6096840D01*
X-9597740Y+6317820D02*
X-9673940Y+6317820D01*
X-9673940Y+6384495D01*
X-9661240Y+6397830D01*
X-9648540Y+6397830D01*
X-9635840Y+6384495D01*
X-9635840Y+6317820D01*
X-9635840Y+6384495D02*
X-9623140Y+6397830D01*
X-9597740Y+6397830D01*
X-9661240Y+6437835D02*
X-9673940Y+6451170D01*
X-9673940Y+6491175D01*
X-9661240Y+6504510D01*
X-9648540Y+6504510D01*
X-9635840Y+6491175D01*
X-9635840Y+6451170D01*
X-9623140Y+6437835D01*
X-9597740Y+6437835D01*
X-9597740Y+6504510D01*
X-9661240Y+6611190D02*
X-9673940Y+6597855D01*
X-9673940Y+6557850D01*
X-9661240Y+6544515D01*
X-9610440Y+6544515D01*
X-9597740Y+6557850D01*
X-9597740Y+6597855D01*
X-9610440Y+6611190D01*
X-9623140Y+6611190D01*
X-9635840Y+6597855D01*
X-9635840Y+6544515D01*
X-9367920Y+6868840D02*
X-9367920Y+6741840D01*
X-9431420Y+6233840D02*
X-9304420Y+6233840D01*
X-9304420Y+6741840D01*
X-9431420Y+6741840D01*
X-9431420Y+6233840D01*
X-9367920Y+6233840D02*
X-9367920Y+6106840D01*
X-9297740Y+6327820D02*
X-9373940Y+6327820D01*
X-9373940Y+6394495D01*
X-9361240Y+6407830D01*
X-9348540Y+6407830D01*
X-9335840Y+6394495D01*
X-9335840Y+6327820D01*
X-9335840Y+6394495D02*
X-9323140Y+6407830D01*
X-9297740Y+6407830D01*
X-9361240Y+6447835D02*
X-9373940Y+6461170D01*
X-9373940Y+6501175D01*
X-9361240Y+6514510D01*
X-9348540Y+6514510D01*
X-9335840Y+6501175D01*
X-9335840Y+6461170D01*
X-9323140Y+6447835D01*
X-9297740Y+6447835D01*
X-9297740Y+6514510D01*
X-9373940Y+6554515D02*
X-9373940Y+6621190D01*
X-9361240Y+6621190D01*
X-9297740Y+6554515D01*
X-9067920Y+6858840D02*
X-9067920Y+6731840D01*
X-9131420Y+6223840D02*
X-9004420Y+6223840D01*
X-9004420Y+6731840D01*
X-9131420Y+6731840D01*
X-9131420Y+6223840D01*
X-9067920Y+6223840D02*
X-9067920Y+6096840D01*
X-9047740Y+6317820D02*
X-9123940Y+6317820D01*
X-9123940Y+6384495D01*
X-9111240Y+6397830D01*
X-9098540Y+6397830D01*
X-9085840Y+6384495D01*
X-9085840Y+6317820D01*
X-9085840Y+6384495D02*
X-9073140Y+6397830D01*
X-9047740Y+6397830D01*
X-9111240Y+6437835D02*
X-9123940Y+6451170D01*
X-9123940Y+6491175D01*
X-9111240Y+6504510D01*
X-9098540Y+6504510D01*
X-9085840Y+6491175D01*
X-9085840Y+6451170D01*
X-9073140Y+6437835D01*
X-9047740Y+6437835D01*
X-9047740Y+6504510D01*
X-9085840Y+6557850D02*
X-9098540Y+6544515D01*
X-9111240Y+6544515D01*
X-9123940Y+6557850D01*
X-9123940Y+6597855D01*
X-9111240Y+6611190D01*
X-9098540Y+6611190D01*
X-9085840Y+6597855D01*
X-9085840Y+6557850D01*
X-9073140Y+6544515D01*
X-9060440Y+6544515D01*
X-9047740Y+6557850D01*
X-9047740Y+6597855D01*
X-9060440Y+6611190D01*
X-9073140Y+6611190D01*
X-9085840Y+6597855D01*
X-8767920Y+6858840D02*
X-8767920Y+6731840D01*
X-8831420Y+6223840D02*
X-8704420Y+6223840D01*
X-8704420Y+6731840D01*
X-8831420Y+6731840D01*
X-8831420Y+6223840D01*
X-8767920Y+6223840D02*
X-8767920Y+6096840D01*
X-8697740Y+6317820D02*
X-8773940Y+6317820D01*
X-8773940Y+6384495D01*
X-8761240Y+6397830D01*
X-8748540Y+6397830D01*
X-8735840Y+6384495D01*
X-8735840Y+6317820D01*
X-8735840Y+6384495D02*
X-8723140Y+6397830D01*
X-8697740Y+6397830D01*
X-8761240Y+6437835D02*
X-8773940Y+6451170D01*
X-8773940Y+6491175D01*
X-8761240Y+6504510D01*
X-8748540Y+6504510D01*
X-8735840Y+6491175D01*
X-8735840Y+6451170D01*
X-8723140Y+6437835D01*
X-8697740Y+6437835D01*
X-8697740Y+6504510D01*
X-8748540Y+6611190D02*
X-8735840Y+6597855D01*
X-8735840Y+6557850D01*
X-8748540Y+6544515D01*
X-8761240Y+6544515D01*
X-8773940Y+6557850D01*
X-8773940Y+6597855D01*
X-8761240Y+6611190D01*
X-8710440Y+6611190D01*
X-8697740Y+6597855D01*
X-8697740Y+6557850D01*
X-8467920Y+6858840D02*
X-8467920Y+6731840D01*
X-8531420Y+6223840D02*
X-8404420Y+6223840D01*
X-8404420Y+6731840D01*
X-8531420Y+6731840D01*
X-8531420Y+6223840D01*
X-8467920Y+6223840D02*
X-8467920Y+6096840D01*
X-8397740Y+6317820D02*
X-8473940Y+6317820D01*
X-8473940Y+6384495D01*
X-8461240Y+6397830D01*
X-8448540Y+6397830D01*
X-8435840Y+6384495D01*
X-8435840Y+6317820D01*
X-8435840Y+6384495D02*
X-8423140Y+6397830D01*
X-8397740Y+6397830D01*
X-8461240Y+6437835D02*
X-8473940Y+6451170D01*
X-8473940Y+6491175D01*
X-8461240Y+6504510D01*
X-8448540Y+6504510D01*
X-8435840Y+6491175D01*
X-8423140Y+6504510D01*
X-8410440Y+6504510D01*
X-8397740Y+6491175D01*
X-8397740Y+6451170D01*
X-8410440Y+6437835D01*
X-8435840Y+6464505D02*
X-8435840Y+6491175D01*
X-8410440Y+6531180D02*
X-8461240Y+6531180D01*
X-8473940Y+6544515D01*
X-8473940Y+6597855D01*
X-8461240Y+6611190D01*
X-8410440Y+6611190D01*
X-8397740Y+6597855D01*
X-8397740Y+6544515D01*
X-8410440Y+6531180D01*
X-8397740Y+6531180D02*
X-8473940Y+6611190D01*
X-1254000Y-2531000D02*
X-492000Y-2531000D01*
X-492000Y-1896000D01*
X-1254000Y-1896000D01*
X-1254000Y-2531000D01*
X-492000Y-2404000D02*
X-1254000Y-2404000D01*
X-979680Y-2462280D02*
X-979680Y-2474980D01*
X-966345Y-2487680D01*
X-913005Y-2487680D01*
X-899670Y-2474980D01*
X-899670Y-2411480D01*
X-859665Y-2424180D02*
X-846330Y-2411480D01*
X-806325Y-2411480D01*
X-792990Y-2424180D01*
X-792990Y-2436880D01*
X-806325Y-2449580D01*
X-846330Y-2449580D01*
X-859665Y-2462280D01*
X-859665Y-2487680D01*
X-792990Y-2487680D01*
X+250000Y-689000D02*
X+250000Y-562000D01*
X+186500Y-562000D02*
X+313500Y-562000D01*
X+313500Y-54000D01*
X+186500Y-54000D01*
X+186500Y-562000D01*
X+250000Y-54000D02*
X+250000Y+73000D01*
X+256020Y-414680D02*
X+179820Y-414680D01*
X+179820Y-348005D01*
X+192520Y-334670D01*
X+205220Y-334670D01*
X+217920Y-348005D01*
X+217920Y-414680D01*
X+217920Y-348005D02*
X+230620Y-334670D01*
X+256020Y-334670D01*
X+205220Y-281330D02*
X+179820Y-254660D01*
X+256020Y-254660D01*
X-584799Y-439799D02*
X-585626Y-419316D01*
X-592344Y-378349D01*
X-606362Y-337382D01*
X-629140Y-296415D01*
X-663940Y-255570D01*
X-704907Y-223954D01*
X-745874Y-203407D01*
X-786841Y-191170D01*
X-827808Y-186037D01*
X-838799Y-185799D01*
X-1092799Y-439799D02*
X-1091972Y-419316D01*
X-1085254Y-378349D01*
X-1071236Y-337382D01*
X-1048458Y-296415D01*
X-1013658Y-255570D01*
X-972691Y-223954D01*
X-931724Y-203407D01*
X-890757Y-191170D01*
X-849790Y-186037D01*
X-838799Y-185799D01*
X-1092799Y-439799D02*
X-1091972Y-460282D01*
X-1085254Y-501249D01*
X-1071236Y-542216D01*
X-1048458Y-583183D01*
X-1013658Y-624028D01*
X-972691Y-655644D01*
X-931724Y-676191D01*
X-890757Y-688428D01*
X-849790Y-693561D01*
X-838799Y-693799D01*
X-584799Y-439799D02*
X-585626Y-460282D01*
X-592344Y-501249D01*
X-606362Y-542216D01*
X-629140Y-583183D01*
X-663940Y-624028D01*
X-704907Y-655644D01*
X-745874Y-676191D01*
X-786841Y-688428D01*
X-827808Y-693561D01*
X-838799Y-693799D01*
X-1156299Y-185799D02*
X-1029299Y-185799D01*
X-1092799Y-122299D02*
X-1092799Y-249299D01*
X-977229Y-641819D02*
X-977229Y-565619D01*
X-923889Y-565619D01*
X-897219Y-591019D01*
X-897219Y-616419D01*
X-923889Y-641819D01*
X-977229Y-641819D01*
X-843879Y-591019D02*
X-817209Y-565619D01*
X-817209Y-641819D01*
X-160000Y-2266000D02*
X+2340000Y-2266000D01*
X+2340000Y-1966000D01*
X-160000Y-1966000D01*
X-160000Y-2266000D01*
X+929980Y-1935520D02*
X+929980Y-1859320D01*
X+1009990Y-1859320D01*
X+929980Y-1897420D02*
X+983320Y-1897420D01*
X+1036660Y-1859320D02*
X+1036660Y-1922820D01*
X+1049995Y-1935520D01*
X+1103335Y-1935520D01*
X+1116670Y-1922820D01*
X+1116670Y-1859320D01*
X+1170010Y-1884720D02*
X+1196680Y-1859320D01*
X+1196680Y-1935520D01*
X+1250000Y-689000D02*
X+1250000Y-562000D01*
X+1186500Y-562000D02*
X+1313500Y-562000D01*
X+1313500Y-54000D01*
X+1186500Y-54000D01*
X+1186500Y-562000D01*
X+1250000Y-54000D02*
X+1250000Y+73000D01*
X+1256020Y-414680D02*
X+1179820Y-414680D01*
X+1179820Y-348005D01*
X+1192520Y-334670D01*
X+1205220Y-334670D01*
X+1217920Y-348005D01*
X+1217920Y-414680D01*
X+1217920Y-348005D02*
X+1230620Y-334670D01*
X+1256020Y-334670D01*
X+1192520Y-294665D02*
X+1179820Y-281330D01*
X+1179820Y-241325D01*
X+1192520Y-227990D01*
X+1205220Y-227990D01*
X+1217920Y-241325D01*
X+1217920Y-281330D01*
X+1230620Y-294665D01*
X+1256020Y-294665D01*
X+1256020Y-227990D01*
X+1000000Y-689000D02*
X+1000000Y-562000D01*
X+936500Y-562000D02*
X+1063500Y-562000D01*
X+1063500Y-54000D01*
X+936500Y-54000D01*
X+936500Y-562000D01*
X+1000000Y-54000D02*
X+1000000Y+73000D01*
X+1006020Y-414680D02*
X+929820Y-414680D01*
X+929820Y-348005D01*
X+942520Y-334670D01*
X+955220Y-334670D01*
X+967920Y-348005D01*
X+967920Y-414680D01*
X+967920Y-348005D02*
X+980620Y-334670D01*
X+1006020Y-334670D01*
X+942520Y-294665D02*
X+929820Y-281330D01*
X+929820Y-241325D01*
X+942520Y-227990D01*
X+955220Y-227990D01*
X+967920Y-241325D01*
X+980620Y-227990D01*
X+993320Y-227990D01*
X+1006020Y-241325D01*
X+1006020Y-281330D01*
X+993320Y-294665D01*
X+967920Y-267995D02*
X+967920Y-241325D01*
X+750000Y+73000D02*
X+750000Y-54000D01*
X+686500Y-562000D02*
X+813500Y-562000D01*
X+813500Y-54000D01*
X+686500Y-54000D01*
X+686500Y-562000D01*
X+750000Y-562000D02*
X+750000Y-689000D01*
X+770180Y-414680D02*
X+693980Y-414680D01*
X+693980Y-348005D01*
X+706680Y-334670D01*
X+719380Y-334670D01*
X+732080Y-348005D01*
X+732080Y-414680D01*
X+732080Y-348005D02*
X+744780Y-334670D01*
X+770180Y-334670D01*
X+744780Y-227990D02*
X+744780Y-308000D01*
X+693980Y-254660D01*
X+770180Y-254660D01*
X+500000Y-689000D02*
X+500000Y-562000D01*
X+436500Y-562000D02*
X+563500Y-562000D01*
X+563500Y-54000D01*
X+436500Y-54000D01*
X+436500Y-562000D01*
X+500000Y-54000D02*
X+500000Y+73000D01*
X+506020Y-414680D02*
X+429820Y-414680D01*
X+429820Y-348005D01*
X+442520Y-334670D01*
X+455220Y-334670D01*
X+467920Y-348005D01*
X+467920Y-414680D01*
X+467920Y-348005D02*
X+480620Y-334670D01*
X+506020Y-334670D01*
X+429820Y-227990D02*
X+429820Y-294665D01*
X+455220Y-294665D01*
X+455220Y-241325D01*
X+467920Y-227990D01*
X+493320Y-227990D01*
X+506020Y-241325D01*
X+506020Y-281330D01*
X+493320Y-294665D01*
X+200000Y+1181000D02*
X+225876Y+1175920D01*
X+249848Y+1161315D01*
X+271438Y+1138138D01*
X+290170Y+1107340D01*
X+305569Y+1069875D01*
X+317158Y+1026695D01*
X+324460Y+978752D01*
X+327000Y+927000D01*
X+200000Y+673000D02*
X+225876Y+678080D01*
X+249848Y+692685D01*
X+271438Y+715862D01*
X+290170Y+746660D01*
X+305569Y+784125D01*
X+317158Y+827305D01*
X+324460Y+875248D01*
X+327000Y+927000D01*
X+200000Y+1181000D02*
X+174124Y+1175920D01*
X+150152Y+1161315D01*
X+128562Y+1138138D01*
X+109830Y+1107340D01*
X+94431Y+1069875D01*
X+82842Y+1026695D01*
X+75540Y+978752D01*
X+73000Y+927000D01*
X+200000Y+673000D02*
X+174124Y+678080D01*
X+150152Y+692685D01*
X+128562Y+715862D01*
X+109830Y+746660D01*
X+94431Y+784125D01*
X+82842Y+827305D01*
X+75540Y+875248D01*
X+73000Y+927000D01*
X+196330Y+1220180D02*
X+182995Y+1207480D01*
X+142990Y+1207480D01*
X+116320Y+1232880D01*
X+116320Y+1258280D01*
X+142990Y+1283680D01*
X+182995Y+1283680D01*
X+196330Y+1270980D01*
X+249670Y+1258280D02*
X+276340Y+1283680D01*
X+276340Y+1207480D01*
X+1459500Y-675500D02*
X+1840500Y-675500D01*
X+1840500Y+213500D01*
X+1459500Y+213500D01*
X+1459500Y-675500D01*
X+1840500Y-485000D02*
X+1459500Y-485000D01*
X+1650000Y-739000D02*
X+1650000Y-675500D01*
X+1650000Y+277000D02*
X+1650000Y+213500D01*
X+1528320Y-625020D02*
X+1528320Y-548820D01*
X+1581660Y-548820D01*
X+1608330Y-574220D01*
X+1608330Y-599620D01*
X+1581660Y-625020D01*
X+1528320Y-625020D01*
X+1648335Y-561520D02*
X+1661670Y-548820D01*
X+1701675Y-548820D01*
X+1715010Y-561520D01*
X+1715010Y-574220D01*
X+1701675Y-586920D01*
X+1661670Y-586920D01*
X+1648335Y-599620D01*
X+1648335Y-625020D01*
X+1715010Y-625020D01*
X+1929500Y-675500D02*
X+2310500Y-675500D01*
X+2310500Y+213500D01*
X+1929500Y+213500D01*
X+1929500Y-675500D01*
X+1929500Y+23000D02*
X+2310500Y+23000D01*
X+2120000Y+277000D02*
X+2120000Y+213500D01*
X+2120000Y-739000D02*
X+2120000Y-675500D01*
X+2018320Y+86820D02*
X+2018320Y+163020D01*
X+2071660Y+163020D01*
X+2098330Y+137620D01*
X+2098330Y+112220D01*
X+2071660Y+86820D01*
X+2018320Y+86820D01*
X+2138335Y+150320D02*
X+2151670Y+163020D01*
X+2191675Y+163020D01*
X+2205010Y+150320D01*
X+2205010Y+137620D01*
X+2191675Y+124920D01*
X+2205010Y+112220D01*
X+2205010Y+99520D01*
X+2191675Y+86820D01*
X+2151670Y+86820D01*
X+2138335Y+99520D01*
X+2165005Y+124920D02*
X+2191675Y+124920D01*
X+1650000Y+669000D02*
X+1624124Y+674080D01*
X+1600152Y+688685D01*
X+1578562Y+711862D01*
X+1559830Y+742660D01*
X+1544431Y+780125D01*
X+1532842Y+823305D01*
X+1525540Y+871248D01*
X+1523000Y+923000D01*
X+1650000Y+1177000D02*
X+1624124Y+1171920D01*
X+1600152Y+1157315D01*
X+1578562Y+1134138D01*
X+1559830Y+1103340D01*
X+1544431Y+1065875D01*
X+1532842Y+1022695D01*
X+1525540Y+974752D01*
X+1523000Y+923000D01*
X+1650000Y+669000D02*
X+1675876Y+674080D01*
X+1699848Y+688685D01*
X+1721438Y+711862D01*
X+1740170Y+742660D01*
X+1755569Y+780125D01*
X+1767158Y+823305D01*
X+1774460Y+871248D01*
X+1777000Y+923000D01*
X+1650000Y+1177000D02*
X+1675876Y+1171920D01*
X+1699848Y+1157315D01*
X+1721438Y+1134138D01*
X+1740170Y+1103340D01*
X+1755569Y+1065875D01*
X+1767158Y+1022695D01*
X+1774460Y+974752D01*
X+1777000Y+923000D01*
X+1596330Y+575020D02*
X+1582995Y+562320D01*
X+1542990Y+562320D01*
X+1516320Y+587720D01*
X+1516320Y+613120D01*
X+1542990Y+638520D01*
X+1582995Y+638520D01*
X+1596330Y+625820D01*
X+1636335Y+625820D02*
X+1649670Y+638520D01*
X+1689675Y+638520D01*
X+1703010Y+625820D01*
X+1703010Y+613120D01*
X+1689675Y+600420D01*
X+1649670Y+600420D01*
X+1636335Y+587720D01*
X+1636335Y+562320D01*
X+1703010Y+562320D01*
X+1250000Y+567000D02*
X+1250000Y+694000D01*
X+1186500Y+694000D02*
X+1313500Y+694000D01*
X+1313500Y+1202000D01*
X+1186500Y+1202000D01*
X+1186500Y+694000D01*
X+1250000Y+1202000D02*
X+1250000Y+1329000D01*
X+1306020Y+841320D02*
X+1229820Y+841320D01*
X+1229820Y+907995D01*
X+1242520Y+921330D01*
X+1255220Y+921330D01*
X+1267920Y+907995D01*
X+1267920Y+841320D01*
X+1267920Y+907995D02*
X+1280620Y+921330D01*
X+1306020Y+921330D01*
X+1242520Y+1028010D02*
X+1229820Y+1014675D01*
X+1229820Y+974670D01*
X+1242520Y+961335D01*
X+1293320Y+961335D01*
X+1306020Y+974670D01*
X+1306020Y+1014675D01*
X+1293320Y+1028010D01*
X+1280620Y+1028010D01*
X+1267920Y+1014675D01*
X+1267920Y+961335D01*
X+1000000Y+567000D02*
X+1000000Y+694000D01*
X+936500Y+694000D02*
X+1063500Y+694000D01*
X+1063500Y+1202000D01*
X+936500Y+1202000D01*
X+936500Y+694000D01*
X+1000000Y+1202000D02*
X+1000000Y+1329000D01*
X+1056020Y+841320D02*
X+979820Y+841320D01*
X+979820Y+907995D01*
X+992520Y+921330D01*
X+1005220Y+921330D01*
X+1017920Y+907995D01*
X+1017920Y+841320D01*
X+1017920Y+907995D02*
X+1030620Y+921330D01*
X+1056020Y+921330D01*
X+979820Y+961335D02*
X+979820Y+1028010D01*
X+992520Y+1028010D01*
X+1056020Y+961335D01*
X+750000Y+567000D02*
X+750000Y+694000D01*
X+686500Y+694000D02*
X+813500Y+694000D01*
X+813500Y+1202000D01*
X+686500Y+1202000D01*
X+686500Y+694000D01*
X+750000Y+1202000D02*
X+750000Y+1329000D01*
X+806020Y+841320D02*
X+729820Y+841320D01*
X+729820Y+907995D01*
X+742520Y+921330D01*
X+755220Y+921330D01*
X+767920Y+907995D01*
X+767920Y+841320D01*
X+767920Y+907995D02*
X+780620Y+921330D01*
X+806020Y+921330D01*
X+767920Y+974670D02*
X+755220Y+961335D01*
X+742520Y+961335D01*
X+729820Y+974670D01*
X+729820Y+1014675D01*
X+742520Y+1028010D01*
X+755220Y+1028010D01*
X+767920Y+1014675D01*
X+767920Y+974670D01*
X+780620Y+961335D01*
X+793320Y+961335D01*
X+806020Y+974670D01*
X+806020Y+1014675D01*
X+793320Y+1028010D01*
X+780620Y+1028010D01*
X+767920Y+1014675D01*
X+2481000Y+950000D02*
X+2480173Y+970483D01*
X+2473455Y+1011450D01*
X+2459437Y+1052417D01*
X+2436659Y+1093384D01*
X+2401859Y+1134229D01*
X+2360892Y+1165845D01*
X+2319925Y+1186392D01*
X+2278958Y+1198629D01*
X+2237991Y+1203762D01*
X+2227000Y+1204000D01*
X+1973000Y+950000D02*
X+1973827Y+970483D01*
X+1980545Y+1011450D01*
X+1994563Y+1052417D01*
X+2017341Y+1093384D01*
X+2052141Y+1134229D01*
X+2093108Y+1165845D01*
X+2134075Y+1186392D01*
X+2175042Y+1198629D01*
X+2216009Y+1203762D01*
X+2227000Y+1204000D01*
X+1973000Y+950000D02*
X+1973827Y+929517D01*
X+1980545Y+888550D01*
X+1994563Y+847583D01*
X+2017341Y+806616D01*
X+2052141Y+765771D01*
X+2093108Y+734155D01*
X+2134075Y+713608D01*
X+2175042Y+701371D01*
X+2216009Y+696238D01*
X+2227000Y+696000D01*
X+2481000Y+950000D02*
X+2480173Y+929517D01*
X+2473455Y+888550D01*
X+2459437Y+847583D01*
X+2436659Y+806616D01*
X+2401859Y+765771D01*
X+2360892Y+734155D01*
X+2319925Y+713608D01*
X+2278958Y+701371D01*
X+2237991Y+696238D01*
X+2227000Y+696000D01*
X+2036500Y+1077000D02*
X+2163500Y+1077000D01*
X+2100000Y+1140500D02*
X+2100000Y+1013500D01*
X+2199410Y+747180D02*
X+2186075Y+734480D01*
X+2146070Y+734480D01*
X+2119400Y+759880D01*
X+2119400Y+785280D01*
X+2146070Y+810680D01*
X+2186075Y+810680D01*
X+2199410Y+797980D01*
X+2239415Y+797980D02*
X+2252750Y+810680D01*
X+2292755Y+810680D01*
X+2306090Y+797980D01*
X+2306090Y+785280D01*
X+2292755Y+772580D01*
X+2306090Y+759880D01*
X+2306090Y+747180D01*
X+2292755Y+734480D01*
X+2252750Y+734480D01*
X+2239415Y+747180D01*
X+2266085Y+772580D02*
X+2292755Y+772580D01*
X+415394Y+756334D02*
X+598274Y+756334D01*
X+598274Y+1137334D01*
X+415394Y+1137334D01*
X+415394Y+756334D01*
X+595734Y+1073834D02*
X+417934Y+1073834D01*
X+506834Y+756334D02*
X+506834Y+591234D01*
X+506834Y+1137334D02*
X+506834Y+1302434D01*
X+554954Y+865554D02*
X+478754Y+865554D01*
X+478754Y+906194D01*
X+504154Y+926514D01*
X+529554Y+926514D01*
X+554954Y+906194D01*
X+554954Y+865554D01*
X+529554Y+1007794D02*
X+529554Y+946834D01*
X+478754Y+987474D01*
X+554954Y+987474D01*
X-523000Y+950000D02*
X-523827Y+970483D01*
X-530545Y+1011450D01*
X-544563Y+1052417D01*
X-567341Y+1093384D01*
X-602141Y+1134229D01*
X-643108Y+1165845D01*
X-684075Y+1186392D01*
X-725042Y+1198629D01*
X-766009Y+1203762D01*
X-777000Y+1204000D01*
X-1031000Y+950000D02*
X-1030173Y+970483D01*
X-1023455Y+1011450D01*
X-1009437Y+1052417D01*
X-986659Y+1093384D01*
X-951859Y+1134229D01*
X-910892Y+1165845D01*
X-869925Y+1186392D01*
X-828958Y+1198629D01*
X-787991Y+1203762D01*
X-777000Y+1204000D01*
X-1031000Y+950000D02*
X-1030173Y+929517D01*
X-1023455Y+888550D01*
X-1009437Y+847583D01*
X-986659Y+806616D01*
X-951859Y+765771D01*
X-910892Y+734155D01*
X-869925Y+713608D01*
X-828958Y+701371D01*
X-787991Y+696238D01*
X-777000Y+696000D01*
X-523000Y+950000D02*
X-523827Y+929517D01*
X-530545Y+888550D01*
X-544563Y+847583D01*
X-567341Y+806616D01*
X-602141Y+765771D01*
X-643108Y+734155D01*
X-684075Y+713608D01*
X-725042Y+701371D01*
X-766009Y+696238D01*
X-777000Y+696000D01*
X-967500Y+1077000D02*
X-840500Y+1077000D01*
X-904000Y+1140500D02*
X-904000Y+1013500D01*
X-804590Y+1247180D02*
X-817925Y+1234480D01*
X-857930Y+1234480D01*
X-884600Y+1259880D01*
X-884600Y+1285280D01*
X-857930Y+1310680D01*
X-817925Y+1310680D01*
X-804590Y+1297980D01*
X-697910Y+1259880D02*
X-777920Y+1259880D01*
X-724580Y+1310680D01*
X-724580Y+1234480D01*
X-518166Y+1473166D02*
X-523246Y+1447290D01*
X-537851Y+1423318D01*
X-561028Y+1401728D01*
X-591826Y+1382996D01*
X-629291Y+1367597D01*
X-672471Y+1356008D01*
X-720414Y+1348706D01*
X-772166Y+1346166D01*
X-1026166Y+1473166D02*
X-1021086Y+1447290D01*
X-1006481Y+1423318D01*
X-983304Y+1401728D01*
X-952506Y+1382996D01*
X-915041Y+1367597D01*
X-871861Y+1356008D01*
X-823918Y+1348706D01*
X-772166Y+1346166D01*
X-518166Y+1473166D02*
X-523246Y+1499042D01*
X-537851Y+1523014D01*
X-561028Y+1544604D01*
X-591826Y+1563336D01*
X-629291Y+1578735D01*
X-672471Y+1590324D01*
X-720414Y+1597626D01*
X-772166Y+1600166D01*
X-1026166Y+1473166D02*
X-1021086Y+1499042D01*
X-1006481Y+1523014D01*
X-983304Y+1544604D01*
X-952506Y+1563336D01*
X-915041Y+1578735D01*
X-871861Y+1590324D01*
X-823918Y+1597626D01*
X-772166Y+1600166D01*
X-798836Y+1602186D02*
X-812171Y+1589486D01*
X-852176Y+1589486D01*
X-878846Y+1614886D01*
X-878846Y+1640286D01*
X-852176Y+1665686D01*
X-812171Y+1665686D01*
X-798836Y+1652986D01*
X-692156Y+1665686D02*
X-758831Y+1665686D01*
X-758831Y+1640286D01*
X-705491Y+1640286D01*
X-692156Y+1627586D01*
X-692156Y+1602186D01*
X-705491Y+1589486D01*
X-745496Y+1589486D01*
X-758831Y+1602186D01*
X-3297000Y+458000D02*
X-3297000Y+585000D01*
X-3297000Y+77000D02*
X-3297000Y+204000D01*
X-3170000Y+331000D02*
X-3172436Y+356876D01*
X-3179485Y+380848D01*
X-3190762Y+402438D01*
X-3205878Y+421170D01*
X-3224446Y+436569D01*
X-3246081Y+448158D01*
X-3270394Y+455460D01*
X-3297000Y+458000D01*
X-3170000Y+331000D02*
X-3172436Y+304394D01*
X-3179485Y+280081D01*
X-3190762Y+258446D01*
X-3205878Y+239878D01*
X-3224446Y+224762D01*
X-3246081Y+213485D01*
X-3270394Y+206436D01*
X-3297000Y+204000D01*
X-3297000Y+77000D02*
X-1519000Y+77000D01*
X-1519000Y+585000D01*
X-3297000Y+585000D01*
X-3403680Y+224320D02*
X-3340180Y+224320D01*
X-3327480Y+237655D01*
X-3327480Y+290995D01*
X-3340180Y+304330D01*
X-3403680Y+304330D01*
X-3378280Y+357670D02*
X-3403680Y+384340D01*
X-3327480Y+384340D01*
X-350000Y+1329000D02*
X-350000Y+1202000D01*
X-413500Y+694000D02*
X-286500Y+694000D01*
X-286500Y+1202000D01*
X-413500Y+1202000D01*
X-413500Y+694000D01*
X-350000Y+694000D02*
X-350000Y+567000D01*
X-329820Y+815920D02*
X-406020Y+815920D01*
X-406020Y+898470D01*
X-393320Y+914980D01*
X-380620Y+914980D01*
X-367920Y+898470D01*
X-367920Y+815920D01*
X-367920Y+898470D02*
X-355220Y+914980D01*
X-329820Y+914980D01*
X-380620Y+1047060D02*
X-367920Y+1030550D01*
X-367920Y+981020D01*
X-380620Y+964510D01*
X-393320Y+964510D01*
X-406020Y+981020D01*
X-406020Y+1030550D01*
X-393320Y+1047060D01*
X-342520Y+1047060D01*
X-329820Y+1030550D01*
X-329820Y+981020D01*
X-100000Y+1323000D02*
X-100000Y+1196000D01*
X-163500Y+688000D02*
X-36500Y+688000D01*
X-36500Y+1196000D01*
X-163500Y+1196000D01*
X-163500Y+688000D01*
X-100000Y+688000D02*
X-100000Y+561000D01*
X-79820Y+781980D02*
X-156020Y+781980D01*
X-156020Y+848655D01*
X-143320Y+861990D01*
X-130620Y+861990D01*
X-117920Y+848655D01*
X-117920Y+781980D01*
X-117920Y+848655D02*
X-105220Y+861990D01*
X-79820Y+861990D01*
X-130620Y+915330D02*
X-156020Y+942000D01*
X-79820Y+942000D01*
X-92520Y+995340D02*
X-143320Y+995340D01*
X-156020Y+1008675D01*
X-156020Y+1062015D01*
X-143320Y+1075350D01*
X-92520Y+1075350D01*
X-79820Y+1062015D01*
X-79820Y+1008675D01*
X-92520Y+995340D01*
X-79820Y+995340D02*
X-156020Y+1075350D01*
X-2681000Y-550000D02*
X-2675920Y-524124D01*
X-2661315Y-500152D01*
X-2638138Y-478562D01*
X-2607340Y-459830D01*
X-2569875Y-444431D01*
X-2526695Y-432842D01*
X-2478752Y-425540D01*
X-2427000Y-423000D01*
X-2173000Y-550000D02*
X-2178080Y-524124D01*
X-2192685Y-500152D01*
X-2215862Y-478562D01*
X-2246660Y-459830D01*
X-2284125Y-444431D01*
X-2327305Y-432842D01*
X-2375248Y-425540D01*
X-2427000Y-423000D01*
X-2681000Y-550000D02*
X-2675920Y-575876D01*
X-2661315Y-599848D01*
X-2638138Y-621438D01*
X-2607340Y-640170D01*
X-2569875Y-655569D01*
X-2526695Y-667158D01*
X-2478752Y-674460D01*
X-2427000Y-677000D01*
X-2173000Y-550000D02*
X-2178080Y-575876D01*
X-2192685Y-599848D01*
X-2215862Y-621438D01*
X-2246660Y-640170D01*
X-2284125Y-655569D01*
X-2327305Y-667158D01*
X-2375248Y-674460D01*
X-2427000Y-677000D01*
X-2476670Y-729820D02*
X-2490005Y-742520D01*
X-2530010Y-742520D01*
X-2556680Y-717120D01*
X-2556680Y-691720D01*
X-2530010Y-666320D01*
X-2490005Y-666320D01*
X-2476670Y-679020D01*
X-2369990Y-679020D02*
X-2383325Y-666320D01*
X-2423330Y-666320D01*
X-2436665Y-679020D01*
X-2436665Y-729820D01*
X-2423330Y-742520D01*
X-2383325Y-742520D01*
X-2369990Y-729820D01*
X-2369990Y-717120D01*
X-2383325Y-704420D01*
X-2436665Y-704420D01*
X-2789000Y-300000D02*
X-2662000Y-300000D01*
X-2662000Y-363500D02*
X-2154000Y-363500D01*
X-2154000Y-236500D01*
X-2662000Y-236500D01*
X-2662000Y-363500D01*
X-2154000Y-300000D02*
X-2027000Y-300000D01*
X-2568020Y-356020D02*
X-2568020Y-279820D01*
X-2501345Y-279820D01*
X-2488010Y-292520D01*
X-2488010Y-305220D01*
X-2501345Y-317920D01*
X-2568020Y-317920D01*
X-2501345Y-317920D02*
X-2488010Y-330620D01*
X-2488010Y-356020D01*
X-2434670Y-305220D02*
X-2408000Y-279820D01*
X-2408000Y-356020D01*
X-2341325Y-292520D02*
X-2327990Y-279820D01*
X-2287985Y-279820D01*
X-2274650Y-292520D01*
X-2274650Y-305220D01*
X-2287985Y-317920D01*
X-2327990Y-317920D01*
X-2341325Y-330620D01*
X-2341325Y-356020D01*
X-2274650Y-356020D01*
X-3840500Y-98500D02*
X-3459500Y-98500D01*
X-3459500Y+790500D01*
X-3840500Y+790500D01*
X-3840500Y-98500D01*
X-3624600Y+28500D02*
X-3624902Y+35822D01*
X-3627357Y+50467D01*
X-3632489Y+65112D01*
X-3640864Y+79757D01*
X-3653678Y+94261D01*
X-3668323Y+105065D01*
X-3682968Y+111993D01*
X-3697613Y+115969D01*
X-3712258Y+117391D01*
X-3713500Y+117400D01*
X-3802400Y+28500D02*
X-3802098Y+35822D01*
X-3799643Y+50467D01*
X-3794511Y+65112D01*
X-3786136Y+79757D01*
X-3773322Y+94261D01*
X-3758677Y+105065D01*
X-3744032Y+111993D01*
X-3729387Y+115969D01*
X-3714742Y+117391D01*
X-3713500Y+117400D01*
X-3802400Y+28500D02*
X-3802098Y+21178D01*
X-3799643Y+6533D01*
X-3794511Y-8112D01*
X-3786136Y-22757D01*
X-3773322Y-37261D01*
X-3758677Y-48065D01*
X-3744032Y-54993D01*
X-3729387Y-58969D01*
X-3714742Y-60391D01*
X-3713500Y-60400D01*
X-3624600Y+28500D02*
X-3624902Y+21178D01*
X-3627357Y+6533D01*
X-3632489Y-8112D01*
X-3640864Y-22757D01*
X-3653678Y-37261D01*
X-3668323Y-48065D01*
X-3682968Y-54993D01*
X-3697613Y-58969D01*
X-3712258Y-60391D01*
X-3713500Y-60400D01*
X-3650000Y-35000D02*
X-3777000Y+92000D01*
X-3870980Y+185980D02*
X-3947180Y+185980D01*
X-3947180Y+252655D01*
X-3934480Y+265990D01*
X-3921780Y+265990D01*
X-3909080Y+252655D01*
X-3909080Y+185980D01*
X-3909080Y+252655D02*
X-3896380Y+265990D01*
X-3870980Y+265990D01*
X-3947180Y+292660D02*
X-3909080Y+292660D01*
X-3870980Y+332665D01*
X-3909080Y+372670D01*
X-3947180Y+372670D01*
X-3934480Y+412675D02*
X-3947180Y+426010D01*
X-3947180Y+466015D01*
X-3934480Y+479350D01*
X-3921780Y+479350D01*
X-3909080Y+466015D01*
X-3909080Y+426010D01*
X-3896380Y+412675D01*
X-3870980Y+412675D01*
X-3870980Y+479350D01*
X-1750000Y+1127000D02*
X-1750000Y+1254000D01*
X-1813500Y+1254000D02*
X-1686500Y+1254000D01*
X-1686500Y+1762000D01*
X-1813500Y+1762000D01*
X-1813500Y+1254000D01*
X-1750000Y+1762000D02*
X-1750000Y+1889000D01*
X-1743980Y+1347980D02*
X-1820180Y+1347980D01*
X-1820180Y+1414655D01*
X-1807480Y+1427990D01*
X-1794780Y+1427990D01*
X-1782080Y+1414655D01*
X-1782080Y+1347980D01*
X-1782080Y+1414655D02*
X-1769380Y+1427990D01*
X-1743980Y+1427990D01*
X-1794780Y+1481330D02*
X-1820180Y+1508000D01*
X-1743980Y+1508000D01*
X-1794780Y+1588010D02*
X-1820180Y+1614680D01*
X-1743980Y+1614680D01*
X-2121440Y+1321500D02*
X-1938560Y+1321500D01*
X-1938560Y+1702500D01*
X-2121440Y+1702500D01*
X-2121440Y+1321500D01*
X-2118900Y+1385000D02*
X-1941100Y+1385000D01*
X-2030000Y+1702500D02*
X-2030000Y+1867600D01*
X-2030000Y+1321500D02*
X-2030000Y+1156400D01*
X-2001920Y+1405320D02*
X-2078120Y+1405320D01*
X-2078120Y+1458660D01*
X-2052720Y+1485330D01*
X-2027320Y+1485330D01*
X-2001920Y+1458660D01*
X-2001920Y+1405320D01*
X-2078120Y+1592010D02*
X-2078120Y+1525335D01*
X-2052720Y+1525335D01*
X-2052720Y+1578675D01*
X-2040020Y+1592010D01*
X-2014620Y+1592010D01*
X-2001920Y+1578675D01*
X-2001920Y+1538670D01*
X-2014620Y+1525335D01*
X-2800000Y+1127000D02*
X-2800000Y+1254000D01*
X-2863500Y+1254000D02*
X-2736500Y+1254000D01*
X-2736500Y+1762000D01*
X-2863500Y+1762000D01*
X-2863500Y+1254000D01*
X-2800000Y+1762000D02*
X-2800000Y+1889000D01*
X-2793980Y+1347980D02*
X-2870180Y+1347980D01*
X-2870180Y+1414655D01*
X-2857480Y+1427990D01*
X-2844780Y+1427990D01*
X-2832080Y+1414655D01*
X-2832080Y+1347980D01*
X-2832080Y+1414655D02*
X-2819380Y+1427990D01*
X-2793980Y+1427990D01*
X-2844780Y+1481330D02*
X-2870180Y+1508000D01*
X-2793980Y+1508000D01*
X-2857480Y+1574675D02*
X-2870180Y+1588010D01*
X-2870180Y+1628015D01*
X-2857480Y+1641350D01*
X-2844780Y+1641350D01*
X-2832080Y+1628015D01*
X-2819380Y+1641350D01*
X-2806680Y+1641350D01*
X-2793980Y+1628015D01*
X-2793980Y+1588010D01*
X-2806680Y+1574675D01*
X-2832080Y+1601345D02*
X-2832080Y+1628015D01*
X-2591440Y+1317500D02*
X-2408560Y+1317500D01*
X-2408560Y+1698500D01*
X-2591440Y+1698500D01*
X-2591440Y+1317500D01*
X-2588900Y+1381000D02*
X-2411100Y+1381000D01*
X-2500000Y+1698500D02*
X-2500000Y+1863600D01*
X-2500000Y+1317500D02*
X-2500000Y+1152400D01*
X-2471920Y+1401320D02*
X-2548120Y+1401320D01*
X-2548120Y+1454660D01*
X-2522720Y+1481330D01*
X-2497320Y+1481330D01*
X-2471920Y+1454660D01*
X-2471920Y+1401320D01*
X-2535420Y+1588010D02*
X-2548120Y+1574675D01*
X-2548120Y+1534670D01*
X-2535420Y+1521335D01*
X-2484620Y+1521335D01*
X-2471920Y+1534670D01*
X-2471920Y+1574675D01*
X-2484620Y+1588010D01*
X-2497320Y+1588010D01*
X-2510020Y+1574675D01*
X-2510020Y+1521335D01*
X-2050000Y+2477000D02*
X-2050000Y+2604000D01*
X-2113500Y+2604000D02*
X-1986500Y+2604000D01*
X-1986500Y+3112000D01*
X-2113500Y+3112000D01*
X-2113500Y+2604000D01*
X-2050000Y+3112000D02*
X-2050000Y+3239000D01*
X-1993980Y+2674980D02*
X-2070180Y+2674980D01*
X-2070180Y+2741655D01*
X-2057480Y+2754990D01*
X-2044780Y+2754990D01*
X-2032080Y+2741655D01*
X-2032080Y+2674980D01*
X-2032080Y+2741655D02*
X-2019380Y+2754990D01*
X-1993980Y+2754990D01*
X-2044780Y+2808330D02*
X-2070180Y+2835000D01*
X-1993980Y+2835000D01*
X-2070180Y+2968350D02*
X-2070180Y+2901675D01*
X-2044780Y+2901675D01*
X-2044780Y+2955015D01*
X-2032080Y+2968350D01*
X-2006680Y+2968350D01*
X-1993980Y+2955015D01*
X-1993980Y+2915010D01*
X-2006680Y+2901675D01*
X-2850000Y+2477000D02*
X-2850000Y+2604000D01*
X-2913500Y+2604000D02*
X-2786500Y+2604000D01*
X-2786500Y+3112000D01*
X-2913500Y+3112000D01*
X-2913500Y+2604000D01*
X-2850000Y+3112000D02*
X-2850000Y+3239000D01*
X-2793980Y+2674980D02*
X-2870180Y+2674980D01*
X-2870180Y+2741655D01*
X-2857480Y+2754990D01*
X-2844780Y+2754990D01*
X-2832080Y+2741655D01*
X-2832080Y+2674980D01*
X-2832080Y+2741655D02*
X-2819380Y+2754990D01*
X-2793980Y+2754990D01*
X-2844780Y+2808330D02*
X-2870180Y+2835000D01*
X-2793980Y+2835000D01*
X-2819380Y+2968350D02*
X-2819380Y+2888340D01*
X-2870180Y+2941680D01*
X-2793980Y+2941680D01*
X-1773000Y+3682500D02*
X-1773000Y+4063500D01*
X-1900000Y+3631700D02*
X-1876312Y+3633883D01*
X-1853367Y+3639638D01*
X-1812688Y+3657100D01*
X-1773000Y+3682500D01*
X-1900000Y+3631700D02*
X-1951935Y+3632562D01*
X-1999963Y+3643954D01*
X-2043154Y+3664796D01*
X-2080578Y+3694009D01*
X-2111305Y+3730516D01*
X-2134404Y+3773236D01*
X-2148946Y+3821090D01*
X-2154000Y+3873000D01*
X-1900000Y+4114300D02*
X-1876312Y+4112117D01*
X-1853367Y+4106362D01*
X-1812688Y+4088900D01*
X-1773000Y+4063500D01*
X-1900000Y+4114300D02*
X-1951935Y+4113438D01*
X-1999963Y+4102046D01*
X-2043154Y+4081204D01*
X-2080578Y+4051991D01*
X-2111305Y+4015484D01*
X-2134404Y+3972764D01*
X-2148946Y+3924910D01*
X-2154000Y+3873000D01*
X-2169680Y+3766320D02*
X-2195080Y+3792990D01*
X-2195080Y+3819660D01*
X-2169680Y+3846330D01*
X-2144280Y+3846330D01*
X-2118880Y+3819660D01*
X-2118880Y+3792990D01*
X-2144280Y+3766320D01*
X-2169680Y+3766320D01*
X-2144280Y+3819660D02*
X-2118880Y+3846330D01*
X-2182380Y+3886335D02*
X-2195080Y+3899670D01*
X-2195080Y+3939675D01*
X-2182380Y+3953010D01*
X-2169680Y+3953010D01*
X-2156980Y+3939675D01*
X-2156980Y+3899670D01*
X-2144280Y+3886335D01*
X-2118880Y+3886335D01*
X-2118880Y+3953010D01*
X-1800000Y+2477000D02*
X-1800000Y+2604000D01*
X-1863500Y+2604000D02*
X-1736500Y+2604000D01*
X-1736500Y+3112000D01*
X-1863500Y+3112000D01*
X-1863500Y+2604000D01*
X-1800000Y+3112000D02*
X-1800000Y+3239000D01*
X-1743980Y+2647980D02*
X-1820180Y+2647980D01*
X-1820180Y+2714655D01*
X-1807480Y+2727990D01*
X-1794780Y+2727990D01*
X-1782080Y+2714655D01*
X-1782080Y+2647980D01*
X-1782080Y+2714655D02*
X-1769380Y+2727990D01*
X-1743980Y+2727990D01*
X-1794780Y+2781330D02*
X-1820180Y+2808000D01*
X-1743980Y+2808000D01*
X-1820180Y+2874675D02*
X-1820180Y+2941350D01*
X-1807480Y+2941350D01*
X-1743980Y+2874675D01*
X-2600000Y+2477000D02*
X-2600000Y+2604000D01*
X-2663500Y+2604000D02*
X-2536500Y+2604000D01*
X-2536500Y+3112000D01*
X-2663500Y+3112000D01*
X-2663500Y+2604000D01*
X-2600000Y+3112000D02*
X-2600000Y+3239000D01*
X-2543980Y+2697980D02*
X-2620180Y+2697980D01*
X-2620180Y+2764655D01*
X-2607480Y+2777990D01*
X-2594780Y+2777990D01*
X-2582080Y+2764655D01*
X-2582080Y+2697980D01*
X-2582080Y+2764655D02*
X-2569380Y+2777990D01*
X-2543980Y+2777990D01*
X-2594780Y+2831330D02*
X-2620180Y+2858000D01*
X-2543980Y+2858000D01*
X-2607480Y+2991350D02*
X-2620180Y+2978015D01*
X-2620180Y+2938010D01*
X-2607480Y+2924675D01*
X-2556680Y+2924675D01*
X-2543980Y+2938010D01*
X-2543980Y+2978015D01*
X-2556680Y+2991350D01*
X-2569380Y+2991350D01*
X-2582080Y+2978015D01*
X-2582080Y+2924675D01*
X-2473000Y+3682500D02*
X-2473000Y+4063500D01*
X-2600000Y+3631700D02*
X-2576312Y+3633883D01*
X-2553367Y+3639638D01*
X-2512688Y+3657100D01*
X-2473000Y+3682500D01*
X-2600000Y+3631700D02*
X-2651935Y+3632562D01*
X-2699963Y+3643954D01*
X-2743154Y+3664796D01*
X-2780578Y+3694009D01*
X-2811305Y+3730516D01*
X-2834404Y+3773236D01*
X-2848946Y+3821090D01*
X-2854000Y+3873000D01*
X-2600000Y+4114300D02*
X-2576312Y+4112117D01*
X-2553367Y+4106362D01*
X-2512688Y+4088900D01*
X-2473000Y+4063500D01*
X-2600000Y+4114300D02*
X-2651935Y+4113438D01*
X-2699963Y+4102046D01*
X-2743154Y+4081204D01*
X-2780578Y+4051991D01*
X-2811305Y+4015484D01*
X-2834404Y+3972764D01*
X-2848946Y+3924910D01*
X-2854000Y+3873000D01*
X-2863180Y+3759820D02*
X-2888580Y+3786490D01*
X-2888580Y+3813160D01*
X-2863180Y+3839830D01*
X-2837780Y+3839830D01*
X-2812380Y+3813160D01*
X-2812380Y+3786490D01*
X-2837780Y+3759820D01*
X-2863180Y+3759820D01*
X-2837780Y+3813160D02*
X-2812380Y+3839830D01*
X-2863180Y+3893170D02*
X-2888580Y+3919840D01*
X-2812380Y+3919840D01*
X-1477000Y+3623000D02*
X-1223000Y+3623000D01*
X-1223000Y+4385000D01*
X-1477000Y+4385000D01*
X-1477000Y+3623000D01*
X-1223000Y+4385000D02*
X-1096000Y+4385000D01*
X-1096000Y+3623000D01*
X-1223000Y+3623000D01*
X-1223000Y+4385000D02*
X-1096000Y+4258000D01*
X-1223000Y+4258000D02*
X-1096000Y+4131000D01*
X-1223000Y+4131000D02*
X-1096000Y+4004000D01*
X-1223000Y+4004000D02*
X-1096000Y+3877000D01*
X-1223000Y+3877000D02*
X-1096000Y+3750000D01*
X-1223000Y+3750000D02*
X-1096000Y+3623000D01*
X-1040120Y+3897320D02*
X-1065520Y+3923990D01*
X-1065520Y+3950660D01*
X-1040120Y+3977330D01*
X-1014720Y+3977330D01*
X-989320Y+3950660D01*
X-989320Y+3923990D01*
X-1014720Y+3897320D01*
X-1040120Y+3897320D01*
X-1014720Y+3950660D02*
X-989320Y+3977330D01*
X-1014720Y+4084010D02*
X-1014720Y+4004000D01*
X-1065520Y+4057340D01*
X-989320Y+4057340D01*
X-3377000Y+3565000D02*
X-3123000Y+3565000D01*
X-3123000Y+4327000D01*
X-3377000Y+4327000D01*
X-3377000Y+3565000D01*
X-3504000Y+3565000D01*
X-3504000Y+4327000D01*
X-3377000Y+4327000D01*
X-3377000Y+3565000D02*
X-3504000Y+3692000D01*
X-3377000Y+3692000D02*
X-3504000Y+3819000D01*
X-3377000Y+3819000D02*
X-3504000Y+3946000D01*
X-3377000Y+3946000D02*
X-3504000Y+4073000D01*
X-3377000Y+4073000D02*
X-3504000Y+4200000D01*
X-3377000Y+4200000D02*
X-3504000Y+4327000D01*
X-3035280Y+3839320D02*
X-3060680Y+3865990D01*
X-3060680Y+3892660D01*
X-3035280Y+3919330D01*
X-3009880Y+3919330D01*
X-2984480Y+3892660D01*
X-2984480Y+3865990D01*
X-3009880Y+3839320D01*
X-3035280Y+3839320D01*
X-3009880Y+3892660D02*
X-2984480Y+3919330D01*
X-3047980Y+3959335D02*
X-3060680Y+3972670D01*
X-3060680Y+4012675D01*
X-3047980Y+4026010D01*
X-3035280Y+4026010D01*
X-3022580Y+4012675D01*
X-3009880Y+4026010D01*
X-2997180Y+4026010D01*
X-2984480Y+4012675D01*
X-2984480Y+3972670D01*
X-2997180Y+3959335D01*
X-3022580Y+3986005D02*
X-3022580Y+4012675D01*
X-3100000Y+3223000D02*
X-3100000Y+3096000D01*
X-3163500Y+2588000D02*
X-3036500Y+2588000D01*
X-3036500Y+3096000D01*
X-3163500Y+3096000D01*
X-3163500Y+2588000D01*
X-3100000Y+2588000D02*
X-3100000Y+2461000D01*
X-3029820Y+2681980D02*
X-3106020Y+2681980D01*
X-3106020Y+2748655D01*
X-3093320Y+2761990D01*
X-3080620Y+2761990D01*
X-3067920Y+2748655D01*
X-3067920Y+2681980D01*
X-3067920Y+2748655D02*
X-3055220Y+2761990D01*
X-3029820Y+2761990D01*
X-3080620Y+2815330D02*
X-3106020Y+2842000D01*
X-3029820Y+2842000D01*
X-3067920Y+2922010D02*
X-3080620Y+2908675D01*
X-3093320Y+2908675D01*
X-3106020Y+2922010D01*
X-3106020Y+2962015D01*
X-3093320Y+2975350D01*
X-3080620Y+2975350D01*
X-3067920Y+2962015D01*
X-3067920Y+2922010D01*
X-3055220Y+2908675D01*
X-3042520Y+2908675D01*
X-3029820Y+2922010D01*
X-3029820Y+2962015D01*
X-3042520Y+2975350D01*
X-3055220Y+2975350D01*
X-3067920Y+2962015D01*
X-1500000Y+2461000D02*
X-1500000Y+2588000D01*
X-1563500Y+2588000D02*
X-1436500Y+2588000D01*
X-1436500Y+3096000D01*
X-1563500Y+3096000D01*
X-1563500Y+2588000D01*
X-1500000Y+3096000D02*
X-1500000Y+3223000D01*
X-1443980Y+2681980D02*
X-1520180Y+2681980D01*
X-1520180Y+2748655D01*
X-1507480Y+2761990D01*
X-1494780Y+2761990D01*
X-1482080Y+2748655D01*
X-1482080Y+2681980D01*
X-1482080Y+2748655D02*
X-1469380Y+2761990D01*
X-1443980Y+2761990D01*
X-1494780Y+2815330D02*
X-1520180Y+2842000D01*
X-1443980Y+2842000D01*
X-1494780Y+2975350D02*
X-1482080Y+2962015D01*
X-1482080Y+2922010D01*
X-1494780Y+2908675D01*
X-1507480Y+2908675D01*
X-1520180Y+2922010D01*
X-1520180Y+2962015D01*
X-1507480Y+2975350D01*
X-1456680Y+2975350D01*
X-1443980Y+2962015D01*
X-1443980Y+2922010D01*
D22*
X-12367920Y+4567920D02*
X-6917920Y+4567920D01*
X-6917920Y+8803760D01*
X-12367920Y+8803760D01*
X-12367920Y+4567920D01*
D23*
X-11387920Y+6185840D02*
X-10847920Y+6185840D01*
X-10847920Y+6785840D01*
X-11387920Y+6785840D01*
X-11387920Y+6185840D01*
X-10898149Y+6485840D02*
X-10898871Y+6503640D01*
X-10904736Y+6539241D01*
X-10916977Y+6574842D01*
X-10936886Y+6610443D01*
X-10967321Y+6645900D01*
X-11002922Y+6673123D01*
X-11038523Y+6690768D01*
X-11074124Y+6701203D01*
X-11109725Y+6705458D01*
X-11117920Y+6705611D01*
X-11337691Y+6485840D02*
X-11336969Y+6503640D01*
X-11331104Y+6539241D01*
X-11318863Y+6574842D01*
X-11298954Y+6610443D01*
X-11268519Y+6645900D01*
X-11232918Y+6673123D01*
X-11197317Y+6690768D01*
X-11161716Y+6701203D01*
X-11126115Y+6705458D01*
X-11117920Y+6705611D01*
X-11337691Y+6485840D02*
X-11336969Y+6468040D01*
X-11331104Y+6432439D01*
X-11318863Y+6396838D01*
X-11298954Y+6361237D01*
X-11268519Y+6325780D01*
X-11232918Y+6298557D01*
X-11197317Y+6280912D01*
X-11161716Y+6270477D01*
X-11126115Y+6266222D01*
X-11117920Y+6266069D01*
X-10898149Y+6485840D02*
X-10898871Y+6468040D01*
X-10904736Y+6432439D01*
X-10916977Y+6396838D01*
X-10936886Y+6361237D01*
X-10967321Y+6325780D01*
X-11002922Y+6298557D01*
X-11038523Y+6280912D01*
X-11074124Y+6270477D01*
X-11109725Y+6266222D01*
X-11117920Y+6266069D01*
X-10879636Y+6245840D02*
X-10879734Y+6248187D01*
X-10880527Y+6252883D01*
X-10882187Y+6257579D01*
X-10884901Y+6262275D01*
X-10889051Y+6266910D01*
X-10893747Y+6270317D01*
X-10898443Y+6272489D01*
X-10903139Y+6273717D01*
X-10907835Y+6274124D01*
X-10907920Y+6274124D01*
X-10936204Y+6245840D02*
X-10936106Y+6248187D01*
X-10935313Y+6252883D01*
X-10933653Y+6257579D01*
X-10930939Y+6262275D01*
X-10926789Y+6266910D01*
X-10922093Y+6270317D01*
X-10917397Y+6272489D01*
X-10912701Y+6273717D01*
X-10908005Y+6274124D01*
X-10907920Y+6274124D01*
X-10936204Y+6245840D02*
X-10936106Y+6243493D01*
X-10935313Y+6238797D01*
X-10933653Y+6234101D01*
X-10930939Y+6229405D01*
X-10926789Y+6224770D01*
X-10922093Y+6221363D01*
X-10917397Y+6219191D01*
X-10912701Y+6217963D01*
X-10908005Y+6217556D01*
X-10907920Y+6217556D01*
X-10879636Y+6245840D02*
X-10879734Y+6243493D01*
X-10880527Y+6238797D01*
X-10882187Y+6234101D01*
X-10884901Y+6229405D01*
X-10889051Y+6224770D01*
X-10893747Y+6221363D01*
X-10898443Y+6219191D01*
X-10903139Y+6217963D01*
X-10907835Y+6217556D01*
X-10907920Y+6217556D01*
X-11299636Y+6245840D02*
X-11299734Y+6248187D01*
X-11300527Y+6252883D01*
X-11302187Y+6257579D01*
X-11304901Y+6262275D01*
X-11309051Y+6266910D01*
X-11313747Y+6270317D01*
X-11318443Y+6272489D01*
X-11323139Y+6273717D01*
X-11327835Y+6274124D01*
X-11327920Y+6274124D01*
X-11356204Y+6245840D02*
X-11356106Y+6248187D01*
X-11355313Y+6252883D01*
X-11353653Y+6257579D01*
X-11350939Y+6262275D01*
X-11346789Y+6266910D01*
X-11342093Y+6270317D01*
X-11337397Y+6272489D01*
X-11332701Y+6273717D01*
X-11328005Y+6274124D01*
X-11327920Y+6274124D01*
X-11356204Y+6245840D02*
X-11356106Y+6243493D01*
X-11355313Y+6238797D01*
X-11353653Y+6234101D01*
X-11350939Y+6229405D01*
X-11346789Y+6224770D01*
X-11342093Y+6221363D01*
X-11337397Y+6219191D01*
X-11332701Y+6217963D01*
X-11328005Y+6217556D01*
X-11327920Y+6217556D01*
X-11299636Y+6245840D02*
X-11299734Y+6243493D01*
X-11300527Y+6238797D01*
X-11302187Y+6234101D01*
X-11304901Y+6229405D01*
X-11309051Y+6224770D01*
X-11313747Y+6221363D01*
X-11318443Y+6219191D01*
X-11323139Y+6217963D01*
X-11327835Y+6217556D01*
X-11327920Y+6217556D01*
X-11299636Y+6715840D02*
X-11299734Y+6718187D01*
X-11300527Y+6722883D01*
X-11302187Y+6727579D01*
X-11304901Y+6732275D01*
X-11309051Y+6736910D01*
X-11313747Y+6740317D01*
X-11318443Y+6742489D01*
X-11323139Y+6743717D01*
X-11327835Y+6744124D01*
X-11327920Y+6744124D01*
X-11356204Y+6715840D02*
X-11356106Y+6718187D01*
X-11355313Y+6722883D01*
X-11353653Y+6727579D01*
X-11350939Y+6732275D01*
X-11346789Y+6736910D01*
X-11342093Y+6740317D01*
X-11337397Y+6742489D01*
X-11332701Y+6743717D01*
X-11328005Y+6744124D01*
X-11327920Y+6744124D01*
X-11356204Y+6715840D02*
X-11356106Y+6713493D01*
X-11355313Y+6708797D01*
X-11353653Y+6704101D01*
X-11350939Y+6699405D01*
X-11346789Y+6694770D01*
X-11342093Y+6691363D01*
X-11337397Y+6689191D01*
X-11332701Y+6687963D01*
X-11328005Y+6687556D01*
X-11327920Y+6687556D01*
X-11299636Y+6715840D02*
X-11299734Y+6713493D01*
X-11300527Y+6708797D01*
X-11302187Y+6704101D01*
X-11304901Y+6699405D01*
X-11309051Y+6694770D01*
X-11313747Y+6691363D01*
X-11318443Y+6689191D01*
X-11323139Y+6687963D01*
X-11327835Y+6687556D01*
X-11327920Y+6687556D01*
X-10879636Y+6715840D02*
X-10879734Y+6718187D01*
X-10880527Y+6722883D01*
X-10882187Y+6727579D01*
X-10884901Y+6732275D01*
X-10889051Y+6736910D01*
X-10893747Y+6740317D01*
X-10898443Y+6742489D01*
X-10903139Y+6743717D01*
X-10907835Y+6744124D01*
X-10907920Y+6744124D01*
X-10936204Y+6715840D02*
X-10936106Y+6718187D01*
X-10935313Y+6722883D01*
X-10933653Y+6727579D01*
X-10930939Y+6732275D01*
X-10926789Y+6736910D01*
X-10922093Y+6740317D01*
X-10917397Y+6742489D01*
X-10912701Y+6743717D01*
X-10908005Y+6744124D01*
X-10907920Y+6744124D01*
X-10936204Y+6715840D02*
X-10936106Y+6713493D01*
X-10935313Y+6708797D01*
X-10933653Y+6704101D01*
X-10930939Y+6699405D01*
X-10926789Y+6694770D01*
X-10922093Y+6691363D01*
X-10917397Y+6689191D01*
X-10912701Y+6687963D01*
X-10908005Y+6687556D01*
X-10907920Y+6687556D01*
X-10879636Y+6715840D02*
X-10879734Y+6713493D01*
X-10880527Y+6708797D01*
X-10882187Y+6704101D01*
X-10884901Y+6699405D01*
X-10889051Y+6694770D01*
X-10893747Y+6691363D01*
X-10898443Y+6689191D01*
X-10903139Y+6687963D01*
X-10907835Y+6687556D01*
X-10907920Y+6687556D01*
X-11224600Y+6091860D02*
X-11211265Y+6079160D01*
X-11157925Y+6079160D01*
X-11144590Y+6091860D01*
X-11144590Y+6104560D01*
X-11157925Y+6117260D01*
X-11211265Y+6117260D01*
X-11224600Y+6129960D01*
X-11224600Y+6142660D01*
X-11211265Y+6155360D01*
X-11157925Y+6155360D01*
X-11144590Y+6142660D01*
X-11091250Y+6129960D02*
X-11064580Y+6155360D01*
X-11064580Y+6079160D01*
X-12017920Y+6874840D02*
X-12017920Y+6747840D01*
X-12081420Y+6239840D02*
X-11954420Y+6239840D01*
X-11954420Y+6747840D01*
X-12081420Y+6747840D01*
X-12081420Y+6239840D01*
X-12017920Y+6239840D02*
X-12017920Y+6112840D01*
X-11997740Y+6333820D02*
X-12073940Y+6333820D01*
X-12073940Y+6400495D01*
X-12061240Y+6413830D01*
X-12048540Y+6413830D01*
X-12035840Y+6400495D01*
X-12035840Y+6333820D01*
X-12035840Y+6400495D02*
X-12023140Y+6413830D01*
X-11997740Y+6413830D01*
X-12061240Y+6453835D02*
X-12073940Y+6467170D01*
X-12073940Y+6507175D01*
X-12061240Y+6520510D01*
X-12048540Y+6520510D01*
X-12035840Y+6507175D01*
X-12023140Y+6520510D01*
X-12010440Y+6520510D01*
X-11997740Y+6507175D01*
X-11997740Y+6467170D01*
X-12010440Y+6453835D01*
X-12035840Y+6480505D02*
X-12035840Y+6507175D01*
X-12048540Y+6573850D02*
X-12073940Y+6600520D01*
X-11997740Y+6600520D01*
X-11767920Y+6112840D02*
X-11767920Y+6239840D01*
X-11831420Y+6239840D02*
X-11704420Y+6239840D01*
X-11704420Y+6747840D01*
X-11831420Y+6747840D01*
X-11831420Y+6239840D01*
X-11767920Y+6747840D02*
X-11767920Y+6874840D01*
X-11711900Y+6333820D02*
X-11788100Y+6333820D01*
X-11788100Y+6400495D01*
X-11775400Y+6413830D01*
X-11762700Y+6413830D01*
X-11750000Y+6400495D01*
X-11750000Y+6333820D01*
X-11750000Y+6400495D02*
X-11737300Y+6413830D01*
X-11711900Y+6413830D01*
X-11775400Y+6453835D02*
X-11788100Y+6467170D01*
X-11788100Y+6507175D01*
X-11775400Y+6520510D01*
X-11762700Y+6520510D01*
X-11750000Y+6507175D01*
X-11737300Y+6520510D01*
X-11724600Y+6520510D01*
X-11711900Y+6507175D01*
X-11711900Y+6467170D01*
X-11724600Y+6453835D01*
X-11750000Y+6480505D02*
X-11750000Y+6507175D01*
X-11775400Y+6560515D02*
X-11788100Y+6573850D01*
X-11788100Y+6613855D01*
X-11775400Y+6627190D01*
X-11762700Y+6627190D01*
X-11750000Y+6613855D01*
X-11750000Y+6573850D01*
X-11737300Y+6560515D01*
X-11711900Y+6560515D01*
X-11711900Y+6627190D01*
X-4232080Y+2598920D02*
X-3965380Y+2598920D01*
X-3965380Y+3117080D01*
X-4232080Y+3117080D01*
X-4232080Y+2598920D01*
X-3967920Y+3035800D02*
X-4229540Y+3035800D01*
X-4100000Y+3188200D02*
X-4100000Y+3117080D01*
X-4100000Y+2598920D02*
X-4100000Y+2527800D01*
X-4058700Y+2751320D02*
X-4134900Y+2751320D01*
X-4134900Y+2804660D01*
X-4109500Y+2831330D01*
X-4084100Y+2831330D01*
X-4058700Y+2804660D01*
X-4058700Y+2751320D01*
X-4134900Y+2871335D02*
X-4134900Y+2938010D01*
X-4122200Y+2938010D01*
X-4058700Y+2871335D01*
X-732080Y+2598920D02*
X-465380Y+2598920D01*
X-465380Y+3117080D01*
X-732080Y+3117080D01*
X-732080Y+2598920D01*
X-467920Y+3035800D02*
X-729540Y+3035800D01*
X-600000Y+3188200D02*
X-600000Y+3117080D01*
X-600000Y+2598920D02*
X-600000Y+2527800D01*
X-558700Y+2751320D02*
X-634900Y+2751320D01*
X-634900Y+2804660D01*
X-609500Y+2831330D01*
X-584100Y+2831330D01*
X-558700Y+2804660D01*
X-558700Y+2751320D01*
X-596800Y+2884670D02*
X-609500Y+2871335D01*
X-622200Y+2871335D01*
X-634900Y+2884670D01*
X-634900Y+2924675D01*
X-622200Y+2938010D01*
X-609500Y+2938010D01*
X-596800Y+2924675D01*
X-596800Y+2884670D01*
X-584100Y+2871335D01*
X-571400Y+2871335D01*
X-558700Y+2884670D01*
X-558700Y+2924675D01*
X-571400Y+2938010D01*
X-584100Y+2938010D01*
X-596800Y+2924675D01*
X-3400000Y+2477000D02*
X-3400000Y+2604000D01*
X-3463500Y+2604000D02*
X-3336500Y+2604000D01*
X-3336500Y+3112000D01*
X-3463500Y+3112000D01*
X-3463500Y+2604000D01*
X-3400000Y+3112000D02*
X-3400000Y+3239000D01*
X-3343980Y+2697980D02*
X-3420180Y+2697980D01*
X-3420180Y+2764655D01*
X-3407480Y+2777990D01*
X-3394780Y+2777990D01*
X-3382080Y+2764655D01*
X-3382080Y+2697980D01*
X-3382080Y+2764655D02*
X-3369380Y+2777990D01*
X-3343980Y+2777990D01*
X-3407480Y+2817995D02*
X-3420180Y+2831330D01*
X-3420180Y+2871335D01*
X-3407480Y+2884670D01*
X-3394780Y+2884670D01*
X-3382080Y+2871335D01*
X-3382080Y+2831330D01*
X-3369380Y+2817995D01*
X-3343980Y+2817995D01*
X-3343980Y+2884670D01*
X-3356680Y+2911340D02*
X-3407480Y+2911340D01*
X-3420180Y+2924675D01*
X-3420180Y+2978015D01*
X-3407480Y+2991350D01*
X-3356680Y+2991350D01*
X-3343980Y+2978015D01*
X-3343980Y+2924675D01*
X-3356680Y+2911340D01*
X-3343980Y+2911340D02*
X-3420180Y+2991350D01*
X-3791440Y+2667500D02*
X-3608560Y+2667500D01*
X-3608560Y+3048500D01*
X-3791440Y+3048500D01*
X-3791440Y+2667500D01*
X-3788900Y+2731000D02*
X-3611100Y+2731000D01*
X-3700000Y+3048500D02*
X-3700000Y+3213600D01*
X-3700000Y+2667500D02*
X-3700000Y+2502400D01*
X-3821920Y+2751320D02*
X-3898120Y+2751320D01*
X-3898120Y+2804660D01*
X-3872720Y+2831330D01*
X-3847320Y+2831330D01*
X-3821920Y+2804660D01*
X-3821920Y+2751320D01*
X-3872720Y+2938010D02*
X-3860020Y+2924675D01*
X-3860020Y+2884670D01*
X-3872720Y+2871335D01*
X-3885420Y+2871335D01*
X-3898120Y+2884670D01*
X-3898120Y+2924675D01*
X-3885420Y+2938010D01*
X-3834620Y+2938010D01*
X-3821920Y+2924675D01*
X-3821920Y+2884670D01*
X-1200000Y+2461000D02*
X-1200000Y+2588000D01*
X-1263500Y+2588000D02*
X-1136500Y+2588000D01*
X-1136500Y+3096000D01*
X-1263500Y+3096000D01*
X-1263500Y+2588000D01*
X-1200000Y+3096000D02*
X-1200000Y+3223000D01*
X-1143980Y+2681980D02*
X-1220180Y+2681980D01*
X-1220180Y+2748655D01*
X-1207480Y+2761990D01*
X-1194780Y+2761990D01*
X-1182080Y+2748655D01*
X-1182080Y+2681980D01*
X-1182080Y+2748655D02*
X-1169380Y+2761990D01*
X-1143980Y+2761990D01*
X-1207480Y+2801995D02*
X-1220180Y+2815330D01*
X-1220180Y+2855335D01*
X-1207480Y+2868670D01*
X-1194780Y+2868670D01*
X-1182080Y+2855335D01*
X-1182080Y+2815330D01*
X-1169380Y+2801995D01*
X-1143980Y+2801995D01*
X-1143980Y+2868670D01*
X-1194780Y+2922010D02*
X-1220180Y+2948680D01*
X-1143980Y+2948680D01*
X-991440Y+2651500D02*
X-808560Y+2651500D01*
X-808560Y+3032500D01*
X-991440Y+3032500D01*
X-991440Y+2651500D01*
X-988900Y+2715000D02*
X-811100Y+2715000D01*
X-900000Y+3032500D02*
X-900000Y+3197600D01*
X-900000Y+2651500D02*
X-900000Y+2486400D01*
X-1021920Y+2681980D02*
X-1098120Y+2681980D01*
X-1098120Y+2735320D01*
X-1072720Y+2761990D01*
X-1047320Y+2761990D01*
X-1021920Y+2735320D01*
X-1021920Y+2681980D01*
X-1072720Y+2815330D02*
X-1098120Y+2842000D01*
X-1021920Y+2842000D01*
X-1034620Y+2895340D02*
X-1085420Y+2895340D01*
X-1098120Y+2908675D01*
X-1098120Y+2962015D01*
X-1085420Y+2975350D01*
X-1034620Y+2975350D01*
X-1021920Y+2962015D01*
X-1021920Y+2908675D01*
X-1034620Y+2895340D01*
X-1021920Y+2895340D02*
X-1098120Y+2975350D01*
X-2412400Y+6600000D02*
X-2414879Y+6666342D01*
X-2434965Y+6799028D01*
X-2476605Y+6931714D01*
X-2543341Y+7064400D01*
X-2642758Y+7197086D01*
X-2773936Y+7315614D01*
X-2906622Y+7396537D01*
X-3039308Y+7449487D01*
X-3171994Y+7479531D01*
X-3301400Y+7489000D01*
X-4190400Y+6600000D02*
X-4187921Y+6666342D01*
X-4167835Y+6799028D01*
X-4126195Y+6931714D01*
X-4059459Y+7064400D01*
X-3960042Y+7197086D01*
X-3828864Y+7315614D01*
X-3696178Y+7396537D01*
X-3563492Y+7449487D01*
X-3430806Y+7479531D01*
X-3301400Y+7489000D01*
X-4190400Y+6600000D02*
X-4187921Y+6533658D01*
X-4167835Y+6400972D01*
X-4126195Y+6268286D01*
X-4059459Y+6135600D01*
X-3960042Y+6002914D01*
X-3828864Y+5884386D01*
X-3696178Y+5803463D01*
X-3563492Y+5750513D01*
X-3430806Y+5720469D01*
X-3301400Y+5711000D01*
X-2412400Y+6600000D02*
X-2414879Y+6533658D01*
X-2434965Y+6400972D01*
X-2476605Y+6268286D01*
X-2543341Y+6135600D01*
X-2642758Y+6002914D01*
X-2773936Y+5884386D01*
X-2906622Y+5803463D01*
X-3039308Y+5750513D01*
X-3171994Y+5720469D01*
X-3301400Y+5711000D01*
X-5008280Y+7006400D02*
X-3954180Y+7717600D01*
X-5046380Y+6219000D02*
X-5091902Y+6249748D01*
X-5132899Y+6286389D01*
X-5168895Y+6328389D01*
X-5199415Y+6375210D01*
X-5223982Y+6426318D01*
X-5242119Y+6481176D01*
X-5253350Y+6539248D01*
X-5257200Y+6600000D01*
X-5008280Y+7006400D02*
X-5063460Y+6973623D01*
X-5112539Y+6934685D01*
X-5155128Y+6890091D01*
X-5190842Y+6840348D01*
X-5219293Y+6785961D01*
X-5240095Y+6727437D01*
X-5252859Y+6665281D01*
X-5257200Y+6600000D01*
X-3301400Y+7895400D02*
X-3210843Y+7892448D01*
X-3122251Y+7883692D01*
X-3035920Y+7869281D01*
X-2952150Y+7849362D01*
X-2871237Y+7824087D01*
X-2793479Y+7793602D01*
X-2719174Y+7758056D01*
X-2648620Y+7717600D01*
X-3301400Y+7895400D02*
X-3391957Y+7892448D01*
X-3480549Y+7883692D01*
X-3566880Y+7869281D01*
X-3650650Y+7849362D01*
X-3731563Y+7824087D01*
X-3809321Y+7793602D01*
X-3883626Y+7758056D01*
X-3954180Y+7717600D01*
X-1566580Y+6993700D02*
X-1519163Y+6961156D01*
X-1476331Y+6922898D01*
X-1438618Y+6879400D01*
X-1406560Y+6831140D01*
X-1380694Y+6778594D01*
X-1361554Y+6722238D01*
X-1349678Y+6662548D01*
X-1345600Y+6600000D01*
X-1581820Y+6206300D02*
X-1530831Y+6237281D01*
X-1484903Y+6274602D01*
X-1444571Y+6317698D01*
X-1410370Y+6366002D01*
X-1382837Y+6418951D01*
X-1362507Y+6475977D01*
X-1349916Y+6536515D01*
X-1345600Y+6600000D01*
X-2646080Y+5482400D02*
X-1581820Y+6206300D01*
X-2648620Y+7717600D02*
X-1566580Y+6993700D01*
X-5046380Y+6219000D02*
X-3954180Y+5482400D01*
X-3301400Y+5304600D02*
X-3210838Y+5307552D01*
X-3122211Y+5316308D01*
X-3035786Y+5330719D01*
X-2951832Y+5350638D01*
X-2870617Y+5375913D01*
X-2792408Y+5406398D01*
X-2717473Y+5441944D01*
X-2646080Y+5482400D01*
X-3301400Y+5304600D02*
X-3391957Y+5307552D01*
X-3480549Y+5316308D01*
X-3566880Y+5330719D01*
X-3650650Y+5350638D01*
X-3731563Y+5375913D01*
X-3809321Y+5406398D01*
X-3883626Y+5441944D01*
X-3954180Y+5482400D01*
X-5338480Y+6493320D02*
X-5363880Y+6519990D01*
X-5363880Y+6546660D01*
X-5338480Y+6573330D01*
X-5313080Y+6573330D01*
X-5287680Y+6546660D01*
X-5287680Y+6519990D01*
X-5313080Y+6493320D01*
X-5338480Y+6493320D01*
X-5313080Y+6546660D02*
X-5287680Y+6573330D01*
X-5363880Y+6680010D02*
X-5363880Y+6613335D01*
X-5338480Y+6613335D01*
X-5338480Y+6666675D01*
X-5325780Y+6680010D01*
X-5300380Y+6680010D01*
X-5287680Y+6666675D01*
X-5287680Y+6626670D01*
X-5300380Y+6613335D01*
X+5037600Y+6600000D02*
X+5035121Y+6666342D01*
X+5015035Y+6799028D01*
X+4973395Y+6931714D01*
X+4906659Y+7064400D01*
X+4807242Y+7197086D01*
X+4676064Y+7315614D01*
X+4543378Y+7396537D01*
X+4410692Y+7449487D01*
X+4278006Y+7479531D01*
X+4148600Y+7489000D01*
X+3259600Y+6600000D02*
X+3262079Y+6666342D01*
X+3282165Y+6799028D01*
X+3323805Y+6931714D01*
X+3390541Y+7064400D01*
X+3489958Y+7197086D01*
X+3621136Y+7315614D01*
X+3753822Y+7396537D01*
X+3886508Y+7449487D01*
X+4019194Y+7479531D01*
X+4148600Y+7489000D01*
X+3259600Y+6600000D02*
X+3262079Y+6533658D01*
X+3282165Y+6400972D01*
X+3323805Y+6268286D01*
X+3390541Y+6135600D01*
X+3489958Y+6002914D01*
X+3621136Y+5884386D01*
X+3753822Y+5803463D01*
X+3886508Y+5750513D01*
X+4019194Y+5720469D01*
X+4148600Y+5711000D01*
X+5037600Y+6600000D02*
X+5035121Y+6533658D01*
X+5015035Y+6400972D01*
X+4973395Y+6268286D01*
X+4906659Y+6135600D01*
X+4807242Y+6002914D01*
X+4676064Y+5884386D01*
X+4543378Y+5803463D01*
X+4410692Y+5750513D01*
X+4278006Y+5720469D01*
X+4148600Y+5711000D01*
X+2441720Y+7006400D02*
X+3495820Y+7717600D01*
X+2403620Y+6219000D02*
X+2358098Y+6249748D01*
X+2317101Y+6286389D01*
X+2281105Y+6328389D01*
X+2250585Y+6375210D01*
X+2226018Y+6426318D01*
X+2207881Y+6481176D01*
X+2196650Y+6539248D01*
X+2192800Y+6600000D01*
X+2441720Y+7006400D02*
X+2386540Y+6973623D01*
X+2337461Y+6934685D01*
X+2294872Y+6890091D01*
X+2259158Y+6840348D01*
X+2230707Y+6785961D01*
X+2209905Y+6727437D01*
X+2197141Y+6665281D01*
X+2192800Y+6600000D01*
X+4148600Y+7895400D02*
X+4239157Y+7892448D01*
X+4327749Y+7883692D01*
X+4414080Y+7869281D01*
X+4497850Y+7849362D01*
X+4578763Y+7824087D01*
X+4656521Y+7793602D01*
X+4730826Y+7758056D01*
X+4801380Y+7717600D01*
X+4148600Y+7895400D02*
X+4058043Y+7892448D01*
X+3969451Y+7883692D01*
X+3883120Y+7869281D01*
X+3799350Y+7849362D01*
X+3718437Y+7824087D01*
X+3640679Y+7793602D01*
X+3566374Y+7758056D01*
X+3495820Y+7717600D01*
X+5883420Y+6993700D02*
X+5930837Y+6961156D01*
X+5973669Y+6922898D01*
X+6011382Y+6879400D01*
X+6043440Y+6831140D01*
X+6069306Y+6778594D01*
X+6088446Y+6722238D01*
X+6100322Y+6662548D01*
X+6104400Y+6600000D01*
X+5868180Y+6206300D02*
X+5919169Y+6237281D01*
X+5965097Y+6274602D01*
X+6005429Y+6317698D01*
X+6039630Y+6366002D01*
X+6067163Y+6418951D01*
X+6087493Y+6475977D01*
X+6100084Y+6536515D01*
X+6104400Y+6600000D01*
X+4803920Y+5482400D02*
X+5868180Y+6206300D01*
X+4801380Y+7717600D02*
X+5883420Y+6993700D01*
X+2403620Y+6219000D02*
X+3495820Y+5482400D01*
X+4148600Y+5304600D02*
X+4239162Y+5307552D01*
X+4327789Y+5316308D01*
X+4414214Y+5330719D01*
X+4498168Y+5350638D01*
X+4579383Y+5375913D01*
X+4657592Y+5406398D01*
X+4732527Y+5441944D01*
X+4803920Y+5482400D01*
X+4148600Y+5304600D02*
X+4058043Y+5307552D01*
X+3969451Y+5316308D01*
X+3883120Y+5330719D01*
X+3799350Y+5350638D01*
X+3718437Y+5375913D01*
X+3640679Y+5406398D01*
X+3566374Y+5441944D01*
X+3495820Y+5482400D01*
X+2111520Y+6493320D02*
X+2086120Y+6519990D01*
X+2086120Y+6546660D01*
X+2111520Y+6573330D01*
X+2136920Y+6573330D01*
X+2162320Y+6546660D01*
X+2162320Y+6519990D01*
X+2136920Y+6493320D01*
X+2111520Y+6493320D01*
X+2136920Y+6546660D02*
X+2162320Y+6573330D01*
X+2098820Y+6680010D02*
X+2086120Y+6666675D01*
X+2086120Y+6626670D01*
X+2098820Y+6613335D01*
X+2149620Y+6613335D01*
X+2162320Y+6626670D01*
X+2162320Y+6666675D01*
X+2149620Y+6680010D01*
X+2136920Y+6680010D01*
X+2124220Y+6666675D01*
X+2124220Y+6613335D01*
X+1154000Y+6092000D02*
X+1154000Y+7108000D01*
X-370000Y+6092000D02*
X-370000Y+7108000D01*
X+1154000Y+7108000D02*
X-370000Y+7108000D01*
X-370000Y+6092000D02*
X+1154000Y+6092000D01*
X+285320Y+6010720D02*
X+285320Y+5998020D01*
X+298655Y+5985320D01*
X+351995Y+5985320D01*
X+365330Y+5998020D01*
X+365330Y+6061520D01*
X+472010Y+6048820D02*
X+458675Y+6061520D01*
X+418670Y+6061520D01*
X+405335Y+6048820D01*
X+405335Y+5998020D01*
X+418670Y+5985320D01*
X+458675Y+5985320D01*
X+472010Y+5998020D01*
X+472010Y+6010720D01*
X+458675Y+6023420D01*
X+405335Y+6023420D01*
X+5846000Y+196000D02*
X+6608000Y+196000D01*
X+6608000Y+831000D01*
X+5846000Y+831000D01*
X+5846000Y+196000D01*
X+5846000Y+704000D02*
X+6608000Y+704000D01*
X+6120320Y+886880D02*
X+6120320Y+874180D01*
X+6133655Y+861480D01*
X+6186995Y+861480D01*
X+6200330Y+874180D01*
X+6200330Y+937680D01*
X+6240335Y+937680D02*
X+6307010Y+937680D01*
X+6307010Y+924980D01*
X+6240335Y+861480D01*
X+4615380Y-1001080D02*
X+4882080Y-1001080D01*
X+4882080Y-482920D01*
X+4615380Y-482920D01*
X+4615380Y-1001080D01*
X+4617920Y-919800D02*
X+4879540Y-919800D01*
X+4750000Y-1072200D02*
X+4750000Y-1001080D01*
X+4750000Y-482920D02*
X+4750000Y-411800D01*
X+4584900Y-902020D02*
X+4508700Y-902020D01*
X+4508700Y-848680D01*
X+4534100Y-822010D01*
X+4559500Y-822010D01*
X+4584900Y-848680D01*
X+4584900Y-902020D01*
X+4534100Y-768670D02*
X+4508700Y-742000D01*
X+4584900Y-742000D01*
X+4534100Y-661990D02*
X+4508700Y-635320D01*
X+4584900Y-635320D01*
X+5015380Y-1001080D02*
X+5282080Y-1001080D01*
X+5282080Y-482920D01*
X+5015380Y-482920D01*
X+5015380Y-1001080D01*
X+5017920Y-919800D02*
X+5279540Y-919800D01*
X+5150000Y-1072200D02*
X+5150000Y-1001080D01*
X+5150000Y-482920D02*
X+5150000Y-411800D01*
X+4984900Y-902020D02*
X+4908700Y-902020D01*
X+4908700Y-848680D01*
X+4934100Y-822010D01*
X+4959500Y-822010D01*
X+4984900Y-848680D01*
X+4984900Y-902020D01*
X+4934100Y-768670D02*
X+4908700Y-742000D01*
X+4984900Y-742000D01*
X+4921400Y-675325D02*
X+4908700Y-661990D01*
X+4908700Y-621985D01*
X+4921400Y-608650D01*
X+4934100Y-608650D01*
X+4946800Y-621985D01*
X+4946800Y-661990D01*
X+4959500Y-675325D01*
X+4984900Y-675325D01*
X+4984900Y-608650D01*
X+5550000Y-361000D02*
X+5550000Y-488000D01*
X+5486500Y-996000D02*
X+5613500Y-996000D01*
X+5613500Y-488000D01*
X+5486500Y-488000D01*
X+5486500Y-996000D01*
X+5550000Y-996000D02*
X+5550000Y-1123000D01*
X+5720180Y-902020D02*
X+5643980Y-902020D01*
X+5643980Y-835345D01*
X+5656680Y-822010D01*
X+5669380Y-822010D01*
X+5682080Y-835345D01*
X+5682080Y-902020D01*
X+5682080Y-835345D02*
X+5694780Y-822010D01*
X+5720180Y-822010D01*
X+5656680Y-782005D02*
X+5643980Y-768670D01*
X+5643980Y-728665D01*
X+5656680Y-715330D01*
X+5669380Y-715330D01*
X+5682080Y-728665D01*
X+5682080Y-768670D01*
X+5694780Y-782005D01*
X+5720180Y-782005D01*
X+5720180Y-715330D01*
X+5656680Y-675325D02*
X+5643980Y-661990D01*
X+5643980Y-621985D01*
X+5656680Y-608650D01*
X+5669380Y-608650D01*
X+5682080Y-621985D01*
X+5682080Y-661990D01*
X+5694780Y-675325D01*
X+5720180Y-675325D01*
X+5720180Y-608650D01*
X+6027000Y-423000D02*
X+6154000Y-423000D01*
X+6281000Y-550000D02*
X+6306876Y-547564D01*
X+6330848Y-540515D01*
X+6352438Y-529238D01*
X+6371170Y-514122D01*
X+6386569Y-495554D01*
X+6398158Y-473919D01*
X+6405460Y-449606D01*
X+6408000Y-423000D01*
X+6281000Y-550000D02*
X+6254394Y-547564D01*
X+6230081Y-540515D01*
X+6208446Y-529238D01*
X+6189878Y-514122D01*
X+6174762Y-495554D01*
X+6163485Y-473919D01*
X+6156436Y-449606D01*
X+6154000Y-423000D01*
X+6408000Y-423000D02*
X+6535000Y-423000D01*
X+6027000Y-1185000D02*
X+6535000Y-1185000D01*
X+6027000Y-423000D02*
X+6027000Y-1185000D01*
X+6535000Y-423000D02*
X+6535000Y-1185000D01*
X+6174320Y-316320D02*
X+6174320Y-379820D01*
X+6187655Y-392520D01*
X+6240995Y-392520D01*
X+6254330Y-379820D01*
X+6254330Y-316320D01*
X+6294335Y-329020D02*
X+6307670Y-316320D01*
X+6347675Y-316320D01*
X+6361010Y-329020D01*
X+6361010Y-341720D01*
X+6347675Y-354420D01*
X+6307670Y-354420D01*
X+6294335Y-367120D01*
X+6294335Y-392520D01*
X+6361010Y-392520D01*
X+7300000Y-1027000D02*
X+7274124Y-1021920D01*
X+7250152Y-1007315D01*
X+7228562Y-984138D01*
X+7209830Y-953340D01*
X+7194431Y-915875D01*
X+7182842Y-872695D01*
X+7175540Y-824752D01*
X+7173000Y-773000D01*
X+7300000Y-519000D02*
X+7274124Y-524080D01*
X+7250152Y-538685D01*
X+7228562Y-561862D01*
X+7209830Y-592660D01*
X+7194431Y-630125D01*
X+7182842Y-673305D01*
X+7175540Y-721248D01*
X+7173000Y-773000D01*
X+7300000Y-1027000D02*
X+7325876Y-1021920D01*
X+7349848Y-1007315D01*
X+7371438Y-984138D01*
X+7390170Y-953340D01*
X+7405569Y-915875D01*
X+7417158Y-872695D01*
X+7424460Y-824752D01*
X+7427000Y-773000D01*
X+7300000Y-519000D02*
X+7325876Y-524080D01*
X+7349848Y-538685D01*
X+7371438Y-561862D01*
X+7390170Y-592660D01*
X+7405569Y-630125D01*
X+7417158Y-673305D01*
X+7424460Y-721248D01*
X+7427000Y-773000D01*
X+7129820Y-799670D02*
X+7142520Y-813005D01*
X+7142520Y-853010D01*
X+7117120Y-879680D01*
X+7091720Y-879680D01*
X+7066320Y-853010D01*
X+7066320Y-813005D01*
X+7079020Y-799670D01*
X+7066320Y-759665D02*
X+7066320Y-692990D01*
X+7079020Y-692990D01*
X+7142520Y-759665D01*
X+7000000Y-1123000D02*
X+7000000Y-996000D01*
X+6936500Y-996000D02*
X+7063500Y-996000D01*
X+7063500Y-488000D01*
X+6936500Y-488000D01*
X+6936500Y-996000D01*
X+7000000Y-488000D02*
X+7000000Y-361000D01*
X+6906020Y-902020D02*
X+6829820Y-902020D01*
X+6829820Y-835345D01*
X+6842520Y-822010D01*
X+6855220Y-822010D01*
X+6867920Y-835345D01*
X+6867920Y-902020D01*
X+6867920Y-835345D02*
X+6880620Y-822010D01*
X+6906020Y-822010D01*
X+6842520Y-782005D02*
X+6829820Y-768670D01*
X+6829820Y-728665D01*
X+6842520Y-715330D01*
X+6855220Y-715330D01*
X+6867920Y-728665D01*
X+6867920Y-768670D01*
X+6880620Y-782005D01*
X+6906020Y-782005D01*
X+6906020Y-715330D01*
X+6842520Y-675325D02*
X+6829820Y-661990D01*
X+6829820Y-621985D01*
X+6842520Y-608650D01*
X+6855220Y-608650D01*
X+6867920Y-621985D01*
X+6880620Y-608650D01*
X+6893320Y-608650D01*
X+6906020Y-621985D01*
X+6906020Y-661990D01*
X+6893320Y-675325D01*
X+6867920Y-648655D02*
X+6867920Y-621985D01*
X-7877000Y+6369000D02*
X-7623000Y+6369000D01*
X-7623000Y+6877000D01*
X-7877000Y+6877000D01*
X-7877000Y+6369000D01*
X-7592520Y+6462980D02*
X-7516320Y+6462980D01*
X-7516320Y+6542990D01*
X-7529020Y+6569660D02*
X-7516320Y+6582995D01*
X-7516320Y+6636335D01*
X-7529020Y+6649670D01*
X-7541720Y+6649670D01*
X-7554420Y+6636335D01*
X-7554420Y+6582995D01*
X-7567120Y+6569660D01*
X-7579820Y+6569660D01*
X-7592520Y+6582995D01*
X-7592520Y+6636335D01*
X-7579820Y+6649670D01*
X-7567120Y+6703010D02*
X-7592520Y+6729680D01*
X-7516320Y+6729680D01*
M02*
